<?xml version="1.0" encoding="UTF-8"?>
<svg version="1.1" xmlns="http://www.w3.org/2000/svg" width="454" height="374">
<path d="M0 0 C24.00826464 0.06252152 45.12170423 3.72142923 63.46875 20.13720703 C65.09375 22.01220703 65.09375 22.01220703 65.09375 25.01220703 C66.08375 25.34220703 67.07375 25.67220703 68.09375 26.01220703 C74.28804978 33.79285187 76.19750041 44.31955654 76.09375 54.01220703 C76.75117188 54.00133057 77.40859375 53.9904541 78.0859375 53.97924805 C86.66083387 53.9029977 95.17688232 54.30883965 103.73291016 54.81176758 C106.11723668 54.95107931 108.50191524 55.08251446 110.88671875 55.21337891 C112.41408933 55.30080204 113.94143419 55.38867595 115.46875 55.47705078 C116.52968872 55.53493019 116.52968872 55.53493019 117.61206055 55.59397888 C120.87589223 55.79111324 123.95825765 56.0519625 127.09375 57.01220703 C126.27593324 71.18299753 124.03632573 83.70458856 119.09375 97.01220703 C118.71379883 98.06093994 118.71379883 98.06093994 118.32617188 99.13085938 C113.7988344 111.53375452 107.6491107 122.87680224 99.09375 133.01220703 C98.43375 133.01220703 97.77375 133.01220703 97.09375 133.01220703 C96.84625 133.58970703 96.59875 134.16720703 96.34375 134.76220703 C94.91075012 137.34160682 93.30950324 139.07342295 91.09375 141.01220703 C90.43375 141.01220703 89.77375 141.01220703 89.09375 141.01220703 C88.89007813 141.58455078 88.68640625 142.15689453 88.4765625 142.74658203 C86.58696178 145.84253801 83.98625068 147.39458419 80.96875 149.26220703 C80.35201416 149.65061768 79.73527832 150.03902832 79.09985352 150.43920898 C72.02118041 154.80780717 64.6062615 158.45881024 57.09375 162.01220703 C55.37091797 162.83205078 55.37091797 162.83205078 53.61328125 163.66845703 C33.66246811 173.01220703 33.66246811 173.01220703 29.09375 173.01220703 C29.09375 173.67220703 29.09375 174.33220703 29.09375 175.01220703 C23.34375 178.01220703 23.34375 178.01220703 21.09375 178.01220703 C21.09375 178.67220703 21.09375 179.33220703 21.09375 180.01220703 C20.454375 180.11533203 19.815 180.21845703 19.15625 180.32470703 C18.1353125 180.66501953 18.1353125 180.66501953 17.09375 181.01220703 C16.76375 182.00220703 16.43375 182.99220703 16.09375 184.01220703 C13.65625 186.69970703 13.65625 186.69970703 11.09375 189.01220703 C10.43375 189.01220703 9.77375 189.01220703 9.09375 189.01220703 C8.95710938 189.59099609 8.82046875 190.16978516 8.6796875 190.76611328 C8.12774832 192.88188013 7.45353924 194.89150706 6.71875 196.94970703 C6.17046718 198.635069 5.62925064 200.32274022 5.09375 202.01220703 C4.80886719 202.85783203 4.52398437 203.70345703 4.23046875 204.57470703 C-1.89247967 225.93247972 2.80739034 249.77127738 5.8046875 271.32080078 C5.90377411 272.03462418 6.00286072 272.74844757 6.10494995 273.48390198 C6.535907 276.49019768 6.98235507 279.47343375 7.59747314 282.44851685 C9.24845463 290.5116436 9.53013844 298.49019251 9.71875 306.69970703 C9.75704144 308.0949107 9.7960991 309.49009355 9.8359375 310.88525391 C9.92937763 314.26077872 10.01514416 317.63630973 10.09375 321.01220703 C2.17160693 321.38913247 -5.75066774 321.76312836 -13.67310333 322.13384914 C-17.35586298 322.30626176 -21.03857831 322.47951199 -24.72119141 322.6550293 C-33.31493302 323.06408512 -41.9092415 323.45442142 -50.50488281 323.82147217 C-53.5084547 323.95015859 -56.51160554 324.0859009 -59.51464844 324.22637939 C-63.27408567 324.40143964 -67.03389417 324.56080934 -70.79447937 324.70909309 C-72.21456113 324.76758571 -73.63443525 324.83137812 -75.05403137 324.90066338 C-77.00999261 324.99517272 -78.96692918 325.06881159 -80.92382812 325.14135742 C-82.58967957 325.21284752 -82.58967957 325.21284752 -84.28918457 325.28578186 C-85.58463196 325.15036232 -85.58463196 325.15036232 -86.90625 325.01220703 C-89.38775639 321.28994744 -89.18655509 319.28495297 -89.25 314.83642578 C-89.26376175 314.12291962 -89.2775235 313.40941345 -89.29170227 312.67428589 C-89.32121925 311.14385475 -89.3469577 309.61334698 -89.36929321 308.08279419 C-89.43117526 304.09244957 -89.5327686 300.10320987 -89.63671875 296.11376953 C-89.65715744 295.32549271 -89.67759613 294.53721588 -89.69865417 293.72505188 C-89.90630382 268.27636936 -89.90630382 268.27636936 -100.7265625 245.98876953 C-113.32893606 234.56081071 -131.08077982 236.45431393 -146.90625 237.01220703 C-154.42275473 237.60959523 -160.40294566 239.22846632 -166.90625 243.01220703 C-167.96585938 243.50333984 -167.96585938 243.50333984 -169.046875 244.00439453 C-171.39388314 245.27651239 -171.9327557 246.57847128 -172.90625 249.01220703 C-173.56625 249.01220703 -174.22625 249.01220703 -174.90625 249.01220703 C-175.009375 249.65158203 -175.1125 250.29095703 -175.21875 250.94970703 C-175.90625 254.01220703 -175.90625 254.01220703 -177.28125 257.69970703 C-182.24273288 272.51759921 -182.39015835 288.12125204 -182.53125 303.57470703 C-182.56782111 306.51074146 -182.60826485 309.44664555 -182.65390015 312.3825531 C-182.68103133 314.18981608 -182.70242376 315.99717643 -182.71743774 317.80458069 C-182.79538016 323.90133719 -182.79538016 323.90133719 -183.90625 325.01220703 C-186.76365215 325.05457187 -189.59370243 325.03048685 -192.44921875 324.96142578 C-193.34495102 324.94328323 -194.24068329 324.92514069 -195.16355896 324.90644836 C-198.14045924 324.84365073 -201.11707238 324.77225849 -204.09375 324.69970703 C-205.10757751 324.67642334 -206.12140503 324.65313965 -207.16595459 324.62915039 C-223.2945078 324.25575298 -239.41318906 323.70018781 -255.53125 323.01220703 C-256.53296234 322.97050385 -257.53467468 322.92880066 -258.56674194 322.88583374 C-261.4015145 322.76632206 -264.23592831 322.64056756 -267.0703125 322.51220703 C-268.32973915 322.45907097 -268.32973915 322.45907097 -269.61460876 322.40486145 C-273.17398568 322.23575555 -276.47216194 321.95708483 -279.90625 321.01220703 C-282.28750724 312.84624455 -283.36372433 305.3638924 -283.33984375 296.87158203 C-283.3450856 295.74689514 -283.35032745 294.62220825 -283.35572815 293.46343994 C-283.36211115 291.09363625 -283.36086006 288.72380072 -283.35229492 286.35400391 C-283.34386936 282.81237974 -283.37246517 279.27241911 -283.40429688 275.73095703 C-283.47291488 253.63220126 -280.51792368 232.7946419 -272.90625 212.01220703 C-272.53064941 210.98595215 -272.53064941 210.98595215 -272.14746094 209.93896484 C-268.95315819 201.35557767 -265.1641161 193.12027119 -260.90625 185.01220703 C-260.24625 185.01220703 -259.58625 185.01220703 -258.90625 185.01220703 C-258.720625 184.13242187 -258.720625 184.13242187 -258.53125 183.23486328 C-252.7538283 162.68890736 -226.32650421 143.95480677 -208.90625 134.01220703 C-216.43600764 133.80502359 -223.69131772 134.44383647 -231.15625 135.38720703 C-239.60661651 136.41235122 -248.05014933 137.3447947 -256.53125 138.07470703 C-265.35643434 138.83794895 -274.12711887 139.82991717 -282.90625 141.01220703 C-283.58203125 139.27783203 -283.58203125 139.27783203 -283.90625 137.01220703 C-282.76171875 134.87158203 -282.76171875 134.87158203 -281.09375 132.76220703 C-280.55105469 132.05580078 -280.00835937 131.34939453 -279.44921875 130.62158203 C-278.68544922 129.82494141 -278.68544922 129.82494141 -277.90625 129.01220703 C-277.24625 129.01220703 -276.58625 129.01220703 -275.90625 129.01220703 C-275.7 128.45533203 -275.49375 127.89845703 -275.28125 127.32470703 C-273.38730476 124.13943548 -270.78948975 122.30703051 -267.90625 120.01220703 C-267.32875 119.41408203 -266.75125 118.81595703 -266.15625 118.19970703 C-264.90625 117.01220703 -264.90625 117.01220703 -262.90625 117.01220703 C-262.90625 116.35220703 -262.90625 115.69220703 -262.90625 115.01220703 C-261.3570526 114.05288439 -259.79066701 113.12133027 -258.21875 112.19970703 C-257.34863281 111.67763672 -256.47851562 111.15556641 -255.58203125 110.61767578 C-242.53694344 104.38875122 -227.73157994 105.52749919 -213.65625 105.44970703 C-210.26958352 105.42579262 -206.8831641 105.39752489 -203.49664307 105.35792542 C-201.40310286 105.33387049 -199.30943294 105.31876761 -197.21575928 105.3143158 C-191.36623032 105.25214235 -185.44650608 105.08439716 -179.90625 103.01220703 C-168.39931525 90.51060504 -167.16436153 70.16269004 -166.48510742 54.04321289 C-165.86529655 39.67813167 -164.30953251 24.72280197 -153.28125 14.32470703 C-143.16177575 6.11456755 -133.09894765 2.39732214 -120.16015625 2.63720703 C-112.44114901 3.5267925 -106.82914968 7.26623156 -102.0625 13.26611328 C-96.98718542 20.93052416 -97.00720308 30.38884869 -98.21484375 39.28564453 C-100.30096981 48.62705856 -104.84318851 54.75146724 -111.90625 61.01220703 C-112.62425781 61.66833984 -113.34226563 62.32447266 -114.08203125 63.00048828 C-117.86058077 65.69198621 -121.85817348 67.25132781 -126.15625 68.94970703 C-132.05743834 71.29794705 -137.60838267 73.82883073 -143.08496094 77.0612793 C-144.90625 78.01220703 -144.90625 78.01220703 -146.90625 78.01220703 C-148.47488129 81.11982116 -149.98108068 84.25365274 -151.47265625 87.39892578 C-151.95798828 88.41921875 -152.44332031 89.43951172 -152.94335938 90.49072266 C-153.96555043 92.64111946 -154.98637025 94.79216857 -156.00585938 96.94384766 C-156.73192383 98.46848633 -156.73192383 98.46848633 -157.47265625 100.02392578 C-158.13696655 101.42324341 -158.13696655 101.42324341 -158.81469727 102.85083008 C-159.90625 105.01220703 -159.90625 105.01220703 -160.90625 106.01220703 C-154.13306404 106.10983203 -147.46370749 105.88433993 -140.71875 105.26220703 C-139.44354492 105.16939453 -139.44354492 105.16939453 -138.14257812 105.07470703 C-130.96723455 104.40981033 -125.96534281 102.33756788 -120.90625 97.01220703 C-120.24625 97.01220703 -119.58625 97.01220703 -118.90625 97.01220703 C-117.91625 95.03220703 -117.91625 95.03220703 -116.90625 93.01220703 C-116.24625 93.01220703 -115.58625 93.01220703 -114.90625 93.01220703 C-113.91625 91.03220703 -113.91625 91.03220703 -112.90625 89.01220703 C-112.24625 89.01220703 -111.58625 89.01220703 -110.90625 89.01220703 C-109.91625 87.03220703 -109.91625 87.03220703 -108.90625 85.01220703 C-108.24625 85.01220703 -107.58625 85.01220703 -106.90625 85.01220703 C-106.90625 84.35220703 -106.90625 83.69220703 -106.90625 83.01220703 C-105.078125 81.50439453 -105.078125 81.50439453 -102.65625 79.88720703 C-101.86734375 79.34837891 -101.0784375 78.80955078 -100.265625 78.25439453 C-97.90625 77.01220703 -97.90625 77.01220703 -93.90625 77.01220703 C-93.7141273 82.4877041 -93.91438631 86.87529542 -95.90625 92.01220703 C-96.89625 92.34220703 -97.88625 92.67220703 -98.90625 93.01220703 C-100.02462276 94.85240548 -100.02462276 94.85240548 -100.90625 97.01220703 C-101.24785156 97.64900391 -101.58945313 98.28580078 -101.94140625 98.94189453 C-104.04623689 102.92746737 -105.80854917 106.42026817 -105.90625 111.01220703 C-104.98421291 113.37743261 -103.98926035 115.7162251 -102.90625 118.01220703 C-102.90625 119.00220703 -102.90625 119.99220703 -102.90625 121.01220703 C-102.308125 121.13595703 -101.71 121.25970703 -101.09375 121.38720703 C-98.90625 122.01220703 -98.90625 122.01220703 -95.90625 124.01220703 C-87.52369464 125.15929355 -80.54750022 124.42205392 -73.32421875 119.93017578 C-68.47078878 116.080363 -63.96157819 111.29509116 -62.90625 105.01220703 C-62.36982922 99.3385257 -62.52550816 94.81067932 -65.90625 90.01220703 C-68.15188288 88.12587541 -70.42691478 86.60272397 -72.90625 85.01220703 C-72.03125 78.26220703 -72.03125 78.26220703 -70.90625 76.01220703 C-63.93546246 76.16052166 -59.89342486 79.3149842 -54.90625 84.01220703 C-49.01212876 91.41764142 -47.98533446 98.76717181 -48.90625 108.01220703 C-51.53743089 118.97840392 -61.66425046 128.18572906 -70.90625 134.01220703 C-76.6494937 137.0473123 -81.33884408 137.47466051 -87.78125 137.38720703 C-88.62816406 137.39880859 -89.47507813 137.41041016 -90.34765625 137.42236328 C-95.58235816 137.39831411 -99.85695009 136.61262315 -104.75683594 134.7878418 C-106.82532276 134.04141033 -108.85031691 133.50589876 -110.9921875 133.01611328 C-114.34068044 132.2158185 -117.41182691 131.07342511 -120.58642578 129.75292969 C-128.74751322 126.38235754 -136.02022157 125.06241058 -144.90625 125.01220703 C-146.13988281 124.97482422 -147.37351563 124.93744141 -148.64453125 124.89892578 C-157.51406635 124.62594469 -157.51406635 124.62594469 -165.90625 127.01220703 C-169.63891173 130.95265113 -171.42027037 135.16453739 -173.34375 140.13720703 C-173.95019345 141.65999239 -174.5582688 143.18212885 -175.16796875 144.70361328 C-175.4623584 145.44111816 -175.75674805 146.17862305 -176.06005859 146.93847656 C-177.50876948 150.48877959 -179.12775698 153.95631158 -180.765625 157.42236328 C-181.69792104 159.53918615 -182.51192304 161.63766695 -183.30078125 163.80908203 C-184.8828709 168.08192643 -186.79969248 172.13105921 -188.84375 176.19970703 C-189.17826172 176.88484375 -189.51277344 177.56998047 -189.85742188 178.27587891 C-191.83116311 182.22716434 -193.87108121 185.74892534 -196.90625 189.01220703 C-197.56625 189.01220703 -198.22625 189.01220703 -198.90625 189.01220703 C-199.133125 189.60130859 -199.36 190.19041016 -199.59375 190.79736328 C-202.25082099 195.28117058 -207.50256014 197.4529946 -211.90625 200.01220703 C-212.70546875 200.48142578 -213.5046875 200.95064453 -214.328125 201.43408203 C-221.46591222 205.31435562 -229.05835267 207.13917554 -236.90625 209.01220703 C-237.74755169 206.63833242 -238.04846388 205.41481182 -237.19702148 203.00439453 C-236.81102783 202.30572266 -236.42503418 201.60705078 -236.02734375 200.88720703 C-235.60332275 200.10361816 -235.17930176 199.3200293 -234.74243164 198.51269531 C-234.05008423 197.27495361 -234.05008423 197.27495361 -233.34375 196.01220703 C-232.41306879 194.30180986 -231.48337997 192.59087233 -230.5546875 190.87939453 C-230.09932617 190.04762695 -229.64396484 189.21585938 -229.17480469 188.35888672 C-227.05917675 184.44521933 -225.11225926 180.45496032 -223.16015625 176.45751953 C-221.84890827 173.90038172 -220.39757027 171.46804352 -218.90625 169.01220703 C-216.86192044 165.36958345 -214.88859094 161.68885647 -212.90625 158.01220703 C-212.52533203 157.31289062 -212.14441406 156.61357422 -211.75195312 155.89306641 C-210.50540519 153.60280534 -209.26767837 151.30794456 -208.03125 149.01220703 C-207.42289307 147.89894043 -207.42289307 147.89894043 -206.80224609 146.76318359 C-206.42664551 146.06161133 -206.05104492 145.36003906 -205.6640625 144.63720703 C-205.3252002 144.01072266 -204.98633789 143.38423828 -204.63720703 142.73876953 C-203.71131957 140.86425642 -203.71131957 140.86425642 -203.90625 138.01220703 C-206.44996744 139.90530069 -208.99083644 141.80218272 -211.53125 143.69970703 C-212.24410156 144.23015625 -212.95695312 144.76060547 -213.69140625 145.30712891 C-221.24405062 150.32492091 -221.24405062 150.32492091 -226.90625 157.01220703 C-227.56625 157.01220703 -228.22625 157.01220703 -228.90625 157.01220703 C-229.174375 157.58455078 -229.4425 158.15689453 -229.71875 158.74658203 C-230.94757636 161.09105337 -232.33147176 163.13625641 -233.90625 165.26220703 C-234.421875 165.96861328 -234.9375 166.67501953 -235.46875 167.40283203 C-235.943125 167.93392578 -236.4175 168.46501953 -236.90625 169.01220703 C-237.56625 169.01220703 -238.22625 169.01220703 -238.90625 169.01220703 C-239.23625 170.33220703 -239.56625 171.65220703 -239.90625 173.01220703 C-240.56625 173.01220703 -241.22625 173.01220703 -241.90625 173.01220703 C-242.13828125 173.65673828 -242.3703125 174.30126953 -242.609375 174.96533203 C-243.99533866 178.22151171 -245.63048886 181.24468373 -247.33349609 184.34301758 C-255.35955434 199.02190484 -260.11884374 213.77800657 -263.90625 230.01220703 C-264.24914062 231.22908203 -264.59203125 232.44595703 -264.9453125 233.69970703 C-266.32327298 239.20157335 -266.63142125 244.80772473 -267.03125 250.44970703 C-267.11544189 251.59971191 -267.19963379 252.7497168 -267.28637695 253.93457031 C-268.05855543 265.11120831 -268.39847666 276.15137202 -267.40625 287.32470703 C-266.8897201 293.2002347 -266.90625 299.11401846 -266.90625 305.01220703 C-245.45625 305.01220703 -224.00625 305.01220703 -201.90625 305.01220703 C-201.90625 296.43220703 -201.90625 287.85220703 -201.90625 279.01220703 C-200.10283308 258.57348192 -197.54347692 242.5086753 -181.90625 228.19970703 C-165.49291322 214.57946198 -143.3551334 213.58701857 -122.94555664 215.47729492 C-111.41195707 216.73517942 -100.32195132 220.04458806 -90.90625 227.01220703 C-90.90625 227.67220703 -90.90625 228.33220703 -90.90625 229.01220703 C-90.30554688 229.28291016 -89.70484375 229.55361328 -89.0859375 229.83251953 C-80.7437529 234.34746532 -76.44097931 245.11433633 -73.75927734 253.67260742 C-70.78171317 264.90240635 -70.42599215 275.50934408 -70.65625 287.07470703 C-70.73875 292.99408203 -70.82125 298.91345703 -70.90625 305.01220703 C-49.78625 305.01220703 -28.66625 305.01220703 -6.90625 305.01220703 C-7.6016072 287.16644073 -7.6016072 287.16644073 -9.46875 269.63720703 C-10.83544817 258.65743272 -11.25893224 247.75684035 -11.32711792 236.70135498 C-11.33799591 234.94255301 -11.35525192 233.18377597 -11.37966919 231.42510986 C-11.56092711 216.4705218 -11.21888902 198.48669696 -1.90625 186.01220703 C-1.30683594 185.18591797 -0.70742188 184.35962891 -0.08984375 183.50830078 C7.05011234 174.13274201 14.61732888 168.29254797 25.09375 163.01220703 C26.05539062 162.50689453 27.01703125 162.00158203 28.0078125 161.48095703 C34.25648621 158.24945295 40.56601779 155.57425173 47.18359375 153.18798828 C50.0375647 152.0349074 52.48304334 150.63066876 55.09375 149.01220703 C56.6096875 148.39345703 56.6096875 148.39345703 58.15625 147.76220703 C80.22536119 138.5306834 94.37849553 122.72608636 103.78125 101.26220703 C104.214375 100.18970703 104.6475 99.11720703 105.09375 98.01220703 C105.58101563 96.83142578 106.06828125 95.65064453 106.5703125 94.43408203 C108.33337378 89.71741917 109.08276432 84.98176088 109.78125 80.01220703 C109.91080078 79.14208984 110.04035156 78.27197266 110.17382812 77.37548828 C110.48832518 75.25554518 110.79216096 73.13402494 111.09375 71.01220703 C109.876875 71.08439453 108.66 71.15658203 107.40625 71.23095703 C90.6313421 72.14515203 73.88667758 72.1151631 57.09375 72.01220703 C57.07187622 70.82461792 57.07187622 70.82461792 57.04956055 69.61303711 C56.97496644 66.0164416 56.87834167 62.4207626 56.78125 58.82470703 C56.75869141 57.57882813 56.73613281 56.33294922 56.71289062 55.04931641 C56.6597168 53.24624023 56.6597168 53.24624023 56.60546875 51.40673828 C56.56619263 49.74928589 56.56619263 49.74928589 56.52612305 48.05834961 C56.04848582 44.69331306 54.90887878 42.8410066 53.09375 40.01220703 C53.09375 39.02220703 53.09375 38.03220703 53.09375 37.01220703 C52.43375 37.01220703 51.77375 37.01220703 51.09375 37.01220703 C49.918125 35.46533203 49.918125 35.46533203 48.71875 33.88720703 C44.56813045 28.83472447 38.98285572 26.57234316 33.09375 24.01220703 C32.31902344 23.66029297 31.54429687 23.30837891 30.74609375 22.94580078 C9.5347578 15.47966044 -16.01097752 16.83487766 -36.15625 26.19970703 C-54.48069445 35.95070791 -67.44845852 53.36975795 -73.90625 73.01220703 C-76.79048287 82.47298812 -78.75607402 91.58013817 -74.90625 101.01220703 C-72.92057266 102.50964591 -72.92057266 102.50964591 -70.90625 103.01220703 C-70.90625 103.67220703 -70.90625 104.33220703 -70.90625 105.01220703 C-69.91625 105.01220703 -68.92625 105.01220703 -67.90625 105.01220703 C-68.18114191 109.04395509 -68.44116576 110.58115334 -71.46875 113.38720703 C-72.273125 113.92345703 -73.0775 114.45970703 -73.90625 115.01220703 C-80.84229879 112.30545628 -85.17943597 107.7470591 -88.2734375 101.05517578 C-93.27016312 86.80589273 -89.84323665 70.62269025 -83.90625 57.01220703 C-83.25283692 55.67232884 -82.58675758 54.33852964 -81.90625 53.01220703 C-81.58785156 52.34060547 -81.26945313 51.66900391 -80.94140625 50.97705078 C-78.63986461 46.17986158 -76.19218797 41.2146311 -72.90625 37.01220703 C-72.24625 37.01220703 -71.58625 37.01220703 -70.90625 37.01220703 C-70.80763672 36.19816406 -70.80763672 36.19816406 -70.70703125 35.36767578 C-69.58018744 32.05310593 -67.44071828 29.83899987 -65.09375 27.32470703 C-64.60237549 26.79723877 -64.11100098 26.26977051 -63.60473633 25.72631836 C-48.66799393 10.10859103 -29.00825999 0.93359977 -7.375 0.04736328 C-4.91664578 0.01571312 -2.45854193 0.01032654 0 0 Z M-146.67578125 25.83251953 C-150.7449662 30.72346202 -152.73317822 35.61873182 -152.90625 42.01220703 C-152.26532687 47.1034837 -150.1295698 50.202261 -146.21875 53.44970703 C-142.2013215 56.13288008 -138.7565065 57.42324572 -133.90625 57.01220703 C-125.98734498 55.21797472 -119.44600243 52.00112858 -113.90625 46.01220703 C-113.37 45.55845703 -112.83375 45.10470703 -112.28125 44.63720703 C-108.12801919 39.72884334 -107.4041149 34.53543163 -107.62109375 28.30908203 C-108.17431185 23.85302388 -110.13281895 21.72614338 -113.34375 18.76220703 C-124.29979716 11.28002848 -138.39144413 17.31044205 -146.67578125 25.83251953 Z M-183.90625 117.01220703 C-184.32291667 119.51220703 -184.32291667 119.51220703 -183.90625 122.01220703 C-183.24625 122.67220703 -182.58625 123.33220703 -181.90625 124.01220703 C-178.97171739 123.64539046 -178.04187754 123.14783457 -175.90625 121.01220703 C-176.22666397 118.40940135 -176.22666397 118.40940135 -176.90625 116.01220703 C-180.39206856 114.81020063 -180.58617344 114.79882266 -183.90625 117.01220703 Z " fill="#181929" transform="translate(308.90625,26.98779296875)"/>
<path d="M0 0 C1.27012939 0.17644043 1.27012939 0.17644043 2.56591797 0.35644531 C10.90272285 1.63150524 18.77345781 3.63372566 26.125 7.875 C27.05570313 8.40480469 27.98640625 8.93460938 28.9453125 9.48046875 C29.62335938 9.87878906 30.30140625 10.27710938 31 10.6875 C31 11.3475 31 12.0075 31 12.6875 C31.721875 12.914375 32.44375 13.14125 33.1875 13.375 C42.63736288 17.78493601 48.40106002 28.70391951 51.95703125 37.98828125 C52.89709262 40.62422081 52.89709262 40.62422081 54.13671875 42.66796875 C55.2968916 45.38203828 55.05488808 47.76402669 55 50.6875 C55.65742188 50.67662354 56.31484375 50.66574707 56.9921875 50.65454102 C65.56708387 50.57829067 74.08313232 50.98413262 82.63916016 51.48706055 C85.02348668 51.62637228 87.40816524 51.75780743 89.79296875 51.88867188 C91.32033933 51.97609501 92.84768419 52.06396892 94.375 52.15234375 C95.08229248 52.19093002 95.78958496 52.2295163 96.51831055 52.26927185 C99.78214223 52.46640621 102.86450765 52.72725547 106 53.6875 C105.74815329 57.02254724 105.47003486 60.3549235 105.1875 63.6875 C105.08211914 65.08935547 105.08211914 65.08935547 104.97460938 66.51953125 C104.45861137 72.42254846 103.34477023 77.23992422 101 82.6875 C100.34 82.6875 99.68 82.6875 99 82.6875 C98.9175 83.326875 98.835 83.96625 98.75 84.625 C97.88839116 88.14323612 96.49750858 91.17905407 94.98828125 94.4609375 C93.79618892 97.14667912 92.8637147 99.88042724 92 102.6875 C91.34 102.6875 90.68 102.6875 90 102.6875 C89.67 104.6675 89.34 106.6475 89 108.6875 C88.34 108.6875 87.68 108.6875 87 108.6875 C86.89042969 109.25339844 86.78085937 109.81929688 86.66796875 110.40234375 C86.50941406 111.13582031 86.35085938 111.86929688 86.1875 112.625 C85.96126953 113.72134766 85.96126953 113.72134766 85.73046875 114.83984375 C85.48941406 115.44957031 85.24835938 116.05929688 85 116.6875 C84.01 117.0175 83.02 117.3475 82 117.6875 C81.62243192 119.00898827 81.2981424 120.34585921 81 121.6875 C79.5625 124.4375 79.5625 124.4375 78 126.6875 C77.34 126.6875 76.68 126.6875 76 126.6875 C75.67 127.6775 75.34 128.6675 75 129.6875 C71.6885805 133.2685218 68.07576509 136.40416256 64.3125 139.5 C63.35988281 140.29019531 62.40726563 141.08039063 61.42578125 141.89453125 C59 143.6875 59 143.6875 57 143.6875 C57 144.3475 57 145.0075 57 145.6875 C47.51218113 150.86144155 38.1904491 155.8794493 28.00390625 159.53515625 C23.72968204 161.17481313 19.71335516 163.24332197 15.65625 165.35546875 C13 166.6875 13 166.6875 10.484375 167.66796875 C-1.12186533 172.430907 -12.00425513 181.05184106 -17 192.6875 C-18.74603065 197.66368734 -19.45097468 202.47175947 -20 207.6875 C-20.33 207.6875 -20.66 207.6875 -21 207.6875 C-21.04898438 206.68847656 -21.09796875 205.68945312 -21.1484375 204.66015625 C-21.26058594 202.72462891 -21.26058594 202.72462891 -21.375 200.75 C-21.47941406 198.81833984 -21.47941406 198.81833984 -21.5859375 196.84765625 C-21.79089844 195.28337891 -21.79089844 195.28337891 -22 193.6875 C-22.66 193.3575 -23.32 193.0275 -24 192.6875 C-23.52583422 187.70875936 -22.0900669 184.62031242 -19 180.6875 C-18.34 180.6875 -17.68 180.6875 -17 180.6875 C-16.7525 179.945 -16.505 179.2025 -16.25 178.4375 C-14.8864843 175.43776545 -13.54127785 173.76672733 -11 171.6875 C-10.01 171.6875 -9.02 171.6875 -8 171.6875 C-7.67 170.6975 -7.34 169.7075 -7 168.6875 C0.67006984 162.51075159 9.92711936 158.8679471 18.9375 155.125 C37.04449748 147.54948529 37.04449748 147.54948529 53.9375 137.625 C54.55689453 137.21701172 55.17628906 136.80902344 55.81445312 136.38867188 C59.63957131 133.81555837 62.73658606 130.96258984 66 127.6875 C66.66 127.6875 67.32 127.6875 68 127.6875 C68 127.0275 68 126.3675 68 125.6875 C69.375 124.0625 69.375 124.0625 71 122.6875 C71.66 122.6875 72.32 122.6875 73 122.6875 C73.1546875 121.8521875 73.1546875 121.8521875 73.3125 121 C74.14178408 118.2105899 75.34299056 116.0735936 77 113.6875 C77.66 113.6875 78.32 113.6875 79 113.6875 C79.16242188 112.59115234 79.16242188 112.59115234 79.328125 111.47265625 C80.04428726 108.50391385 81.11247904 106.68679182 82.75 104.125 C85.73694842 98.8204675 87.35074978 93.55252695 88.8125 87.6875 C89.01907227 86.86950928 89.22564453 86.05151855 89.43847656 85.20874023 C90.92158141 78.93296337 91.40412238 73.24215377 92 66.6875 C73.85 66.6875 55.7 66.6875 37 66.6875 C37.33 63.7175 37.66 60.7475 38 57.6875 C38.60156801 50.37006611 37.71882367 44.79357876 34.875 38 C34 35.6875 34 35.6875 34 32.6875 C33.34 32.6875 32.68 32.6875 32 32.6875 C30.95760439 31.49407548 29.96590275 30.25613796 29 29 C24.98801792 24.26920447 20.63779017 22.07763111 15 19.6875 C13.80375 19.130625 12.6075 18.57375 11.375 18 C-6.54200488 11.03227588 -33.70622133 10.56998853 -51.75390625 17.7890625 C-54 18.6875 -54 18.6875 -57 18.6875 C-57 19.3475 -57 20.0075 -57 20.6875 C-57.54527344 20.96722656 -58.09054687 21.24695313 -58.65234375 21.53515625 C-66.59018664 25.7551035 -73.52948234 30.46641669 -79 37.6875 C-79.66 37.6875 -80.32 37.6875 -81 37.6875 C-81.12375 38.285625 -81.2475 38.88375 -81.375 39.5 C-82 41.6875 -82 41.6875 -84 44.6875 C-84.66 44.6875 -85.32 44.6875 -86 44.6875 C-86.20625 45.47125 -86.4125 46.255 -86.625 47.0625 C-87.80778379 50.18074818 -89.00745859 52.3154961 -90.8125 55.0625 C-96.87111621 64.8335036 -101.50304387 79.18503925 -100 90.6875 C-98.27242125 96.38663209 -96.14106108 100.4029332 -91 103.6875 C-92.04874998 106.30937494 -92.64931313 107.48121361 -95.125 108.9375 C-95.74375 109.185 -96.3625 109.4325 -97 109.6875 C-97 109.0275 -97 108.3675 -97 107.6875 C-98.0828125 107.4090625 -98.0828125 107.4090625 -99.1875 107.125 C-103.88347418 104.72483542 -106.12045077 100.77833155 -108.12890625 96.00390625 C-109.2119163 91.88069758 -109.30087276 88.11778793 -109.25 83.875 C-109.24395752 83.07328369 -109.23791504 82.27156738 -109.23168945 81.44555664 C-109.1396092 75.96259585 -108.68685802 70.93072747 -107 65.6875 C-106.74283203 64.71296875 -106.74283203 64.71296875 -106.48046875 63.71875 C-102.86521455 51.21696775 -95.59777916 35.45920472 -85 27.6875 C-83.7483533 25.60415365 -83.7483533 25.60415365 -83 23.6875 C-82.34 23.6875 -81.68 23.6875 -81 23.6875 C-80.67 22.6975 -80.34 21.7075 -80 20.6875 C-79.34 20.6875 -78.68 20.6875 -78 20.6875 C-77.75765625 20.09710938 -77.5153125 19.50671875 -77.265625 18.8984375 C-72.49100734 10.55759307 -60.39981342 7.00906084 -52 3.6875 C-51.2575 3.35621094 -50.515 3.02492188 -49.75 2.68359375 C-44.80281315 0.55011942 -39.99412579 0.1865439 -34.63671875 -0.1015625 C-22.74477202 -1.05291824 -12.06755332 -1.7038076 0 0 Z " fill="#181828" transform="translate(330,30.3125)"/>
<path d="M0 0 C1.17585711 3.50160275 0.81601313 6.0602511 0.15625 9.6640625 C-0.72094325 14.9286938 -1.34734451 20.14633826 -1.78125 25.4609375 C-1.84135254 26.18790833 -1.90145508 26.91487915 -1.96337891 27.66387939 C-2.20771251 30.66198772 -2.4445789 33.66063264 -2.67724609 36.65966797 C-2.85170901 38.88562362 -3.03481111 41.11074775 -3.21875 43.3359375 C-3.3724707 45.29345947 -3.3724707 45.29345947 -3.52929688 47.29052734 C-4.01550953 51.12222602 -4.72979116 54.36054047 -6 58 C-6.99 58.495 -6.99 58.495 -8 59 C-8.268125 59.825 -8.53625 60.65 -8.8125 61.5 C-10.87173961 67.56933781 -13.39624639 73.52651228 -19 77 C-22.12207888 77.98798692 -25.00402276 78.13995429 -28.26831055 78.17358398 C-29.3200798 78.18707382 -30.37184906 78.20056366 -31.45549011 78.21446228 C-33.15394829 78.23011986 -33.15394829 78.23011986 -34.88671875 78.24609375 C-37.2936233 78.2790418 -39.70052425 78.31225328 -42.10742188 78.34570312 C-45.89474946 78.39302327 -49.68206348 78.4374435 -53.46948242 78.47680664 C-57.12955022 78.51671206 -60.78931844 78.56822064 -64.44921875 78.62109375 C-65.57140305 78.6295079 -66.69358734 78.63792206 -67.84977722 78.64659119 C-83.23405721 78.88642065 -96.62735545 83.38070691 -107.6328125 94.67578125 C-108.79262708 96.08725371 -109.8987072 97.54240659 -111 99 C-111.886875 99.86625 -112.77375 100.7325 -113.6875 101.625 C-115.77980867 103.77385755 -116.76886312 105.33534757 -118 108 C-116.84576538 107.80845337 -116.84576538 107.80845337 -115.66821289 107.61303711 C-107.27739681 106.2656022 -98.89894823 105.33167336 -90.4375 104.5625 C-87.71721373 104.30976058 -84.99723535 104.05382421 -82.27734375 103.796875 C-81.59276093 103.73240677 -80.9081781 103.66793854 -80.20285034 103.60151672 C-71.79099337 102.80178703 -63.3934029 101.86887087 -54.99780273 100.91430664 C-49.62961177 100.31917327 -44.40170564 99.8370175 -39 100 C-39.33 100.66 -39.66 101.32 -40 102 C-39.34 102 -38.68 102 -38 102 C-36.84517395 105.79442844 -36.44821115 107.82420833 -38.1640625 111.48046875 C-39.19812165 113.16399854 -40.26220252 114.82956056 -41.359375 116.47265625 C-43.14834026 119.22851463 -44.54031926 122.05595793 -46 125 C-46.80722275 126.465307 -47.62302771 127.92590451 -48.4453125 129.3828125 C-48.88230469 130.15753906 -49.31929688 130.93226563 -49.76953125 131.73046875 C-50.67842334 133.3360908 -51.58991342 134.94024479 -52.50390625 136.54296875 C-53.15552734 137.70119141 -53.15552734 137.70119141 -53.8203125 138.8828125 C-54.21492676 139.57777832 -54.60954102 140.27274414 -55.01611328 140.98876953 C-55.99318419 142.98606733 -56.54688644 144.82931236 -57 147 C-57.66 147 -58.32 147 -59 147 C-59.12528076 147.58555664 -59.25056152 148.17111328 -59.37963867 148.77441406 C-59.9941891 150.97915301 -60.78307977 152.63496546 -61.92578125 154.609375 C-62.31056641 155.28226563 -62.69535156 155.95515625 -63.09179688 156.6484375 C-63.49462891 157.34195313 -63.89746094 158.03546875 -64.3125 158.75 C-67.39317089 164.08915285 -70.28744077 169.46315141 -73 175 C-62.19044197 173.0182477 -52.96084723 169.1689035 -44.15625 162.55078125 C-42 161 -42 161 -39.7890625 159.9140625 C-37.4231931 158.70529953 -37.02020849 157.40477715 -36 155 C-35.34 154.01 -34.68 153.02 -34 152 C-33.34 152 -32.68 152 -32 152 C-31.7525 151.175 -31.505 150.35 -31.25 149.5 C-30 146 -30 146 -28.25 142.625 C-26.31118946 138.86018244 -24.86576322 134.97805527 -23.4375 131 C-20.74959357 123.6309183 -17.65792608 116.46349464 -14.4375 109.3125 C-13.74901978 107.75305664 -13.74901978 107.75305664 -13.04663086 106.16210938 C-10.63833181 100.88567842 -8.59217779 96.62942504 -4 93 C1.002862 91.33237933 6.19929678 91.77326798 11.4375 91.75 C13.12649414 91.7190625 13.12649414 91.7190625 14.84960938 91.6875 C27.04463359 91.63139868 37.51408678 95.00062592 48.875 99.125 C60.44442532 103.31703853 74.20301907 106.96622806 86.4375 102.9375 C95.7749063 98.525319 103.71761521 90.43644981 109 81.6875 C110.81415791 74.99779271 111.30085081 67.97652124 108.3125 61.5625 C105.67944539 57.07136784 102.31821398 53.87880932 98 51 C97.67 51.66 97.34 52.32 97 53 C97 51.68 97 50.36 97 49 C95.35 48.67 93.7 48.34 92 48 C91.49830585 50.83073436 91.49830585 50.83073436 92 54 C94.76238866 56.14749996 94.76238866 56.14749996 98 58 C101.42105759 61.32859657 102.67138252 64.09420666 103.03125 68.8984375 C102.92204046 76.2427792 99.71226206 81.87901829 96 88 C95.34 88 94.68 88 94 88 C94 88.66 94 89.32 94 90 C85.08238063 95.24093972 77.66465132 98.79885685 67 97 C61.60113419 95.36398006 58.08080834 92.80606102 55 88 C52.94188793 81.82566379 53.30925547 75.00841887 55.8046875 69 C57.80622206 65.65102715 60.58455973 63.00763479 63.2578125 60.1875 C65.74451139 57.0651875 66 54.92661341 66 51 C59.74336581 53.0402068 55.85647095 56.6048893 51.13671875 61.13671875 C49 63 49 63 47 63 C47.66 61.68 48.32 60.36 49 59 C49.66 59 50.32 59 51 59 C51.66 57.68 52.32 56.36 53 55 C53.66 55 54.32 55 55 55 C55 54.34 55 53.68 55 53 C56.828125 51.4921875 56.828125 51.4921875 59.25 49.875 C60.03890625 49.33617187 60.8278125 48.79734375 61.640625 48.2421875 C64 47 64 47 68 47 C68.1921227 52.47549707 67.99186369 56.86308839 66 62 C65.01 62.33 64.02 62.66 63 63 C61.88162724 64.84019844 61.88162724 64.84019844 61 67 C60.65839844 67.63679688 60.31679687 68.27359375 59.96484375 68.9296875 C57.86001311 72.91526034 56.09770083 76.40806114 56 81 C56.92203709 83.36522558 57.91698965 85.70401807 59 88 C59 88.99 59 89.98 59 91 C59.598125 91.12375 60.19625 91.2475 60.8125 91.375 C63 92 63 92 66 94 C74.38255536 95.14708652 81.35874978 94.40984689 88.58203125 89.91796875 C93.43546122 86.06815596 97.94467181 81.28288413 99 75 C99.53642078 69.32631867 99.38074184 64.79847229 96 60 C93.75436712 58.11366838 91.47933522 56.59051693 89 55 C89.875 48.25 89.875 48.25 91 46 C97.97078754 46.14831463 102.01282514 49.30277717 107 54 C112.89412124 61.40543438 113.92091554 68.75496478 113 78 C110.36881911 88.96619688 100.24199954 98.17352203 91 104 C85.2567563 107.03510527 80.56740592 107.46245347 74.125 107.375 C73.27808594 107.38660156 72.43117187 107.39820313 71.55859375 107.41015625 C66.32389184 107.38610708 62.04929991 106.60041612 57.14941406 104.77563477 C55.08092724 104.0292033 53.05593309 103.49369173 50.9140625 103.00390625 C47.56556956 102.20361147 44.49442309 101.06121808 41.31982422 99.74072266 C33.15873678 96.37015051 25.88602843 95.05020355 17 95 C15.76636719 94.96261719 14.53273437 94.92523438 13.26171875 94.88671875 C4.39218365 94.61373766 4.39218365 94.61373766 -4 97 C-7.73266173 100.94044409 -9.51402037 105.15233036 -11.4375 110.125 C-12.04394345 111.64778536 -12.6520188 113.16992182 -13.26171875 114.69140625 C-13.70330322 115.79766357 -13.70330322 115.79766357 -14.15380859 116.92626953 C-15.60251948 120.47657255 -17.22150698 123.94410455 -18.859375 127.41015625 C-19.79167104 129.52697912 -20.60567304 131.62545992 -21.39453125 133.796875 C-22.9766209 138.0697194 -24.89344248 142.11885218 -26.9375 146.1875 C-27.27201172 146.87263672 -27.60652344 147.55777344 -27.95117188 148.26367188 C-29.92491311 152.21495731 -31.96483121 155.73671831 -35 159 C-35.66 159 -36.32 159 -37 159 C-37.226875 159.58910156 -37.45375 160.17820313 -37.6875 160.78515625 C-40.34457099 165.26896354 -45.59631014 167.44078757 -50 170 C-50.79921875 170.46921875 -51.5984375 170.9384375 -52.421875 171.421875 C-59.55966222 175.30214859 -67.15210267 177.1269685 -75 179 C-75.84130169 176.62612539 -76.14221388 175.40260479 -75.29077148 172.9921875 C-74.90477783 172.29351562 -74.51878418 171.59484375 -74.12109375 170.875 C-73.69707275 170.09141113 -73.27305176 169.30782227 -72.83618164 168.50048828 C-72.14383423 167.26274658 -72.14383423 167.26274658 -71.4375 166 C-70.50681879 164.28960283 -69.57712997 162.5786653 -68.6484375 160.8671875 C-68.19307617 160.03541992 -67.73771484 159.20365234 -67.26855469 158.34667969 C-65.15292675 154.4330123 -63.20600926 150.44275329 -61.25390625 146.4453125 C-59.94265827 143.88817469 -58.49132027 141.45583649 -57 139 C-54.95567044 135.35737642 -52.98234094 131.67664944 -51 128 C-50.61908203 127.30068359 -50.23816406 126.60136719 -49.84570312 125.88085938 C-48.59915519 123.59059831 -47.36142837 121.29573753 -46.125 119 C-45.71942871 118.25782227 -45.31385742 117.51564453 -44.89599609 116.75097656 C-44.52039551 116.0494043 -44.14479492 115.34783203 -43.7578125 114.625 C-43.4189502 113.99851562 -43.08008789 113.37203125 -42.73095703 112.7265625 C-41.80506957 110.85204939 -41.80506957 110.85204939 -42 108 C-44.54371744 109.89309366 -47.08458644 111.78997569 -49.625 113.6875 C-50.33785156 114.21794922 -51.05070312 114.74839844 -51.78515625 115.29492188 C-59.33780062 120.31271388 -59.33780062 120.31271388 -65 127 C-65.66 127 -66.32 127 -67 127 C-67.268125 127.57234375 -67.53625 128.1446875 -67.8125 128.734375 C-69.04132636 131.07884634 -70.42522176 133.12404938 -72 135.25 C-72.515625 135.95640625 -73.03125 136.6628125 -73.5625 137.390625 C-74.036875 137.92171875 -74.51125 138.4528125 -75 139 C-75.66 139 -76.32 139 -77 139 C-77.33 140.32 -77.66 141.64 -78 143 C-78.66 143 -79.32 143 -80 143 C-80.42236938 144.09707275 -80.42236938 144.09707275 -80.85327148 145.21630859 C-81.89812906 147.7527076 -83.0534633 150.12285535 -84.34765625 152.5390625 C-84.78787109 153.36664063 -85.22808594 154.19421875 -85.68164062 155.046875 C-86.13732422 155.89765625 -86.59300781 156.7484375 -87.0625 157.625 C-87.97216054 159.32439389 -88.87980273 161.02487014 -89.78515625 162.7265625 C-90.18613525 163.47502441 -90.58711426 164.22348633 -91.00024414 164.99462891 C-92.11705218 167.11738388 -92.11705218 167.11738388 -93 170 C-93.99 170.33 -94.98 170.66 -96 171 C-95.33501072 167.92327538 -94.29372371 165.28832547 -92.93359375 162.453125 C-92.53076172 161.60878906 -92.12792969 160.76445312 -91.71289062 159.89453125 C-91.29201172 159.02183594 -90.87113281 158.14914063 -90.4375 157.25 C-90.01275391 156.36183594 -89.58800781 155.47367188 -89.15039062 154.55859375 C-88.10354152 152.37079674 -87.05331073 150.18469149 -86 148 C-85.34 148 -84.68 148 -84 148 C-83.74605469 147.28457031 -83.49210937 146.56914062 -83.23046875 145.83203125 C-76.50647438 130.35617119 -61.85209604 119.13946102 -49 109 C-53.80247635 111.64105842 -58.2295015 114.45984728 -62.5625 117.8125 C-63.1311377 118.25045898 -63.69977539 118.68841797 -64.28564453 119.13964844 C-67.87719312 121.96446193 -70.89626212 124.85126556 -73.6953125 128.4453125 C-75.08371747 130.09975914 -76.54801614 131.29949183 -78.25 132.625 C-83.78260581 137.15054722 -87.7857734 143.28493214 -92 149 C-92.66 148.34 -93.32 147.68 -94 147 C-80.82920703 129.31350658 -66.269457 114.99699617 -47 104 C-54.52975764 103.79281656 -61.78506772 104.43162944 -69.25 105.375 C-77.70036651 106.40014419 -86.14389933 107.33258767 -94.625 108.0625 C-103.45018434 108.82574192 -112.22086887 109.81771013 -121 111 C-121.67578125 109.265625 -121.67578125 109.265625 -122 107 C-120.85546875 104.859375 -120.85546875 104.859375 -119.1875 102.75 C-118.64480469 102.04359375 -118.10210937 101.3371875 -117.54296875 100.609375 C-116.77919922 99.81273437 -116.77919922 99.81273437 -116 99 C-115.34 99 -114.68 99 -114 99 C-113.79375 98.443125 -113.5875 97.88625 -113.375 97.3125 C-111.48105476 94.12722845 -108.88323975 92.29482348 -106 90 C-105.4225 89.401875 -104.845 88.80375 -104.25 88.1875 C-103 87 -103 87 -101 87 C-101 86.34 -101 85.68 -101 85 C-99.4508026 84.04067736 -97.88441701 83.10912324 -96.3125 82.1875 C-95.44238281 81.66542969 -94.57226562 81.14335937 -93.67578125 80.60546875 C-80.63069344 74.37654419 -65.82532994 75.51529216 -51.75 75.4375 C-48.36333352 75.41358559 -44.9769141 75.38531786 -41.59039307 75.34571838 C-39.49685286 75.32166345 -37.40318294 75.30656058 -35.30950928 75.30210876 C-29.45998032 75.23993531 -23.54025608 75.07219013 -18 73 C-6.53024243 60.53878881 -5.05872994 39.93164546 -4.56787109 23.82446289 C-4.30877671 15.57555892 -3.75392176 7.50784351 0 0 Z " fill="#020212" transform="translate(147,57)"/>
<path d="M0 0 C24.00826464 0.06252152 45.12170423 3.72142923 63.46875 20.13720703 C65.09375 22.01220703 65.09375 22.01220703 65.09375 25.01220703 C66.08375 25.34220703 67.07375 25.67220703 68.09375 26.01220703 C69.4453125 27.90283203 69.4453125 27.90283203 70.71875 30.26220703 C71.35683594 31.41462891 71.35683594 31.41462891 72.0078125 32.59033203 C74.30180066 37.70642073 74.18696021 42.51280446 74.09375 48.01220703 C73.76375 48.01220703 73.43375 48.01220703 73.09375 48.01220703 C72.83980469 47.14337891 72.58585938 46.27455078 72.32421875 45.37939453 C71.98003906 44.22697266 71.63585937 43.07455078 71.28125 41.88720703 C70.94480469 40.75025391 70.60835937 39.61330078 70.26171875 38.44189453 C68.64879404 33.70561395 66.80406003 29.47632971 63.40625 25.76220703 C61.09375 23.01220703 61.09375 23.01220703 61.09375 21.01220703 C60.536875 20.74408203 59.98 20.47595703 59.40625 20.19970703 C56.88149666 18.90321207 54.45660516 17.5874438 52.09375 16.01220703 C52.09375 15.35220703 52.09375 14.69220703 52.09375 14.01220703 C51.3925 13.74408203 50.69125 13.47595703 49.96875 13.19970703 C47.09375 12.01220703 47.09375 12.01220703 44.30859375 10.56689453 C30.03118632 3.66238887 4.52727669 -1.13230187 -10.90625 4.01220703 C-13.80448869 4.24406613 -16.70157703 4.39252146 -19.60546875 4.53564453 C-23.67788227 5.12361429 -27.11943008 6.45104924 -30.90625 8.01220703 C-31.56310791 8.27243652 -32.21996582 8.53266602 -32.89672852 8.80078125 C-43.57037525 13.06918406 -52.90640184 17.49241354 -59.90625 27.01220703 C-60.56625 27.34220703 -61.22625 27.67220703 -61.90625 28.01220703 C-62.174375 28.61033203 -62.4425 29.20845703 -62.71875 29.82470703 C-63.90625 32.01220703 -63.90625 32.01220703 -66.21875 33.76220703 C-76.5011401 42.37071967 -82.76460047 60.42785949 -85.90625 73.01220703 C-86.09832031 73.77404297 -86.29039062 74.53587891 -86.48828125 75.32080078 C-87.08755783 79.17969387 -87.1306348 82.98729324 -87.15625 86.88720703 C-87.176875 87.66451172 -87.1975 88.44181641 -87.21875 89.24267578 C-87.26719437 96.44877557 -85.36531401 101.27912473 -80.90625 107.01220703 C-80.90625 107.67220703 -80.90625 108.33220703 -80.90625 109.01220703 C-79.25625 109.67220703 -77.60625 110.33220703 -75.90625 111.01220703 C-75.90625 111.67220703 -75.90625 112.33220703 -75.90625 113.01220703 C-72.38243313 110.46616106 -72.38243313 110.46616106 -69.90625 107.01220703 C-70.48375 106.78533203 -71.06125 106.55845703 -71.65625 106.32470703 C-75.45204851 104.11049123 -77.39145471 101.17049644 -79.15625 97.19970703 C-80.70985244 90.59689666 -79.8886548 84.3876677 -78.34375 77.88720703 C-78.17101562 77.1558252 -77.99828125 76.42444336 -77.8203125 75.67089844 C-75.91048727 68.17938162 -72.6965677 61.73100685 -68.90625 55.01220703 C-68.46410156 54.21298828 -68.02195313 53.41376953 -67.56640625 52.59033203 C-66.70170069 51.05171005 -65.80899703 49.52882205 -64.90625 48.01220703 C-64.24625 48.01220703 -63.58625 48.01220703 -62.90625 48.01220703 C-61.69996992 45.68006555 -60.7407762 43.51578565 -59.90625 41.01220703 C-56.41396697 37.19153573 -52.55018613 33.98006291 -48.46875 30.82470703 C-47.92154297 30.38707031 -47.37433594 29.94943359 -46.81054688 29.49853516 C-43.32229026 26.79462026 -40.16369935 25.16165414 -35.90625 24.01220703 C-35.90625 23.35220703 -35.90625 22.69220703 -35.90625 22.01220703 C-16.84569167 14.14351962 10.6585785 12.06145506 30.09375 20.01220703 C31.08632813 20.39763672 32.07890625 20.78306641 33.1015625 21.18017578 C40.95880525 24.3172813 47.36928109 27.61427119 53.09375 34.01220703 C53.09375 34.67220703 53.09375 35.33220703 53.09375 36.01220703 C53.75375 36.01220703 54.41375 36.01220703 55.09375 36.01220703 C59.95336893 47.90091763 60.69137279 56.23122475 59.09375 69.01220703 C76.91375 69.01220703 94.73375 69.01220703 113.09375 69.01220703 C114.15998063 73.27712954 113.75152162 76.19981537 112.90625 80.38720703 C112.76606445 81.09474121 112.62587891 81.80227539 112.48144531 82.53125 C109.93770407 94.97999681 106.11914697 105.8753778 100.09375 117.01220703 C99.43375 117.01220703 98.77375 117.01220703 98.09375 117.01220703 C97.805 117.75470703 97.51625 118.49720703 97.21875 119.26220703 C96.27072356 121.579605 95.24529089 123.79137818 94.09375 126.01220703 C93.43375 126.01220703 92.77375 126.01220703 92.09375 126.01220703 C91.76375 127.00220703 91.43375 127.99220703 91.09375 129.01220703 C90.43375 129.01220703 89.77375 129.01220703 89.09375 129.01220703 C89.09375 129.67220703 89.09375 130.33220703 89.09375 131.01220703 C84.76052915 135.23973957 79.90344849 138.62513913 74.90625 142.01220703 C74.319646 142.41503906 73.73304199 142.81787109 73.12866211 143.23291016 C62.67498047 150.19179212 50.93749626 154.91558597 39.44921875 159.86767578 C25.0562424 165.6107174 25.0562424 165.6107174 13.09375 175.01220703 C12.248125 175.48658203 11.4025 175.96095703 10.53125 176.44970703 C7.39469937 178.46031641 6.0723376 180.88476212 4.09375 184.01220703 C3.45824219 184.60517578 2.82273437 185.19814453 2.16796875 185.80908203 C-0.33217513 188.46460209 -1.56131583 190.98849519 -3.03125 194.32470703 C-3.52882813 195.41396484 -4.02640625 196.50322266 -4.5390625 197.62548828 C-8.69657375 209.23715231 -8.2365803 222.33601185 -8.15625 234.51220703 C-8.15447754 235.29335876 -8.15270508 236.0745105 -8.15087891 236.8793335 C-8.12030159 248.41197915 -7.60975942 259.79934347 -6.34375 271.27001953 C-5.81829479 276.19000445 -5.81182558 281.06935092 -5.90625 286.01220703 C-13.58689888 272.24922894 -11.24165948 249.46549703 -11.34375 234.01220703 C-11.36166595 232.73417709 -11.36166595 232.73417709 -11.37994385 231.43032837 C-11.56099844 216.47424725 -11.21990925 198.48806358 -1.90625 186.01220703 C-1.00712891 184.77277344 -1.00712891 184.77277344 -0.08984375 183.50830078 C7.05011234 174.13274201 14.61732888 168.29254797 25.09375 163.01220703 C26.05539062 162.50689453 27.01703125 162.00158203 28.0078125 161.48095703 C34.25648621 158.24945295 40.56601779 155.57425173 47.18359375 153.18798828 C50.0375647 152.0349074 52.48304334 150.63066876 55.09375 149.01220703 C56.6096875 148.39345703 56.6096875 148.39345703 58.15625 147.76220703 C80.22536119 138.5306834 94.37849553 122.72608636 103.78125 101.26220703 C104.214375 100.18970703 104.6475 99.11720703 105.09375 98.01220703 C105.58101562 96.83142578 106.06828125 95.65064453 106.5703125 94.43408203 C108.33337378 89.71741917 109.08276432 84.98176088 109.78125 80.01220703 C109.97557617 78.70703125 109.97557617 78.70703125 110.17382812 77.37548828 C110.48832518 75.25554518 110.79216096 73.13402494 111.09375 71.01220703 C109.876875 71.08439453 108.66 71.15658203 107.40625 71.23095703 C90.6313421 72.14515203 73.88667758 72.1151631 57.09375 72.01220703 C57.07187622 70.82461792 57.07187622 70.82461792 57.04956055 69.61303711 C56.97496644 66.0164416 56.87834167 62.4207626 56.78125 58.82470703 C56.75869141 57.57882813 56.73613281 56.33294922 56.71289062 55.04931641 C56.67744141 53.84726563 56.64199219 52.64521484 56.60546875 51.40673828 C56.56619263 49.74928589 56.56619263 49.74928589 56.52612305 48.05834961 C56.04848582 44.69331306 54.90887878 42.8410066 53.09375 40.01220703 C53.09375 39.02220703 53.09375 38.03220703 53.09375 37.01220703 C52.43375 37.01220703 51.77375 37.01220703 51.09375 37.01220703 C49.918125 35.46533203 49.918125 35.46533203 48.71875 33.88720703 C44.56813045 28.83472447 38.98285572 26.57234316 33.09375 24.01220703 C32.31902344 23.66029297 31.54429687 23.30837891 30.74609375 22.94580078 C9.5347578 15.47966044 -16.01097752 16.83487766 -36.15625 26.19970703 C-54.48069445 35.95070791 -67.44845852 53.36975795 -73.90625 73.01220703 C-76.79048287 82.47298812 -78.75607402 91.58013817 -74.90625 101.01220703 C-72.92057266 102.50964591 -72.92057266 102.50964591 -70.90625 103.01220703 C-70.90625 103.67220703 -70.90625 104.33220703 -70.90625 105.01220703 C-69.91625 105.01220703 -68.92625 105.01220703 -67.90625 105.01220703 C-68.18114191 109.04395509 -68.44116576 110.58115334 -71.46875 113.38720703 C-72.273125 113.92345703 -73.0775 114.45970703 -73.90625 115.01220703 C-80.84229879 112.30545628 -85.17943597 107.7470591 -88.2734375 101.05517578 C-93.27016312 86.80589273 -89.84323665 70.62269025 -83.90625 57.01220703 C-83.25283692 55.67232884 -82.58675758 54.33852964 -81.90625 53.01220703 C-81.58785156 52.34060547 -81.26945313 51.66900391 -80.94140625 50.97705078 C-78.63986461 46.17986158 -76.19218797 41.2146311 -72.90625 37.01220703 C-72.24625 37.01220703 -71.58625 37.01220703 -70.90625 37.01220703 C-70.84050781 36.46951172 -70.77476562 35.92681641 -70.70703125 35.36767578 C-69.58018744 32.05310593 -67.44071828 29.83899987 -65.09375 27.32470703 C-64.60237549 26.79723877 -64.11100098 26.26977051 -63.60473633 25.72631836 C-48.66799393 10.10859103 -29.00825999 0.93359977 -7.375 0.04736328 C-4.91664578 0.01571312 -2.45854193 0.01032654 0 0 Z " fill="#030313" transform="translate(308.90625,26.98779296875)"/>
<path d="M0 0 C6.15534849 5.73304808 8.73755608 11.3534794 9.12890625 19.7734375 C9.31906709 29.8392844 7.95961439 39.30216209 1.13671875 47.140625 C-0.85714163 49.16827963 -2.87195286 51.11368634 -5 53 C-5.71800781 53.65613281 -6.43601563 54.31226563 -7.17578125 54.98828125 C-10.95433077 57.67977918 -14.95192348 59.23912078 -19.25 60.9375 C-25.15118834 63.28574002 -30.70213267 65.8166237 -36.17871094 69.04907227 C-38 70 -38 70 -40 70 C-41.56863129 73.10761413 -43.07483068 76.24144571 -44.56640625 79.38671875 C-45.05173828 80.40701172 -45.53707031 81.42730469 -46.03710938 82.47851562 C-47.05930043 84.62891242 -48.08012025 86.77996154 -49.09960938 88.93164062 C-49.58365234 89.94806641 -50.06769531 90.96449219 -50.56640625 92.01171875 C-51.00927979 92.94459717 -51.45215332 93.87747559 -51.90844727 94.83862305 C-53 97 -53 97 -54 98 C-47.22681404 98.09762499 -40.55745749 97.8721329 -33.8125 97.25 C-32.96236328 97.188125 -32.11222656 97.12625 -31.23632812 97.0625 C-24.06098455 96.3976033 -19.05909281 94.32536085 -14 89 C-13.34 89 -12.68 89 -12 89 C-11.34 87.68 -10.68 86.36 -10 85 C-9.34 85 -8.68 85 -8 85 C-8.50801091 89.05501569 -10.38293129 90.56595886 -13.5 93.0625 C-25.83409612 102.40861791 -41.14600128 101.25319316 -56 101 C-57.2077558 97.37673261 -56.54311128 96.35853631 -55 93 C-54.34 93 -53.68 93 -53 93 C-52.82597656 91.91332031 -52.82597656 91.91332031 -52.6484375 90.8046875 C-51.98216754 87.92286923 -51.00081481 85.734879 -49.625 83.125 C-48.07243862 80.16460753 -46.82858199 77.49431687 -45.75 74.3125 C-43.53054165 70.1113824 -40.68929188 68.10434478 -36.86328125 65.3828125 C-35.94095703 64.69832031 -35.94095703 64.69832031 -35 64 C-35 63.67 -35 63.34 -35 63 C-34.35933594 62.81824219 -33.71867187 62.63648437 -33.05859375 62.44921875 C-28.96000943 61.25812495 -24.95858643 60.0682471 -21.0625 58.3125 C-18 57 -18 57 -15 57 C-15 56.34 -15 55.68 -15 55 C-14.01 55 -13.02 55 -12 55 C-11.95745644 53.00045254 -11.95919217 50.99958364 -12 49 C-12.33 48.67 -12.66 48.34 -13 48 C-14.46810221 48.26280842 -15.92518002 48.58762231 -17.375 48.9375 C-24.64717492 50.4816634 -31.73437959 50.63052523 -39 49 C-39 48.34 -39 47.68 -39 47 C-39.763125 46.79375 -40.52625 46.5875 -41.3125 46.375 C-44.9863877 44.49533653 -45.5974515 42.85700838 -47 39 C-48.44446819 32.43423551 -48.3888777 26.81356982 -44.703125 20.9296875 C-40.13744949 14.55186244 -34.87969138 10.63455394 -28 7 C-27.34 7 -26.68 7 -26 7 C-26 5.02 -26 3.04 -26 1 C-29.58954381 -0.1965146 -30.88724099 0.56745517 -34.22265625 2.09765625 C-35.78904733 2.89290095 -37.30614212 3.78368527 -38.8125 4.6875 C-41 6 -41 6 -43 6 C-43.33 6.99 -43.66 7.98 -44 9 C-45.1446875 10.11375 -45.1446875 10.11375 -46.3125 11.25 C-49.33112252 14.33882304 -50.98940104 17.20220196 -53 21 C-53.66 20.34 -54.32 19.68 -55 19 C-49.52427256 7.39040481 -40.79450863 0.95183842 -28.9765625 -3.81640625 C-19.02620903 -6.81830614 -8.49929044 -6.14776886 0 0 Z M-39.76953125 17.8203125 C-43.8387162 22.71125499 -45.82692822 27.60652479 -46 34 C-45.35907687 39.09127667 -43.2233198 42.19005397 -39.3125 45.4375 C-35.2950715 48.12067305 -31.8502565 49.41103869 -27 49 C-19.08109498 47.20576769 -12.53975243 43.98892155 -7 38 C-6.46375 37.54625 -5.9275 37.0925 -5.375 36.625 C-1.22176919 31.71663631 -0.4978649 26.5232246 -0.71484375 20.296875 C-1.26806185 15.84081685 -3.22656895 13.71393635 -6.4375 10.75 C-17.39354716 3.26782145 -31.48519413 9.29823502 -39.76953125 17.8203125 Z " fill="#171826" transform="translate(202,35)"/>
<path d="M0 0 C0.66 0.99 1.32 1.98 2 3 C1.2421875 5.94140625 1.2421875 5.94140625 -0.125 9.5625 C-8.62952422 33.57167277 -10.74840997 59.99344859 -8.5 85.3125 C-7.9834701 91.18802766 -8 97.10181142 -8 103 C13.45 103 34.9 103 57 103 C57 94.42 57 85.84 57 77 C58.80341692 56.56127489 61.36277308 40.49646827 77 26.1875 C93.41333678 12.56725495 115.5511166 11.57481154 135.96069336 13.46508789 C147.49429293 14.72297239 158.58429868 18.03238103 168 25 C168 25.66 168 26.32 168 27 C168.90105469 27.40605469 168.90105469 27.40605469 169.8203125 27.8203125 C178.1624971 32.33525829 182.46527069 43.1021293 185.14697266 51.66040039 C188.12453683 62.89019932 188.48025785 73.49713705 188.25 85.0625 C188.1675 90.981875 188.085 96.90125 188 103 C209.12 103 230.24 103 252 103 C252.33 97.72 252.66 92.44 253 87 C253.33 87 253.66 87 254 87 C254.61614798 91.77514683 255.0273453 96.36761728 255.01367188 101.18408203 C255.011698 102.08563019 255.00972412 102.98717834 255.00769043 103.91604614 C255.00388367 104.9476033 255.00388367 104.9476033 255 106 C246.29883071 106.02314169 237.59767197 106.04092443 228.89647865 106.05181217 C224.85643046 106.05703699 220.81640328 106.06412739 216.77636719 106.07543945 C212.879559 106.08628254 208.98277105 106.09227987 205.08594894 106.09487724 C203.59715837 106.09672892 202.10836893 106.10034463 200.61958694 106.10573006 C198.53884715 106.11295934 196.45819168 106.11399014 194.37744141 106.11352539 C193.19163483 106.115746 192.00582825 106.11796661 190.78408813 106.12025452 C188 106 188 106 186 105 C185.97812622 103.60430786 185.97812622 103.60430786 185.95581055 102.18041992 C186.79771225 63.78621937 186.79771225 63.78621937 169.98828125 30.82421875 C161.8197774 23.32973683 152.11764301 18.8390674 141 18 C140.67 17.67 140.34 17.34 140 17 C119.16445701 13.77163565 96.58047341 15.61658309 79 28 C67.45265823 38.32619431 62.0302295 53.2181527 60.81140137 68.33990479 C60.50019615 74.16032724 60.43512857 79.98503979 60.375 85.8125 C60.33839923 88.40176334 60.29789434 90.99088037 60.25234985 93.58000183 C60.22527845 95.17473081 60.20386062 96.76956843 60.18881226 98.36445618 C60.11080488 103.77839025 60.11080488 103.77839025 59 106 C36.56 106 14.12 106 -9 106 C-20.76399462 76.59001346 -11.22586933 30.82121942 -1 2 C-0.67 1.34 -0.34 0.68 0 0 Z " fill="#070610" transform="translate(50,229)"/>
<path d="M0 0 C0.66 0 1.32 0 2 0 C2.69979216 23.83181095 -0.59921099 47.18218712 -13.6328125 67.54296875 C-19.05065256 73.1664364 -24.55202176 76.323062 -32.4453125 76.5859375 C-34.67263813 76.54663175 -36.89961468 76.47591864 -39.125 76.375 C-40.27226562 76.34792969 -41.41953125 76.32085937 -42.6015625 76.29296875 C-45.40306993 76.22293106 -48.20048792 76.12477825 -51 76 C-50.14344772 72.4283296 -49.50370204 69.79968232 -47 67 C-43.9011689 66.46110726 -40.87563477 66.71695066 -37.75 66.9375 C-30.81620341 67.40368261 -26.70346498 67.21654149 -21 63 C-19.00313442 60.79506699 -19.00313442 60.79506699 -17.625 58.375 C-16.90183594 57.21097656 -16.90183594 57.21097656 -16.1640625 56.0234375 C-15.40468638 54.70344815 -14.68103215 53.36206431 -14 52 C-13.34 52 -12.68 52 -12 52 C-11.896875 51.195625 -11.79375 50.39125 -11.6875 49.5625 C-10.72799719 44.59053092 -9.08919649 39.88923701 -7.30419922 35.15429688 C-4.93905497 28.59823056 -3.8796114 22.00457889 -2.875 15.125 C-2.54122171 12.89811279 -2.20538134 10.6715334 -1.8671875 8.4453125 C-1.72394043 7.47094238 -1.58069336 6.49657227 -1.43310547 5.49267578 C-1 3 -1 3 0 0 Z " fill="#181821" transform="translate(310,72)"/>
<path d="M0 0 C1.84005615 -0.0151062 1.84005615 -0.0151062 3.71728516 -0.03051758 C16.34609708 0.08910237 29.69893871 2.19683401 39.25 11.125 C47.60958791 24.15612234 48.95292409 39.34725989 48.375 54.4375 C47.715 54.1075 47.055 53.7775 46.375 53.4375 C46.02783203 51.49487305 46.02783203 51.49487305 45.8828125 48.94921875 C45.82005127 48.02069092 45.75729004 47.09216309 45.69262695 46.13549805 C45.59727661 44.64530151 45.59727661 44.64530151 45.5 43.125 C44.52721342 30.86238095 42.96519587 19.13398586 33.375 10.4375 C18.64890886 0.71581866 -3.40121584 1.30164879 -20.24609375 4.734375 C-23.99037897 5.84106029 -27.26339924 7.48165956 -30.625 9.4375 C-31.33140625 9.76492188 -32.0378125 10.09234375 -32.765625 10.4296875 C-35.11263314 11.70180536 -35.6515057 13.00376425 -36.625 15.4375 C-37.285 15.4375 -37.945 15.4375 -38.625 15.4375 C-38.728125 16.076875 -38.83125 16.71625 -38.9375 17.375 C-39.625 20.4375 -39.625 20.4375 -41 24.125 C-45.96148288 38.94289218 -46.10890835 54.54654501 -46.25 70 C-46.28657111 72.93603442 -46.32701485 75.87193852 -46.37265015 78.80784607 C-46.39978133 80.61510905 -46.42117376 82.4224694 -46.43618774 84.22987366 C-46.51413016 90.32663016 -46.51413016 90.32663016 -47.625 91.4375 C-50.48240215 91.47986484 -53.31245243 91.45577982 -56.16796875 91.38671875 C-57.06370102 91.3685762 -57.95943329 91.35043365 -58.88230896 91.33174133 C-61.85920924 91.2689437 -64.83582238 91.19755146 -67.8125 91.125 C-68.82632751 91.10171631 -69.84015503 91.07843262 -70.88470459 91.05444336 C-87.0132578 90.68104595 -103.13193906 90.12548078 -119.25 89.4375 C-120.25171234 89.39579681 -121.25342468 89.35409363 -122.28549194 89.31112671 C-125.1202645 89.19161503 -127.95467831 89.06586053 -130.7890625 88.9375 C-131.62868027 88.90207596 -132.46829803 88.86665192 -133.33335876 88.83015442 C-140.81346133 88.47477495 -140.81346133 88.47477495 -143.625 87.4375 C-144.625 84.4375 -144.625 84.4375 -143.6875 82.25 C-143.336875 81.651875 -142.98625 81.05375 -142.625 80.4375 C-142.295 82.0875 -141.965 83.7375 -141.625 85.4375 C-110.62967729 86.98052802 -79.65430969 87.9327582 -48.625 88.4375 C-48.64071045 87.47787354 -48.6564209 86.51824707 -48.67260742 85.52954102 C-49.54338914 27.00831978 -49.54338914 27.00831978 -38.25 12 C-27.10082776 1.11628424 -15.01814444 0.08053894 0 0 Z " fill="#010110" transform="translate(172.625,260.5625)"/>
<path d="M0 0 C0.66 0 1.32 0 2 0 C-0.07832649 12.7008841 -5.76062068 25.41262685 -13 36 C-13.68707031 37.00546875 -14.37414062 38.0109375 -15.08203125 39.046875 C-19.08908046 44.73616289 -19.08908046 44.73616289 -21 47 C-21.66 47 -22.32 47 -23 47 C-23.37125 47.86625 -23.37125 47.86625 -23.75 48.75 C-25.18299988 51.32939979 -26.78424676 53.06121592 -29 55 C-29.66 55 -30.32 55 -31 55 C-31.20367187 55.57234375 -31.40734375 56.1446875 -31.6171875 56.734375 C-33.50678822 59.83033097 -36.10749932 61.38237716 -39.125 63.25 C-39.74173584 63.63841064 -40.35847168 64.02682129 -40.99389648 64.42700195 C-48.07256959 68.79560014 -55.4874885 72.44660321 -63 76 C-64.14855469 76.5465625 -65.29710937 77.093125 -66.48046875 77.65625 C-86.43128189 87 -86.43128189 87 -91 87 C-91 87.66 -91 88.32 -91 89 C-96.75 92 -96.75 92 -99 92 C-99 92.66 -99 93.32 -99 94 C-99.639375 94.103125 -100.27875 94.20625 -100.9375 94.3125 C-101.618125 94.539375 -102.29875 94.76625 -103 95 C-103.33 95.99 -103.66 96.98 -104 98 C-106.4375 100.6875 -106.4375 100.6875 -109 103 C-109.66 103 -110.32 103 -111 103 C-111.13664062 103.57878906 -111.27328125 104.15757812 -111.4140625 104.75390625 C-111.96600168 106.8696731 -112.64021076 108.87930002 -113.375 110.9375 C-113.92328282 112.62286197 -114.46449936 114.31053319 -115 116 C-115.42732422 117.2684375 -115.42732422 117.2684375 -115.86328125 118.5625 C-121.21166222 137.21846395 -118.03526909 157.80205931 -115.42358398 176.70605469 C-114.44363821 183.84456502 -113.69115513 190.78504058 -114 198 C-114.33 198 -114.66 198 -115 198 C-127.38142033 123.37806276 -127.38142033 123.37806276 -112.25 101.75 C-102.14579257 89.37234589 -88.14226549 83.5277705 -73.84375 77.31640625 C-72.80089844 76.86330078 -71.75804687 76.41019531 -70.68359375 75.94335938 C-68.56262139 75.02340388 -66.44022236 74.1067306 -64.31640625 73.19335938 C-58.06616384 70.46998428 -52.08026016 67.50544029 -46.16210938 64.11694336 C-44 63 -44 63 -42 63 C-42 62.34 -42 61.68 -42 61 C-40.62578371 60.072404 -39.24670424 59.15142066 -37.84765625 58.26171875 C-33.06181196 54.99358407 -28.7476487 51.08279616 -25.125 46.5625 C-24.073125 45.2940625 -24.073125 45.2940625 -23 44 C-22.34 44 -21.68 44 -21 44 C-20.71125 43.2575 -20.4225 42.515 -20.125 41.75 C-17.58181818 35.53333333 -17.58181818 35.53333333 -15.5 33.625 C-13.40980621 31.3606234 -12.8445618 28.92348316 -12 26 C-11.34 26 -10.68 26 -10 26 C-9.67 24.02 -9.34 22.04 -9 20 C-8.34 20 -7.68 20 -7 20 C-6.67 17.69 -6.34 15.38 -6 13 C-5.34 13 -4.68 13 -4 13 C-3.71125 11.783125 -3.4225 10.56625 -3.125 9.3125 C-2.32164208 6.08185352 -1.33734591 3.05679065 0 0 Z " fill="#020314" transform="translate(429,113)"/>
<path d="M0 0 C6.15534849 5.73304808 8.73755608 11.3534794 9.12890625 19.7734375 C9.31906709 29.8392844 7.95961439 39.30216209 1.13671875 47.140625 C-0.85714163 49.16827963 -2.87195286 51.11368634 -5 53 C-5.71800781 53.65613281 -6.43601563 54.31226563 -7.17578125 54.98828125 C-10.95433077 57.67977918 -14.95192348 59.23912078 -19.25 60.9375 C-25.15118834 63.28574002 -30.70213267 65.8166237 -36.17871094 69.04907227 C-38 70 -38 70 -40 70 C-41.56863129 73.10761413 -43.07483068 76.24144571 -44.56640625 79.38671875 C-45.05173828 80.40701172 -45.53707031 81.42730469 -46.03710938 82.47851562 C-47.05930043 84.62891242 -48.08012025 86.77996154 -49.09960938 88.93164062 C-49.58365234 89.94806641 -50.06769531 90.96449219 -50.56640625 92.01171875 C-51.00927979 92.94459717 -51.45215332 93.87747559 -51.90844727 94.83862305 C-53 97 -53 97 -54 98 C-47.22681404 98.09762499 -40.55745749 97.8721329 -33.8125 97.25 C-32.96236328 97.188125 -32.11222656 97.12625 -31.23632812 97.0625 C-24.06098455 96.3976033 -19.05909281 94.32536085 -14 89 C-13.34 89 -12.68 89 -12 89 C-11.34 87.68 -10.68 86.36 -10 85 C-9.34 85 -8.68 85 -8 85 C-8.50801091 89.05501569 -10.38293129 90.56595886 -13.5 93.0625 C-25.83409612 102.40861791 -41.14600128 101.25319316 -56 101 C-57.2077558 97.37673261 -56.54311128 96.35853631 -55 93 C-54.34 93 -53.68 93 -53 93 C-52.82597656 91.91332031 -52.82597656 91.91332031 -52.6484375 90.8046875 C-51.98216754 87.92286923 -51.00081481 85.734879 -49.625 83.125 C-48.07243862 80.16460753 -46.82858199 77.49431687 -45.75 74.3125 C-43.53054165 70.1113824 -40.68929188 68.10434478 -36.86328125 65.3828125 C-35.94095703 64.69832031 -35.94095703 64.69832031 -35 64 C-35 63.67 -35 63.34 -35 63 C-34.35933594 62.81824219 -33.71867187 62.63648437 -33.05859375 62.44921875 C-28.96000943 61.25812495 -24.95858643 60.0682471 -21.0625 58.3125 C-18 57 -18 57 -15 57 C-15 56.34 -15 55.68 -15 55 C-13.865625 54.54625 -12.73125 54.0925 -11.5625 53.625 C-7.95278308 52.42904194 -7.95278308 52.42904194 -7 50 C-6.01 49.67 -5.02 49.34 -4 49 C3.99514768 39.84192175 6.58249189 31.31836798 6.28515625 19.30859375 C5.67495777 12.22861959 3.20367584 6.97742906 -2 2 C-8.56261815 -2.33914383 -15.31039026 -2.96000122 -23 -2 C-29.74185104 -0.39829963 -35.43423106 1.8989071 -41 6 C-41.66 6 -42.32 6 -43 6 C-43.33 6.99 -43.66 7.98 -44 9 C-45.1446875 10.11375 -45.1446875 10.11375 -46.3125 11.25 C-49.33112252 14.33882304 -50.98940104 17.20220196 -53 21 C-53.66 20.34 -54.32 19.68 -55 19 C-49.52427256 7.39040481 -40.79450863 0.95183842 -28.9765625 -3.81640625 C-19.02620903 -6.81830614 -8.49929044 -6.14776886 0 0 Z " fill="#020312" transform="translate(202,35)"/>
<path d="M0 0 C0.99 0.495 0.99 0.495 2 1 C1.09636719 1.68707031 0.19273438 2.37414062 -0.73828125 3.08203125 C-1.92977653 3.99207095 -3.12117786 4.90223366 -4.3125 5.8125 C-4.90740234 6.26431641 -5.50230469 6.71613281 -6.11523438 7.18164062 C-8.45333988 8.97114037 -10.72645243 10.72168472 -12.79296875 12.82421875 C-14 14 -14 14 -16 14 C-16.33 14.99 -16.66 15.98 -17 17 C-17.66 17 -18.32 17 -19 17 C-19.24234375 17.56460938 -19.4846875 18.12921875 -19.734375 18.7109375 C-21.24375309 21.44086208 -23.09307633 23.37270215 -25.25 25.625 C-29.15373538 29.849332 -32.08067865 34.11236786 -34.80859375 39.1640625 C-35.20175781 39.76992187 -35.59492187 40.37578125 -36 41 C-36.66 41 -37.32 41 -38 41 C-38.10570313 41.72832031 -38.21140625 42.45664063 -38.3203125 43.20703125 C-39.05611936 46.23060541 -40.12785108 48.1276226 -41.875 50.6875 C-42.38804688 51.45449219 -42.90109375 52.22148437 -43.4296875 53.01171875 C-45 55 -45 55 -48 57 C-48.99 56.34 -49.98 55.68 -51 55 C-58.89974385 69.54112142 -63.80556318 85.21189608 -67.125 101.375 C-67.41375 102.57125 -67.7025 103.7675 -68 105 C-68.99 105.495 -68.99 105.495 -70 106 C-69.92044272 86.07090194 -60.08795137 65.30577974 -51 48 C-50.34 48 -49.68 48 -49 48 C-48.896875 47.401875 -48.79375 46.80375 -48.6875 46.1875 C-47.87482635 43.6017202 -47.01062204 42.79519825 -45 41 C-40.84900193 37.08620182 -37.3789225 32.80025487 -33.8671875 28.3046875 C-32.31931472 26.39413323 -30.85901145 24.6069421 -29 23 C-28.34 23 -27.68 23 -27 23 C-26.74734375 22.41476563 -26.4946875 21.82953125 -26.234375 21.2265625 C-21.54666149 12.77087673 -8.62801347 4.31400673 0 0 Z " fill="#191924" transform="translate(99,164)"/>
<path d="M0 0 C3.74405001 2.23537163 6.70921253 4.92588227 8.015625 9.20703125 C9.51910742 16.71052219 8.31857307 22.74821592 4.4375 29.3125 C1.14713299 34.08168365 -2.05045218 37.18284516 -7.5625 39.3125 C-8.2225 39.3125 -8.8825 39.3125 -9.5625 39.3125 C-9.5625 39.9725 -9.5625 40.6325 -9.5625 41.3125 C-16.79442788 42.87616008 -24.34871941 42.95614621 -31.5625 41.3125 C-31.5625 40.6525 -31.5625 39.9925 -31.5625 39.3125 C-32.325625 39.10625 -33.08875 38.9 -33.875 38.6875 C-37.5488877 36.80783653 -38.1599515 35.16950838 -39.5625 31.3125 C-41.00696819 24.74673551 -40.9513777 19.12606982 -37.265625 13.2421875 C-28.80029124 1.41690168 -14.40747541 -6.54641341 0 0 Z M-32.33203125 10.1328125 C-36.4012162 15.02375499 -38.38942822 19.91902479 -38.5625 26.3125 C-37.92157687 31.40377667 -35.7858198 34.50255397 -31.875 37.75 C-27.8575715 40.43317305 -24.4127565 41.72353869 -19.5625 41.3125 C-11.64359498 39.51826769 -5.10225243 36.30142155 0.4375 30.3125 C0.97375 29.85875 1.51 29.405 2.0625 28.9375 C6.21573081 24.02913631 6.9396351 18.8357246 6.72265625 12.609375 C6.16943815 8.15331685 4.21093105 6.02643635 1 3.0625 C-9.95604716 -4.41967855 -24.04769413 1.61073502 -32.33203125 10.1328125 Z " fill="#020212" transform="translate(194.5625,42.6875)"/>
<path d="M0 0 C1.46801758 1.0715332 1.46801758 1.0715332 3 3 C3.43237305 6.09448242 3.43237305 6.09448242 3.51171875 9.85546875 C3.52966995 10.51710526 3.54762115 11.17874176 3.56611633 11.86042786 C3.62020898 13.96938747 3.65410931 16.07812099 3.6875 18.1875 C3.72067427 19.61917208 3.75516405 21.05081433 3.79101562 22.48242188 C3.87593257 25.9880639 3.94274921 29.49378473 4 33 C-3.92214307 33.37692544 -11.84441774 33.75092133 -19.76685333 34.12164211 C-23.44961298 34.29405473 -27.13232831 34.46730496 -30.81494141 34.64282227 C-46.18770313 35.37477942 -61.56152711 36.06801989 -76.94316101 36.58702278 C-78.36990527 36.635541 -79.79659441 36.68570957 -81.22322083 36.73757744 C-83.18704451 36.80821789 -85.151138 36.87123612 -87.11523438 36.93383789 C-88.78894104 36.98961754 -88.78894104 36.98961754 -90.49645996 37.04652405 C-93 37 -93 37 -94 36 C-94.08843793 33.55169574 -94.11528752 31.13179401 -94.09765625 28.68359375 C-94.0962413 27.95253922 -94.09482635 27.22148468 -94.09336853 26.46827698 C-94.08775408 24.12464368 -94.07519922 21.78110461 -94.0625 19.4375 C-94.05748686 17.85221492 -94.05292363 16.26692834 -94.04882812 14.68164062 C-94.03777997 10.7877239 -94.02050572 6.89387795 -94 3 C-93.67 3 -93.34 3 -93 3 C-93 13.23 -93 23.46 -93 34 C-88.91625 33.7834375 -88.91625 33.7834375 -84.75 33.5625 C-72.02397479 32.9452649 -59.28950665 32.70905396 -46.55249023 32.43878174 C-30.36205182 32.09425327 -14.18221687 31.62564265 2 31 C1.69199513 27.43709646 1.37780401 23.87476442 1.0625 20.3125 C0.97548828 19.30509766 0.88847656 18.29769531 0.79882812 17.25976562 C0.71181641 16.28330078 0.62480469 15.30683594 0.53515625 14.30078125 C0.456604 13.40528564 0.37805176 12.50979004 0.29711914 11.5871582 C0.03648884 8.9704134 0.03648884 8.9704134 -0.56079102 6.31323242 C-1.03118385 3.83576044 -0.78933893 2.3680168 0 0 Z " fill="#020210" transform="translate(315,315)"/>
<path d="M0 0 C1.50855895 4.34935178 0.14602887 6.63905309 -1.76171875 10.625 C-5.76751709 18.3080454 -10.05040341 24.9232838 -18 29 C-24.37958998 30.96917577 -31.55002113 30.35789029 -38 29 C-38.99 31.475 -38.99 31.475 -40 34 C-36.77016338 33.88957056 -33.54143474 33.75907341 -30.3125 33.625 C-28.94448242 33.57859375 -28.94448242 33.57859375 -27.54882812 33.53125 C-20.72336533 33.23341162 -16.48579384 32.1616367 -11 28 C-10.34 28 -9.68 28 -9 28 C-8.74476563 27.48953125 -8.48953125 26.9790625 -8.2265625 26.453125 C-5.484375 20.96875 -2.7421875 15.484375 0 10 C0.66 10 1.32 10 2 10 C2.33 8.35 2.66 6.7 3 5 C3.95382484 7.56340427 4.06322208 8.79386969 3.25 11.4453125 C-1.7453725 22.1541423 -6.59688794 31.3198674 -18 36 C-22.41577692 36.66754488 -26.67268654 36.57690724 -31.125 36.375 C-32.27226562 36.34792969 -33.41953125 36.32085937 -34.6015625 36.29296875 C-37.40306993 36.22293106 -40.20048792 36.12477825 -43 36 C-42.14344772 32.4283296 -41.50370204 29.79968232 -39 27 C-35.9011689 26.46110726 -32.87563477 26.71695066 -29.75 26.9375 C-22.81620341 27.40368261 -18.70346498 27.21654149 -13 23 C-11.00313442 20.79506699 -11.00313442 20.79506699 -9.625 18.375 C-8.90183594 17.21097656 -8.90183594 17.21097656 -8.1640625 16.0234375 C-7.40468638 14.70344815 -6.68103215 13.36206431 -6 12 C-5.34 12 -4.68 12 -4 12 C-3.896875 11.13375 -3.79375 10.2675 -3.6875 9.375 C-2.96601586 5.83316877 -1.72876739 3.15687958 0 0 Z " fill="#010110" transform="translate(302,112)"/>
<path d="M0 0 C0.66 0.99 1.32 1.98 2 3 C1.2421875 5.94140625 1.2421875 5.94140625 -0.125 9.5625 C-9.42656937 35.82181566 -10.38146016 64.03848598 -8.12109375 91.609375 C-8.01250577 94.64983836 -8.24518343 97.07019347 -9 100 C-9.33 100 -9.66 100 -10 100 C-12.45207632 85.7035193 -12.30318243 71.46442787 -12 57 C-11.98598145 56.26475098 -11.97196289 55.52950195 -11.95751953 54.77197266 C-11.50209586 37.01983964 -8.00702741 16.01405483 0 0 Z " fill="#040416" transform="translate(50,229)"/>
<path d="M0 0 C0.66 0 1.32 0 2 0 C2.48265397 16.43704905 2.31912324 35.34249714 -6 50 C-7.35949488 45.92151537 -6.14486103 42.82319055 -5.0625 38.8125 C-4.86720703 38.06291016 -4.67191406 37.31332031 -4.47070312 36.54101562 C-3.98785625 34.69206541 -3.49489367 32.84576224 -3 31 C-3.8125 34.4375 -3.8125 34.4375 -5 38 C-6.485 38.495 -6.485 38.495 -8 39 C-7.80809082 38.35675781 -7.61618164 37.71351562 -7.41845703 37.05078125 C-5.32622453 29.75852526 -3.98683041 22.4981843 -2.875 15 C-2.54127947 12.79133055 -2.20544251 10.58297954 -1.8671875 8.375 C-1.72394043 7.41335937 -1.58069336 6.45171875 -1.43310547 5.4609375 C-1 3 -1 3 0 0 Z " fill="#070716" transform="translate(310,72)"/>
<path d="M0 0 C0.33 0 0.66 0 1 0 C1 1.98 1 3.96 1 6 C1.72888428 5.91766113 2.45776855 5.83532227 3.20874023 5.75048828 C12.14052667 4.88854641 20.77663545 5.14808352 29.71459961 5.72412109 C32.08983745 5.87675674 34.46559979 6.01553167 36.84179688 6.15234375 C38.36463129 6.24399827 39.88741992 6.33641753 41.41015625 6.4296875 C42.11431168 6.47141083 42.8184671 6.51313416 43.54396057 6.55612183 C46.79564638 6.76942458 49.87422354 7.04861149 53 8 C52.75122898 11.43947146 52.4722077 14.87583148 52.1875 18.3125 C52.11724609 19.28896484 52.04699219 20.26542969 51.97460938 21.27148438 C51.89404297 22.20927734 51.81347656 23.14707031 51.73046875 24.11328125 C51.62835083 25.40939331 51.62835083 25.40939331 51.52416992 26.73168945 C50.91875658 29.3515755 50.04955767 30.31652078 48 32 C47.88973536 26.75553818 48.29671017 21.75639047 49 16.5625 C49.09539062 15.83095703 49.19078125 15.09941406 49.2890625 14.34570312 C49.52205938 12.563277 49.76046266 10.78155896 50 9 C48.6078125 9.03480469 48.6078125 9.03480469 47.1875 9.0703125 C31.42153136 9.32100119 15.71782043 8.08817906 0 7 C0 4.69 0 2.38 0 0 Z " fill="#040311" transform="translate(383,76)"/>
<path d="M0 0 C0.66 0.33 1.32 0.66 2 1 C1.32904297 2.07314453 1.32904297 2.07314453 0.64453125 3.16796875 C-3.21869966 9.53529816 -6.281017 15.78972562 -8.81640625 22.7890625 C-9.95509949 25.8781907 -11.23433927 28.86342582 -12.5625 31.875 C-16.14851281 40.38896124 -18.27265282 49.34301257 -20.125 58.375 C-20.41375 59.57125 -20.7025 60.7675 -21 62 C-21.99 62.495 -21.99 62.495 -23 63 C-22.92044272 43.07090194 -13.08795137 22.30577974 -4 5 C-3.34 5 -2.68 5 -2 5 C-1.855625 4.360625 -1.71125 3.72125 -1.5625 3.0625 C-1 1 -1 1 0 0 Z " fill="#050515" transform="translate(52,207)"/>
<path d="M0 0 C0.33 0 0.66 0 1 0 C1.02753831 1.5207267 1.04663375 3.04160674 1.0625 4.5625 C1.07410156 5.40941406 1.08570313 6.25632812 1.09765625 7.12890625 C1 10 1 10 0.50390625 13.078125 C-0.18737007 18.4582911 -0.14718462 23.76890715 -0.125 29.1875 C-0.12306641 30.32558105 -0.12113281 31.46366211 -0.11914062 32.63623047 C-0.06809706 42.77830348 0.36033889 52.87964737 1 63 C0.67 61.68 0.34 60.36 0 59 C-0.66 59 -1.32 59 -2 59 C-2 41.18 -2 23.36 -2 5 C-1.34 5 -0.68 5 0 5 C0 3.35 0 1.7 0 0 Z " fill="#020112" transform="translate(28,277)"/>
<path d="M0 0 C0.33 0 0.66 0 1 0 C1.495 8.415 1.495 8.415 2 17 C-18.79 17 -39.58 17 -61 17 C-61 16.67 -61 16.34 -61 16 C-41.2 16 -21.4 16 -1 16 C-0.67 10.72 -0.34 5.44 0 0 Z " fill="#000002" transform="translate(303,316)"/>
<path d="M0 0 C2 3 2 3 1.8125 6.5625 C1 10 1 10 -2 12 C-5.625 11.75 -5.625 11.75 -9 11 C-10.52491998 7.95016004 -10.23562548 5.3576631 -10 2 C-7.71139092 -2.30797003 -4.19123206 -1.06685907 0 0 Z M-8 3 C-8.41666667 5.5 -8.41666667 5.5 -8 8 C-7.34 8.66 -6.68 9.32 -6 10 C-3.06546739 9.63318342 -2.13562754 9.13562754 0 7 C-0.32041397 4.39719432 -0.32041397 4.39719432 -1 2 C-4.48581856 0.7979936 -4.67992344 0.78661563 -8 3 Z " fill="#030315" transform="translate(133,141)"/>
<path d="M0 0 C0.66 0 1.32 0 2 0 C2.09377123 7.41834582 2.17402193 14.66236293 1 22 C0.67 22 0.34 22 0 22 C-0.33 19.36 -0.66 16.72 -1 14 C-1.33 14 -1.66 14 -2 14 C-1.85866501 12.22880197 -1.71176792 10.45804713 -1.5625 8.6875 C-1.48128906 7.70136719 -1.40007812 6.71523437 -1.31640625 5.69921875 C-1 3 -1 3 0 0 Z " fill="#1F1D25" transform="translate(310,72)"/>
<path d="M0 0 C1.3357457 3.77371512 0.72408671 6.85831347 0.0625 10.75 C-0.13214844 11.92046875 -0.32679688 13.0909375 -0.52734375 14.296875 C-0.68332031 15.18890625 -0.83929688 16.0809375 -1 17 C-1.33 17 -1.66 17 -2 17 C-2.33 18.65 -2.66 20.3 -3 22 C-3.33 22 -3.66 22 -4 22 C-4.37641301 14.3462687 -3.4744052 6.9488104 0 0 Z " fill="#090818" transform="translate(147,57)"/>
<path d="M0 0 C0.66 0.66 1.32 1.32 2 2 C1.66887313 6.10597317 1.15559618 10.03795597 0 14 C-0.66 14 -1.32 14 -2 14 C-3.55577239 8.34264585 -2.24281523 5.20333134 0 0 Z " fill="#0E0D18" transform="translate(141,101)"/>
<path d="M0 0 C0.99 0.33 1.98 0.66 3 1 C2.34 1 1.68 1 1 1 C0.7834375 1.928125 0.7834375 1.928125 0.5625 2.875 C0 5 0 5 -1 7 C4.28 7 9.56 7 15 7 C15 7.33 15 7.66 15 8 C5.595 8.495 5.595 8.495 -4 9 C-3.08541782 5.34167128 -1.99523834 3.12298174 0 0 Z " fill="#070915" transform="translate(263,139)"/>
<path d="M0 0 C0.33 0 0.66 0 1 0 C1 5.61 1 11.22 1 17 C0.01 16.34 -0.98 15.68 -2 15 C-1.03644647 4.44191344 -1.03644647 4.44191344 0 0 Z " fill="#0A0809" transform="translate(309,85)"/>
<path d="M0 0 C0 2.97 0 5.94 0 9 C-0.99 9.495 -0.99 9.495 -2 10 C-2.66 10.99 -3.32 11.98 -4 13 C-4.15808824 4.9375 -4.15808824 4.9375 -3 1 C-1 0 -1 0 0 0 Z " fill="#151415" transform="translate(31,269)"/>
<path d="M0 0 C0.99 0.33 1.98 0.66 3 1 C3.0825 2.27875 3.165 3.5575 3.25 4.875 C3.45869931 7.05333418 3.45869931 7.05333418 4 9 C5.92064793 10.5899433 5.92064793 10.5899433 8 11 C6.02 11.33 4.04 11.66 2 12 C0.00214565 7.8794254 -0.17835515 4.54805635 0 0 Z " fill="#121018" transform="translate(39,323)"/>
<path d="M0 0 C1.3805087 3.76668598 0.59568159 6.44789173 -0.4375 10.25 C-0.72496094 11.32765625 -1.01242187 12.4053125 -1.30859375 13.515625 C-1.53675781 14.33546875 -1.76492188 15.1553125 -2 16 C-2.66 15.67 -3.32 15.34 -4 15 C-4.625 12.9375 -4.625 12.9375 -5 11 C-4.01 10.67 -3.02 10.34 -2 10 C-1.855625 8.906875 -1.71125 7.81375 -1.5625 6.6875 C-1 3 -1 3 0 0 Z " fill="#17160B" transform="translate(307,100)"/>
<path d="M0 0 C0.99 0.33 1.98 0.66 3 1 C3 4.63 3 8.26 3 12 C2.01 12 1.02 12 0 12 C0 8.04 0 4.08 0 0 Z " fill="#10131B" transform="translate(302,313)"/>
<path d="M0 0 C0 0.99 0 1.98 0 3 C-2.27837542 5.27837542 -3.50812237 5.96646289 -6.75 6.1875 C-7.86375 6.0946875 -7.86375 6.0946875 -9 6 C-6.11912454 3.59927045 -3.43595166 1.52708963 0 0 Z " fill="#16191B" transform="translate(170,35)"/>
<path d="M0 0 C1.2065625 0.0309375 1.2065625 0.0309375 2.4375 0.0625 C2.4375 1.3825 2.4375 2.7025 2.4375 4.0625 C0.7875 4.3925 -0.8625 4.7225 -2.5625 5.0625 C-3.125 3.125 -3.125 3.125 -3.5625 1.0625 C-2.5625 0.0625 -2.5625 0.0625 0 0 Z " fill="#1A1A29" transform="translate(383.5625,169.9375)"/>
<path d="M0 0 C0.33 0 0.66 0 1 0 C1 1.65 1 3.3 1 5 C1.66 5 2.32 5 3 5 C2.67 7.97 2.34 10.94 2 14 C1.67 14 1.34 14 1 14 C0.04738513 9.23692563 -0.08333357 4.8333472 0 0 Z " fill="#000009" transform="translate(39,315)"/>
<path d="M0 0 C0.66 0.33 1.32 0.66 2 1 C-2.455 4.465 -2.455 4.465 -7 8 C-7.33 7.01 -7.66 6.02 -8 5 C-6.71475739 4.13619741 -5.42157581 3.28419631 -4.125 2.4375 C-3.04605469 1.72400391 -3.04605469 1.72400391 -1.9453125 0.99609375 C-1.30335937 0.66738281 -0.66140625 0.33867187 0 0 Z " fill="#1A1713" transform="translate(99,164)"/>
<path d="M0 0 C0.66 0.33 1.32 0.66 2 1 C1.34 4.3 0.68 7.6 0 11 C-0.33 11 -0.66 11 -1 11 C-1.125 3.375 -1.125 3.375 0 0 Z " fill="#020216" transform="translate(308,101)"/>
<path d="M0 0 C3 2 3 2 3.6875 4.625 C3.790625 5.40875 3.89375 6.1925 4 7 C3.01 7.33 2.02 7.66 1 8 C-0.42944945 5.64561267 -1.08661261 4.51967567 -0.625 1.75 C-0.41875 1.1725 -0.2125 0.595 0 0 Z " fill="#13121B" transform="translate(147,55)"/>
<path d="M0 0 C0.33 0 0.66 0 1 0 C1.1875 3.375 1.1875 3.375 1 7 C0.01 7.66 -0.98 8.32 -2 9 C-2 7.02 -2 5.04 -2 3 C-1.34 3 -0.68 3 0 3 C0 2.01 0 1.02 0 0 Z " fill="#2B2616" transform="translate(310,77)"/>
<path d="M0 0 C2.79872437 2.52788007 4.45773019 4.20411134 5 8 C2 7 2 7 0.8125 5.125 C0 3 0 3 0 0 Z " fill="#070418" transform="translate(205,40)"/>
<path d="M0 0 C0.33 0 0.66 0 1 0 C1.33 3.96 1.66 7.92 2 12 C-1.56521739 4.86956522 -1.56521739 4.86956522 0 0 Z " fill="#12111E" transform="translate(315,307)"/>
<path d="M0 0 C0 3 0 3 -1.375 4.6875 C-3 6 -3 6 -5 6 C-4.75 4.125 -4.75 4.125 -4 2 C-1.9375 0.75 -1.9375 0.75 0 0 Z " fill="#14141E" transform="translate(238,134)"/>
</svg>
