<?xml version="1.0" encoding="UTF-8"?>
<svg version="1.1" xmlns="http://www.w3.org/2000/svg" width="1280" height="640">
<path d="M0 0 C24.26938199 -0.53601089 24.26938199 -0.53601089 34 8 C34.495 9.485 34.495 9.485 35 11 C35.99 11.33 36.98 11.66 38 12 C44.843075 23.33384297 45.83880275 36.87370852 47.5 49.75 C50.52550406 72.98626217 53.76514426 94.1477164 67 114 C67.20753906 113.20078125 67.41507812 112.4015625 67.62890625 111.578125 C70.47087357 101.44692769 74.53289671 90.77368263 83 84 C83.66 84 84.32 84 85 84 C85.4021875 83.1028125 85.4021875 83.1028125 85.8125 82.1875 C86.99917406 80.00152146 88.09599113 78.58667406 90 77 C90.66 77 91.32 77 92 77 C92 76.34 92 75.68 92 75 C92.66 75 93.32 75 94 75 C94 74.34 94 73.68 94 73 C94.99 73 95.98 73 97 73 C97 72.34 97 71.68 97 71 C97.66 71 98.32 71 99 71 C99 70.34 99 69.68 99 69 C100.32 68.34 101.64 67.68 103 67 C105.6105828 73.03429796 108.07281695 79.04222393 110.0625 85.3125 C111.56204733 89.98251884 113.45775629 93.82345675 116 98 C116 98.66 116 99.32 116 100 C116.66 100 117.32 100 118 100 C118 100.66 118 101.32 118 102 C118.66 102 119.32 102 120 102 C120 102.66 120 103.32 120 104 C120.66 104 121.32 104 122 104 C122 104.66 122 105.32 122 106 C122.845625 106.2475 123.69125 106.495 124.5625 106.75 C128 108 128 108 131.0546875 109.84375 C135.64660296 112.51053044 140.54154534 114.07847129 145.5625 115.75 C147.61879917 116.45352286 149.67478101 117.15797379 151.73046875 117.86328125 C154.80126816 118.91030656 157.87232401 119.95656602 160.94384766 121.00146484 C173.61275626 125.34280167 185.39032719 130.30363582 197 137 C197.97839844 137.54011719 198.95679688 138.08023438 199.96484375 138.63671875 C200.63644531 139.08660156 201.30804687 139.53648437 202 140 C202 140.66 202 141.32 202 142 C202.67546875 142.19207031 203.3509375 142.38414062 204.046875 142.58203125 C208.85252121 144.88950423 212.38100948 148.81265669 216.12109375 152.56445312 C219.67625608 155.91931135 219.67625608 155.91931135 224.24853516 157.22314453 C226.57036715 156.9866844 228.73620203 156.56209775 231 156 C232.13179687 155.7834375 233.26359375 155.566875 234.4296875 155.34375 C243.34294928 153.16091038 252.03883974 150.44757343 260.75 147.5625 C261.87390137 147.19125 262.99780273 146.82 264.15576172 146.4375 C275.5718583 142.59250106 286.32714013 137.97586856 296.96875 132.35546875 C300 131 300 131 304 131 C304 130.34 304 129.68 304 129 C305.68802734 128.09121094 305.68802734 128.09121094 307.41015625 127.1640625 C320.3966079 120.10395082 332.943622 112.61993915 344.36328125 103.1796875 C346 102 346 102 348 102 C347.1875 104.4375 347.1875 104.4375 346 107 C344.515 107.495 344.515 107.495 343 108 C343 108.66 343 109.32 343 110 C340.84770057 111.82691713 338.68677212 113.54994225 336.4375 115.25 C332.72646646 118.08530816 329.05212383 120.9211194 325.53515625 123.99609375 C321.85660641 127.18124874 317.98103775 130.01883797 314 132.8125 C313.26378418 133.33021973 312.52756836 133.84793945 311.76904297 134.38134766 C304.7166555 139.28610695 297.45191448 143.733178 290 148 C289.12859375 148.50660156 288.2571875 149.01320313 287.359375 149.53515625 C274.59469281 156.7403778 261.17632378 163.02639954 247.4375 168.125 C246.64666016 168.42011475 245.85582031 168.71522949 245.04101562 169.01928711 C241.47570686 170.29857167 238.82753485 171 235 171 C235 171.66 235 172.32 235 173 C235.59039063 173.26554688 236.18078125 173.53109375 236.7890625 173.8046875 C239.05716052 175.03090304 240.53352098 176.33351588 242.375 178.125 C259.56383108 193.42881057 279.87626609 195.84903218 302 195 C311.50600767 194.15525916 320.78596787 191.39689349 330 189 C331.33283564 188.66468217 332.66586972 188.33012918 334 188 C333.8984375 190.21484375 333.8984375 190.21484375 333 193 C330.8755835 194.77433659 328.96930486 196.15009463 326.625 197.5625 C325.67923096 198.14946655 325.67923096 198.14946655 324.71435547 198.74829102 C319.38516809 201.96209118 313.98951881 204.28325894 308 206 C307.29359375 206.21140625 306.5871875 206.4228125 305.859375 206.640625 C286.15204697 212.07177839 262.17372526 210.11652039 244.29345703 200.03808594 C234.37421413 194.24080946 226.19647961 187.23894853 218.109375 179.0859375 C217.06305908 178.03224976 217.06305908 178.03224976 215.99560547 176.95727539 C214.61839321 175.56436615 213.24724239 174.16542796 211.88330078 172.75952148 C207.99533395 168.79915937 204.04562829 165.38736705 199.47314453 162.2331543 C198.98700684 161.82621338 198.50086914 161.41927246 198 161 C198 160.34 198 159.68 198 159 C196.94425781 158.62101562 196.94425781 158.62101562 195.8671875 158.234375 C192.6898475 156.86647386 190.01627224 155.14808712 187.125 153.25 C180.10580331 148.79793932 172.78525062 145.83468163 165 143 C163.78699219 142.54625 162.57398438 142.0925 161.32421875 141.625 C156.07076165 139.69586165 150.86946687 137.91459595 145.4375 136.5625 C138.91619648 134.87678639 133.04825976 131.90888709 127 129 C124.67750996 127.97032461 122.34352091 126.98100875 120 126 C120 125.34 120 124.68 120 124 C119.2575 123.731875 118.515 123.46375 117.75 123.1875 C115.10938051 122.04723249 113.14447156 120.90619694 111 119 C111 118.34 111 117.68 111 117 C110.34 117 109.68 117 109 117 C102.44719813 109.10192092 98.97872008 100.68084028 96 91 C89.74041088 97.48242239 85.95880854 104.81242428 85.75 114 C85.93416649 124.24635385 89.51910605 132.65410859 94.57421875 141.3828125 C96 144 96 144 96 146 C96.99 146.33 97.98 146.66 99 147 C100.82421875 148.77734375 100.82421875 148.77734375 102.6875 150.9375 C103.62142578 152.00291016 103.62142578 152.00291016 104.57421875 153.08984375 C106 155 106 155 106 157 C92.38661738 155.8162276 78.30082145 147.66967185 68 139 C68 138.34 68 137.68 68 137 C67.1646875 136.6596875 67.1646875 136.6596875 66.3125 136.3125 C63.33840412 134.62449964 61.27991135 132.53323483 59 130 C59 129.34 59 128.68 59 128 C58.34 128 57.68 128 57 128 C54 124.53846154 54 124.53846154 54 122 C53.34 122 52.68 122 52 122 C52 121.01 52 120.02 52 119 C51.34 119 50.68 119 50 119 C39.29949316 99.75467096 34.31361005 80.63202608 31 59 C30.65390946 56.77469857 30.30753747 54.54944089 29.9609375 52.32421875 C27.15613755 34.24632801 27.15613755 34.24632801 26 26 C25.34 26 24.68 26 24 26 C23.566875 25.236875 23.13375 24.47375 22.6875 23.6875 C20.02676942 19.45004019 16.72951169 18.08447402 12 17 C11.36929485 19.72795285 10.74542161 22.45720489 10.125 25.1875 C9.86396484 26.31188477 9.86396484 26.31188477 9.59765625 27.45898438 C7.06017738 38.6896779 5.66701457 49.80613611 5.3125 61.3125 C5.27487549 62.49674561 5.23725098 63.68099121 5.19848633 64.90112305 C4.39574141 94.44901108 9.98371575 122.38493794 25.046875 148.01953125 C26 150 26 150 26 153 C26.66 153 27.32 153 28 153 C28.27972656 153.54527344 28.55945313 154.09054687 28.84765625 154.65234375 C31.65726284 159.93729506 34.82957679 164.54023463 38.64453125 169.15234375 C40 171 40 171 40 173 C40.66 173 41.32 173 42 173 C43.39131742 174.59711646 44.71517335 176.25352684 46 177.9375 C48.54336771 181.51216924 48.54336771 181.51216924 52 184 C52 184.66 52 185.32 52 186 C52.66 186 53.32 186 54 186 C54 186.66 54 187.32 54 188 C54.66 188 55.32 188 56 188 C57.625 189.375 57.625 189.375 59 191 C59 191.66 59 192.32 59 193 C59.66 193 60.32 193 61 193 C61 193.66 61 194.32 61 195 C62.65 195.66 64.3 196.32 66 197 C66 197.66 66 198.32 66 199 C66.556875 199.268125 67.11375 199.53625 67.6875 199.8125 C70.21225334 201.10899496 72.63714484 202.42476323 75 204 C75 204.66 75 205.32 75 206 C75.7321875 206.26554688 76.464375 206.53109375 77.21875 206.8046875 C79.98258811 207.9925168 82.08359942 209.34580094 84.5 211.125 C107.36493243 227.37555403 133.85038689 238.64258699 161.0078125 245.48242188 C162.85990051 245.9636016 164.69660116 246.50297468 166.53125 247.046875 C174.62638498 249.41707218 182.73464165 250.88819768 191.0625 252.1875 C192.12662109 252.35451416 193.19074219 252.52152832 194.28710938 252.69360352 C207.36545509 254.64112235 220.35963432 255.16660766 233.55810547 255.13037109 C235.86562718 255.12502173 238.17295296 255.13034846 240.48046875 255.13671875 C250.35623525 255.14065803 260.15234706 254.73735624 270 254 C270 254.99 270 255.98 270 257 C235.27546889 267.99537719 199.48712615 269.60576084 163.625 263.5 C162.58098022 263.32247192 162.58098022 263.32247192 161.51586914 263.14135742 C157.78252675 262.4612685 154.49691386 261.44057033 151 260 C148.90374132 259.48734263 146.79862635 259.01000822 144.6875 258.5625 C139.55072104 257.4031376 134.85656211 255.99480974 130 254 C128.40478516 253.40251953 128.40478516 253.40251953 126.77734375 252.79296875 C113.07894692 247.56424315 100.48568228 240.61131724 87.9375 233.0625 C87.14496826 232.58981689 86.35243652 232.11713379 85.53588867 231.63012695 C84.44884644 230.96436646 84.44884644 230.96436646 83.33984375 230.28515625 C82.69394287 229.89207275 82.04804199 229.49898926 81.38256836 229.09399414 C80.69819702 228.55246704 80.69819702 228.55246704 80 228 C80 227.34 80 226.68 80 226 C78.9790625 225.6596875 78.9790625 225.6596875 77.9375 225.3125 C74.3011291 223.68773854 70.97170737 221.67196743 68 219 C68 218.34 68 217.68 68 217 C67.43023437 216.74734375 66.86046875 216.4946875 66.2734375 216.234375 C61.57050589 213.68089323 57.86131509 209.66191023 54 206 C53.45456543 205.48324707 52.90913086 204.96649414 52.34716797 204.43408203 C41.56527927 194.13409953 31.30861802 183.10510818 24 170 C24 169.34 24 168.68 24 168 C23.34 168 22.68 168 22 168 C4.08511444 136.12837744 -9.33107102 104.08267819 -10 67 C-10.01514648 66.32130859 -10.03029297 65.64261719 -10.04589844 64.94335938 C-10.13803278 60.29169869 -10.10041789 55.65117424 -10 51 C-9.98743164 50.33178223 -9.97486328 49.66356445 -9.96191406 48.97509766 C-9.58334843 32.76244499 -7.33757479 14.67514959 0 0 Z " fill="#033231" transform="translate(440,265)"/>
<path d="M0 0 C12.82475246 10.95531362 20.30238174 24.03334807 26.06616211 39.69848633 C32.25000781 56.43916548 40.16843647 71.93852278 50.1171875 86.76953125 C51.36295874 88.89030847 51.98857138 90.5998234 52.4296875 93.00390625 C53.0896875 93.00390625 53.7496875 93.00390625 54.4296875 93.00390625 C55.98046875 94.76171875 55.98046875 94.76171875 57.7421875 97.12890625 C59.88219125 99.97179827 62.03396305 102.75486496 64.3671875 105.44140625 C66.4296875 108.00390625 66.4296875 108.00390625 66.4296875 110.00390625 C67.4196875 110.33390625 68.4096875 110.66390625 69.4296875 111.00390625 C69.4296875 111.66390625 69.4296875 112.32390625 69.4296875 113.00390625 C70.0896875 113.00390625 70.7496875 113.00390625 71.4296875 113.00390625 C71.4296875 113.66390625 71.4296875 114.32390625 71.4296875 115.00390625 C72.0896875 115.00390625 72.7496875 115.00390625 73.4296875 115.00390625 C73.4296875 115.66390625 73.4296875 116.32390625 73.4296875 117.00390625 C75.0796875 117.66390625 76.7296875 118.32390625 78.4296875 119.00390625 C78.4296875 119.66390625 78.4296875 120.32390625 78.4296875 121.00390625 C79.29775024 121.41141113 79.29775024 121.41141113 80.18334961 121.82714844 C82.42765772 123.00284294 84.3438063 124.31581432 86.37109375 125.83203125 C87.11343262 126.38133301 87.85577148 126.93063477 88.62060547 127.49658203 C89.40322754 128.07649902 90.18584961 128.65641602 90.9921875 129.25390625 C97.59595566 134.07626577 104.14141818 138.28596633 111.4296875 142.00390625 C121.09990987 147.19701212 130.72385616 152.49133845 140.1796875 158.06640625 C140.81745117 158.43612549 141.45521484 158.80584473 142.11230469 159.18676758 C143.58722467 160.06853122 145.01490653 161.02856483 146.4296875 162.00390625 C146.4296875 162.66390625 146.4296875 163.32390625 146.4296875 164.00390625 C147.4196875 164.00390625 148.4096875 164.00390625 149.4296875 164.00390625 C149.4296875 164.66390625 149.4296875 165.32390625 149.4296875 166.00390625 C150.01363281 166.27203125 150.59757812 166.54015625 151.19921875 166.81640625 C159.68970153 171.33673334 169.35121665 180.89811353 172.4296875 190.00390625 C168.43281216 189.43690766 166.29897989 187.4222263 163.3046875 184.81640625 C148.61713523 172.54775258 130.37507396 165.06584981 112.53125 158.58203125 C88.11998163 149.68362356 88.11998163 149.68362356 78.4296875 143.00390625 C78.4296875 142.34390625 78.4296875 141.68390625 78.4296875 141.00390625 C77.7284375 140.75640625 77.0271875 140.50890625 76.3046875 140.25390625 C71.87283831 138.3270153 67.52648672 135.78888307 64.4296875 132.00390625 C64.4296875 131.34390625 64.4296875 130.68390625 64.4296875 130.00390625 C63.8728125 129.77703125 63.3159375 129.55015625 62.7421875 129.31640625 C59.76809162 127.62840589 57.70959885 125.53714108 55.4296875 123.00390625 C55.4296875 122.34390625 55.4296875 121.68390625 55.4296875 121.00390625 C54.4396875 120.67390625 53.4496875 120.34390625 52.4296875 120.00390625 C50.91162109 118.39331055 50.91162109 118.39331055 49.328125 116.328125 C48.75578125 115.58240234 48.1834375 114.83667969 47.59375 114.06835938 C46.70816406 112.89176758 46.70816406 112.89176758 45.8046875 111.69140625 C45.2065625 110.91861328 44.6084375 110.14582031 43.9921875 109.34960938 C39.16955559 103.00490247 39.16955559 103.00490247 38.4296875 99.00390625 C37.7696875 99.00390625 37.1096875 99.00390625 36.4296875 99.00390625 C35.140625 97.359375 35.140625 97.359375 33.8046875 95.19140625 C33.35867188 94.48371094 32.91265625 93.77601563 32.453125 93.046875 C31.4296875 91.00390625 31.4296875 91.00390625 31.4296875 88.00390625 C30.7696875 88.00390625 30.1096875 88.00390625 29.4296875 88.00390625 C27.4496875 84.04390625 27.4496875 84.04390625 25.4296875 80.00390625 C24.7696875 80.00390625 24.1096875 80.00390625 23.4296875 80.00390625 C22.5015625 81.64359375 22.5015625 81.64359375 21.5546875 83.31640625 C20.25069188 85.62013185 18.90194051 87.79552674 17.4296875 90.00390625 C16.7696875 90.00390625 16.1096875 90.00390625 15.4296875 90.00390625 C15.4296875 90.66390625 15.4296875 91.32390625 15.4296875 92.00390625 C3.75379696 101.44398796 -7.91220425 102.6641814 -22.5703125 102.00390625 C-25.99569031 101.58984959 -29.24472708 100.91406647 -32.5703125 100.00390625 C-33.24320313 99.8440625 -33.91609375 99.68421875 -34.609375 99.51953125 C-41.97755737 97.34723844 -48.19075616 91.94001448 -52.12890625 85.42578125 C-55.81477383 76.70213617 -55.14385018 67.59506465 -51.8828125 58.81640625 C-49.58084239 53.68124217 -46.93673558 48.52453153 -43.5703125 44.00390625 C-42.9103125 44.00390625 -42.2503125 44.00390625 -41.5703125 44.00390625 C-41.5703125 43.34390625 -41.5703125 42.68390625 -41.5703125 42.00390625 C-40.9103125 42.00390625 -40.2503125 42.00390625 -39.5703125 42.00390625 C-39.24353516 41.17246094 -39.24353516 41.17246094 -38.91015625 40.32421875 C-37.12017713 37.22437152 -34.80254884 35.25436886 -32.1328125 32.87890625 C-31.16472656 32.01007813 -30.19664062 31.14125 -29.19921875 30.24609375 C-24.22536476 26.00390625 -24.22536476 26.00390625 -20.5703125 26.00390625 C-21.07635242 28.17264877 -21.57015063 30.00358252 -22.5703125 32.00390625 C-23.2303125 32.00390625 -23.8903125 32.00390625 -24.5703125 32.00390625 C-24.83585938 32.70902344 -25.10140625 33.41414063 -25.375 34.140625 C-26.63530217 37.15958411 -28.10989244 39.95575701 -29.6953125 42.81640625 C-30.23414063 43.79222656 -30.77296875 44.76804688 -31.328125 45.7734375 C-31.73804688 46.50949219 -32.14796875 47.24554688 -32.5703125 48.00390625 C-33.2303125 48.00390625 -33.8903125 48.00390625 -34.5703125 48.00390625 C-34.6734375 48.66390625 -34.7765625 49.32390625 -34.8828125 50.00390625 C-35.5703125 53.00390625 -35.5703125 53.00390625 -37.0703125 56.69140625 C-39.28908882 62.51294808 -40.70674799 68.87839275 -38.4453125 74.87890625 C-35.58875069 79.6398426 -33.17261737 81.48790977 -27.8828125 83.19140625 C-26.449994 83.48600445 -25.01187836 83.7556225 -23.5703125 84.00390625 C-22.80589844 84.15085937 -22.04148437 84.2978125 -21.25390625 84.44921875 C-12.99951154 85.69466514 -5.49770346 83.96760173 1.9296875 80.25390625 C6.09892364 76.50159372 9.16890879 71.54101386 9.59082031 65.81835938 C10.06673956 50.12288204 10.06673956 50.12288204 6.4296875 35.00390625 C6.01203125 33.77414063 6.01203125 33.77414063 5.5859375 32.51953125 C2.03318166 22.65757108 -3.59784367 13.8451464 -11.5703125 7.00390625 C-12.10140625 6.54371094 -12.6325 6.08351562 -13.1796875 5.609375 C-23.78671095 -2.74996967 -36.74887486 -3.66063599 -49.66259766 -2.2734375 C-56.98005141 -1.20962544 -62.86617646 2.58163668 -68.7578125 6.83203125 C-70.5703125 8.00390625 -70.5703125 8.00390625 -72.5703125 8.00390625 C-72.5703125 8.66390625 -72.5703125 9.32390625 -72.5703125 10.00390625 C-74.6773898 11.86520782 -76.78545398 13.6022176 -79.0078125 15.31640625 C-79.64799316 15.81261475 -80.28817383 16.30882324 -80.94775391 16.82006836 C-91.12731087 24.59380457 -100.24508319 27.88155087 -112.9453125 29.12890625 C-113.77587158 29.21382324 -114.60643066 29.29874023 -115.4621582 29.38623047 C-121.19058598 29.94343344 -126.81242203 30.19268954 -132.5703125 30.00390625 C-135.68765868 47.8182529 -135.68765868 47.8182529 -131.5703125 65.00390625 C-131.2403125 65.99390625 -130.9103125 66.98390625 -130.5703125 68.00390625 C-129.9103125 68.00390625 -129.2503125 68.00390625 -128.5703125 68.00390625 C-128.5703125 68.66390625 -128.5703125 69.32390625 -128.5703125 70.00390625 C-120.07776887 73.41025617 -111.57999898 76.7184305 -102.8828125 79.56640625 C-87.7356343 84.58275452 -77.2645144 89.22950361 -69.5703125 104.00390625 C-58.52099038 127.04042398 -62.44063826 152.8964128 -67.5703125 177.00390625 C-68.5603125 177.00390625 -69.5503125 177.00390625 -70.5703125 177.00390625 C-71.74422515 173.28846106 -71.69624953 169.75652984 -71.7109375 165.87890625 C-71.72532089 164.44439984 -71.74141895 163.00990983 -71.7590332 161.57543945 C-71.76810699 160.82815582 -71.77718079 160.08087219 -71.78652954 159.3109436 C-72.03206849 142.5430954 -72.8687129 126.75395249 -81.5703125 112.00390625 C-81.5703125 111.34390625 -81.5703125 110.68390625 -81.5703125 110.00390625 C-82.2303125 110.00390625 -82.8903125 110.00390625 -83.5703125 110.00390625 C-85.29546309 108.12854466 -86.84558423 106.14290687 -88.42578125 104.14453125 C-93.14944937 99.42946726 -99.1476438 97.24331378 -105.3203125 95.06640625 C-117.08417056 90.77650663 -128.68931594 86.20020447 -137.5703125 77.00390625 C-137.5703125 76.34390625 -137.5703125 75.68390625 -137.5703125 75.00390625 C-138.2303125 75.00390625 -138.8903125 75.00390625 -139.5703125 75.00390625 C-140.35467226 73.72040846 -141.12182638 72.42639881 -141.8828125 71.12890625 C-142.52669922 70.04996094 -142.52669922 70.04996094 -143.18359375 68.94921875 C-147.7134119 59.3281402 -148.22263382 49.77069406 -148.7421875 39.28515625 C-149.09865304 33.38976456 -149.58951712 29.21423965 -152.5703125 24.00390625 C-153.02100326 19.89829863 -152.7722818 15.7726905 -150.40234375 12.28515625 C-146.83919729 8.99903727 -143.31720203 8.00390625 -138.5703125 8.00390625 C-133.5078125 10.06640625 -133.5078125 10.06640625 -131.5703125 12.00390625 C-114.57745965 13.154464 -96.09433737 11.50788489 -82.7578125 -0.12109375 C-82.23058594 -0.6109375 -81.70335937 -1.10078125 -81.16015625 -1.60546875 C-77.76894665 -4.57173562 -74.15951826 -6.99609375 -69.5703125 -6.99609375 C-69.5703125 -7.65609375 -69.5703125 -8.31609375 -69.5703125 -8.99609375 C-67.19715132 -9.81432108 -64.8220183 -10.62578082 -62.4453125 -11.43359375 C-61.78015625 -11.66369141 -61.115 -11.89378906 -60.4296875 -12.13085938 C-38.58835025 -19.5183705 -17.76088985 -13.79303148 0 0 Z " fill="#033231" transform="translate(582.5703125,122.99609375)"/>
<path d="M0 0 C4.99264496 19.73758972 6.44848206 39.70380104 6 60 C5.98743164 60.70350586 5.97486328 61.40701172 5.96191406 62.13183594 C5.31320928 91.58832868 -3.42478068 123.31642828 -23 146 C-23.66 146 -24.32 146 -25 146 C-25.23976563 146.56589844 -25.47953125 147.13179687 -25.7265625 147.71484375 C-27.26360143 150.47302711 -29.12343118 152.3520728 -31.375 154.5625 C-32.14585937 155.32691406 -32.91671875 156.09132813 -33.7109375 156.87890625 C-39.23756906 162 -39.23756906 162 -42 162 C-42 162.66 -42 163.32 -42 164 C-47.29411765 168 -47.29411765 168 -51 168 C-51 168.66 -51 169.32 -51 170 C-76.76741852 183.40523872 -101.01815953 188.54437787 -130 188 C-129.67 187.01 -129.34 186.02 -129 185 C-128.43829102 184.91548584 -127.87658203 184.83097168 -127.29785156 184.74389648 C-96.03216557 179.90183741 -69.63049398 168.47911944 -47 146 C-46.67 145.34 -46.34 144.68 -46 144 C-45.34 144 -44.68 144 -44 144 C-44 143.34 -44 142.68 -44 142 C-43.34 142 -42.68 142 -42 142 C-41.731875 141.443125 -41.46375 140.88625 -41.1875 140.3125 C-39.89100504 137.78774666 -38.57523677 135.36285516 -37 133 C-36.34 133 -35.68 133 -35 133 C-34.63841797 132.01193359 -34.63841797 132.01193359 -34.26953125 131.00390625 C-32.65037622 127.17273636 -30.67240846 123.58898254 -28.6875 119.9375 C-23.44414197 110.10045899 -19.2452024 100.46012122 -16.3125 89.6875 C-16.00844238 88.58656006 -16.00844238 88.58656006 -15.69824219 87.46337891 C-12.36636124 74.56694154 -11.70896213 61.78757303 -11.875 48.5625 C-11.88507155 47.13737623 -11.89418986 45.7122454 -11.90234375 44.28710938 C-11.92397708 40.85792154 -11.95826503 37.42900933 -12 34 C-13.32 34.33 -14.64 34.66 -16 35 C-16 35.66 -16 36.32 -16 37 C-18.42264212 39.10841866 -21.1557089 40.82486983 -23.8125 42.625 C-24.55048828 43.140625 -25.28847656 43.65625 -26.04882812 44.1875 C-26.76103516 44.67476563 -27.47324219 45.16203125 -28.20703125 45.6640625 C-28.8616333 46.11217285 -29.51623535 46.5602832 -30.19067383 47.02197266 C-32 48 -32 48 -35 48 C-35 48.66 -35 49.32 -35 50 C-47.3409201 56.84168965 -59.92654632 62.69486825 -73 68 C-73.69947754 68.28472168 -74.39895508 68.56944336 -75.11962891 68.86279297 C-87.15406643 73.70471521 -99.56643041 77.33903714 -112 81 C-113.0710498 81.31678711 -114.14209961 81.63357422 -115.24560547 81.95996094 C-118.47522598 82.91428713 -121.70597357 83.86464879 -124.9375 84.8125 C-125.92556641 85.1024585 -126.91363281 85.39241699 -127.93164062 85.69116211 C-128.87072266 85.96452393 -129.80980469 86.23788574 -130.77734375 86.51953125 C-132.00312134 86.87688354 -132.00312134 86.87688354 -133.25366211 87.24145508 C-135.44648759 87.84711858 -137.65128726 88.40937467 -139.859375 88.95678711 C-145.9253648 90.46079307 -151.89634854 92.29080585 -157.87866211 94.09375 C-160.03123648 94.74060522 -162.18642458 95.37816569 -164.34179688 96.015625 C-176.68635121 99.70785336 -188.75436734 104.05949442 -200.25 109.9375 C-200.90911377 110.26959473 -201.56822754 110.60168945 -202.24731445 110.94384766 C-207.25786825 113.51283095 -212.0033401 116.39596259 -216.66796875 119.5546875 C-219.043188 121.02676643 -221.38034661 122.04147673 -224 123 C-223.49396008 120.83125748 -223.00016187 119.00032373 -222 117 C-221.34 117 -220.68 117 -220 117 C-219.773125 116.29875 -219.54625 115.5975 -219.3125 114.875 C-217.66158712 111.25871465 -215.7091165 108.91230024 -213 106 C-212.34 106 -211.68 106 -211 106 C-211 105.34 -211 104.68 -211 104 C-191.89781818 85.21552598 -165.56060708 77.24280704 -140.2890625 70.84277344 C-124.37364812 66.76468478 -108.69222296 62.0825696 -93.16064453 56.73291016 C-90.33060804 55.7729362 -87.47694409 54.89241926 -84.625 54 C-77.4748667 51.60987045 -70.76123107 48.30056149 -64 45 C-63.33387695 44.6798291 -62.66775391 44.3596582 -61.98144531 44.02978516 C-49.20418115 37.88628045 -37.20603784 31.07009442 -26.13598633 22.14892578 C-22.19828248 19 -22.19828248 19 -20 19 C-20 18.34 -20 17.68 -20 17 C-19.34 17 -18.68 17 -18 17 C-18 16.34 -18 15.68 -18 15 C-17.34 15 -16.68 15 -16 15 C-16 14.34 -16 13.68 -16 13 C-14.4609375 11.484375 -14.4609375 11.484375 -12.375 9.75 C-9.65952241 7.45339927 -7.08737736 5.12849225 -4.625 2.5625 C-2 0 -2 0 0 0 Z " fill="#98C966" transform="translate(844,265)"/>
<path d="M0 0 C0.50692692 1.5811292 1.00526443 3.16501383 1.5 4.75 C1.91765625 6.07257813 1.91765625 6.07257813 2.34375 7.421875 C3 10 3 10 3 14 C4.01320313 14.18175781 4.01320313 14.18175781 5.046875 14.3671875 C5.93890625 14.53476563 6.8309375 14.70234375 7.75 14.875 C8.63171875 15.03742188 9.5134375 15.19984375 10.421875 15.3671875 C12.86947744 15.96796264 14.80599857 16.77997117 17 18 C17 18.66 17 19.32 17 20 C17.556875 20.226875 18.11375 20.45375 18.6875 20.6875 C21.66159588 22.37550036 23.72008865 24.46676517 26 27 C26 27.66 26 28.32 26 29 C26.66 29 27.32 29 28 29 C28 29.66 28 30.32 28 31 C28.5775 31.2475 29.155 31.495 29.75 31.75 C32 33 32 33 33.78125 34.96875 C36.39496848 37.36159086 38.32772433 37.93517246 41.75 38.75 C43.22726562 39.11351562 43.22726562 39.11351562 44.734375 39.484375 C45.48203125 39.65453125 46.2296875 39.8246875 47 40 C48.50888819 52.42138317 50.14153701 66.43800604 42 77 C33.9419948 86.23188744 22.82025709 88.75185226 11.25 91 C1.18618609 92.9786515 -5.69825309 95.38425981 -11.90625 103.9375 C-14.56102512 108.94364737 -14.2955923 114.76869586 -14.5625 120.3125 C-14.62727539 121.56643555 -14.62727539 121.56643555 -14.69335938 122.84570312 C-14.79885307 124.89696935 -14.89987315 126.9484648 -15 129 C-15.99 128.67 -16.98 128.34 -18 128 C-22.47392903 116.99008411 -22.26155243 104.9876171 -18 94 C-14.96374277 88.10543468 -10.26598723 83.47855239 -3.9375 81.28515625 C0.16553665 80.28137764 4.23178748 79.87689036 8.4375 79.5625 C16.70827971 78.88001608 24.98055507 77.08348158 31 71 C36.06160774 64.64212686 35.78101731 56.79578381 36 49 C35.21625 48.690625 34.4325 48.38125 33.625 48.0625 C31 47 31 47 29 46 C29 45.34 29 44.68 29 44 C28.13955078 43.65775391 28.13955078 43.65775391 27.26171875 43.30859375 C24.40876389 41.65792039 22.87754562 39.62405932 20.8125 37.0625 C14.67663025 30.12716839 9.55080094 29.12395735 0.5625 28.4375 C-0.95150391 28.37369141 -0.95150391 28.37369141 -2.49609375 28.30859375 C-5 28 -5 28 -7 26 C-7.56520003 23.34462628 -7.73788198 20.70855287 -8 18 C-14.28990445 21.33750032 -19.99710941 24.99566412 -24 31 C-24.66 31 -25.32 31 -26 31 C-26 31.66 -26 32.32 -26 33 C-26.66 33 -27.32 33 -28 33 C-28.2475 33.56203125 -28.495 34.1240625 -28.75 34.703125 C-30.21274867 37.39092569 -31.96804873 39.46405482 -34 41.75 C-35.051875 42.94882813 -35.051875 42.94882813 -36.125 44.171875 C-38 46 -38 46 -40 46 C-40.268125 46.639375 -40.53625 47.27875 -40.8125 47.9375 C-42 50 -42 50 -45 51 C-45 51.66 -45 52.32 -45 53 C-47.4140625 54.65625 -47.4140625 54.65625 -50.625 56.5 C-51.66914062 57.1084375 -52.71328125 57.716875 -53.7890625 58.34375 C-60.48127828 61.79569585 -67.25941676 62.83172905 -74.625 64 C-75.64207031 64.165 -76.65914062 64.33 -77.70703125 64.5 C-81.85232726 65.17249416 -85.99851683 65.83938331 -90.14501953 66.50439453 C-96.0157945 67.46105155 -101.83537839 68.50774521 -107.625 69.875 C-108.70938354 70.12999268 -108.70938354 70.12999268 -109.81567383 70.39013672 C-115.45104765 71.76443346 -120.68349697 73.6849139 -126 76 C-127.99302124 76.6872487 -129.98967123 77.36515933 -132 78 C-132 78.66 -132 79.32 -132 80 C-134.97 80.99 -134.97 80.99 -138 82 C-136.06382979 75.29787234 -136.06382979 75.29787234 -133 73 C-132.34 73 -131.68 73 -131 73 C-131 72.34 -131 71.68 -131 71 C-130.34 71 -129.68 71 -129 71 C-129 70.34 -129 69.68 -129 69 C-115.4448227 59.0389985 -98.54689249 55.12811096 -82.55493164 50.97875977 C-71.7412964 48.12234165 -61.94758762 44.8079471 -53 38 C-52.34 38 -51.68 38 -51 38 C-50.731875 37.401875 -50.46375 36.80375 -50.1875 36.1875 C-49.00082594 34.00152146 -47.90400887 32.58667406 -46 31 C-45.34 31 -44.68 31 -44 31 C-44 30.34 -44 29.68 -44 29 C-43.34 29 -42.68 29 -42 29 C-42 28.34 -42 27.68 -42 27 C-41.34 27 -40.68 27 -40 27 C-39.505 25.515 -39.505 25.515 -39 24 C-38.34 24 -37.68 24 -37 24 C-37 23.34 -37 22.68 -37 22 C-36.34 22 -35.68 22 -35 22 C-34.79375 21.443125 -34.5875 20.88625 -34.375 20.3125 C-32.42316968 17.02987629 -30.05769006 15.29326754 -27 13 C-26.34 13 -25.68 13 -25 13 C-25 12.34 -25 11.68 -25 11 C-18.10907772 6.19293051 -8.6724324 0 0 0 Z " fill="#043332" transform="translate(802,158)"/>
<path d="M0 0 C2.64840684 1.41248365 2.88133599 3.25643212 3.875 6 C-2.7419252 9.24043814 -8.86263698 11.69039355 -16.125 13 C-15.63 13.99 -15.63 13.99 -15.125 15 C-16.03121094 15.15855469 -16.93742188 15.31710938 -17.87109375 15.48046875 C-28.66583363 17.54803268 -36.42934564 19.84154288 -43.03125 28.9375 C-45.68602512 33.94364737 -45.4205923 39.76869586 -45.6875 45.3125 C-45.73068359 46.14845703 -45.77386719 46.98441406 -45.81835938 47.84570312 C-45.92385307 49.89696935 -46.02487315 51.9484648 -46.125 54 C-47.115 53.67 -48.105 53.34 -49.125 53 C-53.59892903 41.99008411 -53.38655243 29.9876171 -49.125 19 C-46.09130119 13.11040159 -41.40530549 8.50924066 -35.09765625 6.28515625 C-28.89338093 4.74811155 -22.48522182 4.40894827 -16.125 4 C-16.125 4.66 -16.125 5.32 -16.125 6 C-14.53875765 5.57316761 -12.9560902 5.13303842 -11.375 4.6875 C-10.49328125 4.44386719 -9.6115625 4.20023438 -8.703125 3.94921875 C-5.49998652 2.7698814 -3.37717275 0 0 0 Z " fill="#053232" transform="translate(833.125,233)"/>
<path d="M0 0 C0.495 1.485 0.495 1.485 1 3 C2.90178785 3.60061233 2.90178785 3.60061233 5 4 C5.99 4.66 6.98 5.32 8 6 C10.48051222 5.73740217 10.48051222 5.73740217 13 5 C13.763125 4.814375 14.52625 4.62875 15.3125 4.4375 C15.869375 4.293125 16.42625 4.14875 17 4 C17 4.66 17 5.32 17 6 C5.96284473 11.39237315 -5.83728611 15.9530073 -18 18 C-19.03640625 18.18433594 -20.0728125 18.36867188 -21.140625 18.55859375 C-32.10100101 20.27856618 -42.93289986 20.20787791 -54 20 C-53.505 18.515 -53.505 18.515 -53 17 C-52.15743652 16.87322876 -52.15743652 16.87322876 -51.29785156 16.74389648 C-33.24576375 13.94820297 -15.65137862 9.80006046 0 0 Z " fill="#97C565" transform="translate(768,433)"/>
<path d="M0 0 C0.80824219 0.10183594 1.61648438 0.20367187 2.44921875 0.30859375 C3.06410156 0.39238281 3.67898438 0.47617188 4.3125 0.5625 C4.3125 1.2225 4.3125 1.8825 4.3125 2.5625 C4.9725 2.5625 5.6325 2.5625 6.3125 2.5625 C8.3445167 6.6265334 8.67592902 9.19952712 7.3125 13.5625 C4.8125 16.375 4.8125 16.375 2.3125 18.5625 C1.9825 18.8925 1.6525 19.2225 1.3125 19.5625 C-3.95003509 20.17442269 -6.5834153 18.80759023 -10.6875 15.5625 C-12.41265631 12.11218739 -12.18427924 8.33533696 -11.6875 4.5625 C-8.44520219 0.09036509 -5.30215919 -0.69158598 0 0 Z " fill="#053231" transform="translate(515.6875,146.4375)"/>
<path d="M0 0 C4.42278746 1.36752855 8.42062062 3.1283404 12.5625 5.1875 C36.23589845 16.545084 63.76024831 23.27548631 90 24 C90.8971875 24.02723145 91.794375 24.05446289 92.71875 24.08251953 C107.23207947 24.46206219 121.16047035 23.5710895 135.50390625 21.36376953 C139.32616417 20.80673077 143.15860953 20.40209677 147 20 C147 20.66 147 21.32 147 22 C119.98471982 31.00509339 87.25523516 28.20422772 59.625 23.5 C58.92898682 23.38164795 58.23297363 23.2632959 57.51586914 23.14135742 C53.78252675 22.4612685 50.49691386 21.44057033 47 20 C44.90374132 19.48734263 42.79862635 19.01000822 40.6875 18.5625 C35.55219815 17.40347098 30.85313929 16.00129455 26 14 C24.87851562 13.566875 23.75703125 13.13375 22.6015625 12.6875 C14.48820841 9.54188958 6.71132448 6.04952235 -1 2 C-0.67 1.34 -0.34 0.68 0 0 Z " fill="#001C1A" transform="translate(544,505)"/>
<path d="M0 0 C2.92619877 2.77814704 5.1599781 5.88778187 7.5 9.16015625 C9.05053054 11.24629081 9.05053054 11.24629081 12 13 C12 13.66 12 14.32 12 15 C12.68698975 15.25265625 13.37397949 15.5053125 14.08178711 15.765625 C16.79654426 16.91394025 19.30166413 18.25712888 21.85984802 19.71533203 C30.85262258 24.79545214 40.09827999 27.97222688 49.9375 31 C66.17412708 36.00808975 80.92652303 42.28142762 95 52 C95.75796875 52.51949219 96.5159375 53.03898437 97.296875 53.57421875 C97.85890625 54.04472656 98.4209375 54.51523437 99 55 C99 55.66 99 56.32 99 57 C100.65 57.66 102.3 58.32 104 59 C104 59.66 104 60.32 104 61 C104.66 61 105.32 61 106 61 C107.38938077 62.96147874 108.7260411 64.96166576 110 67 C106.28570797 65.37278635 103.38358949 63.05329514 100.25 60.5 C99.26515625 59.7059375 98.2803125 58.911875 97.265625 58.09375 C96.51796875 57.4028125 95.7703125 56.711875 95 56 C95 55.34 95 54.68 95 54 C93.94425781 53.62101562 93.94425781 53.62101562 92.8671875 53.234375 C89.6898475 51.86647386 87.01627224 50.14808712 84.125 48.25 C77.10580331 43.79793932 69.78525062 40.83468163 62 38 C60.78699219 37.54625 59.57398438 37.0925 58.32421875 36.625 C53.07076165 34.69586165 47.86946687 32.91459595 42.4375 31.5625 C35.91619648 29.87678639 30.04825976 26.90888709 24 24 C21.67750996 22.97032461 19.34352091 21.98100875 17 21 C17 20.34 17 19.68 17 19 C16.2575 18.731875 15.515 18.46375 14.75 18.1875 C12.10938051 17.04723249 10.14447156 15.90619694 8 14 C8 13.34 8 12.68 8 12 C7.34 12 6.68 12 6 12 C4.4921875 10.13671875 4.4921875 10.13671875 2.875 7.6875 C2.33617187 6.88699219 1.79734375 6.08648437 1.2421875 5.26171875 C0 3 0 3 0 0 Z " fill="#001A1A" transform="translate(543,370)"/>
<path d="M0 0 C0.495 1.485 0.495 1.485 1 3 C-0.870713 4.13211434 -2.74678191 5.25538095 -4.625 6.375 C-5.66914062 7.00148437 -6.71328125 7.62796875 -7.7890625 8.2734375 C-14.43795286 11.84863159 -21.25014982 12.8302592 -28.625 14 C-29.64207031 14.165 -30.65914062 14.33 -31.70703125 14.5 C-35.85232726 15.17249416 -39.99851683 15.83938331 -44.14501953 16.50439453 C-50.0157945 17.46105155 -55.83537839 18.50774521 -61.625 19.875 C-62.34792236 20.04499512 -63.07084473 20.21499023 -63.81567383 20.39013672 C-69.45104765 21.76443346 -74.68349697 23.6849139 -80 26 C-81.99302124 26.6872487 -83.98967123 27.36515933 -86 28 C-86 28.66 -86 29.32 -86 30 C-87.98 30.66 -89.96 31.32 -92 32 C-91.25 29.0625 -91.25 29.0625 -90 26 C-88.25 25.25 -88.25 25.25 -86 25 C-83.26413026 24.15318318 -80.58590856 23.25158288 -77.953125 22.12109375 C-63.77364483 16.05436985 -48.47363092 13.92408147 -33.33178711 11.64550781 C-21.11988528 9.79272005 -9.9012066 7.92096528 0 0 Z " fill="#001A19" transform="translate(756,208)"/>
<path d="M0 0 C3.00288197 1.43520094 5.85560708 3.07515759 8.72021484 4.76708984 C29.59303692 17.0273675 50.77474784 21.09546569 74.671875 15.87109375 C77.44759621 15.14458456 80.03034905 14.31778103 82.6875 13.25 C86.09079434 11.96573799 86.75212136 11.95275373 90 13 C82.39178419 18.07214387 71.12388252 20.7806759 62 21 C60.2675 21.07541016 60.2675 21.07541016 58.5 21.15234375 C37.1674652 21.81200318 20.53700216 15.88593089 3 4 C2.01 3.34 1.02 2.68 0 2 C0 1.34 0 0.68 0 0 Z " fill="#001C1B" transform="translate(669,453)"/>
<path d="M0 0 C-0.8125 2.4375 -0.8125 2.4375 -2 5 C-2.99 5.33 -3.98 5.66 -5 6 C-5 6.66 -5 7.32 -5 8 C-7.15244416 9.82703998 -9.31375146 11.54900177 -11.5625 13.25 C-12.85640578 14.24487626 -14.14938571 15.2409579 -15.44140625 16.23828125 C-16.06160645 16.71604004 -16.68180664 17.19379883 -17.32080078 17.68603516 C-19.26876645 19.21030838 -21.1452095 20.80141496 -23 22.4375 C-25.9437425 24.95194672 -28.63981023 27.09080127 -32 29 C-32.99 28.67 -33.98 28.34 -35 28 C-34.01 27.34 -33.02 26.68 -32 26 C-32.33 25.01 -32.66 24.02 -33 23 C-33.66 22.67 -34.32 22.34 -35 22 C-34.11699219 21.5153125 -33.23398437 21.030625 -32.32421875 20.53125 C-23.58023716 15.67076178 -15.55092077 10.26993906 -7.61328125 4.1640625 C-6.89527344 3.61492187 -6.17726563 3.06578125 -5.4375 2.5 C-4.81746094 2.0153125 -4.19742188 1.530625 -3.55859375 1.03125 C-2 0 -2 0 0 0 Z " fill="#0B312B" transform="translate(788,367)"/>
<path d="M0 0 C2 1 2 1 3.25 3.1875 C4.21693017 6.81348814 3.36393732 8.5542636 2 12 C0.79402507 16.71029338 0.67025106 21.47814592 0.4375 26.3125 C0.39431641 27.14845703 0.35113281 27.98441406 0.30664062 28.84570312 C0.20114693 30.89696935 0.10012685 32.9484648 0 35 C-0.99 34.67 -1.98 34.34 -3 34 C-6.88906478 24.42937967 -7.45504809 13.71732276 -4 4 C-3.34 4.33 -2.68 4.66 -2 5 C-1.34 3.35 -0.68 1.7 0 0 Z " fill="#063231" transform="translate(787,252)"/>
<path d="M0 0 C0.66 0 1.32 0 2 0 C2.18433594 0.75023437 2.36867188 1.50046875 2.55859375 2.2734375 C5.81623871 13.76930462 11.9636025 20.57732088 22.16796875 26.52294922 C27.08488396 29.08737482 32.24666562 30.94581977 37.4375 32.875 C50.14727652 37.80020045 60.65096473 42.91046075 68 55 C68 55.66 68 56.32 68 57 C66.515 56.505 66.515 56.505 65 56 C64.3125 53.9375 64.3125 53.9375 64 52 C63.34 52 62.68 52 62 52 C60.27484941 50.12463841 58.72472827 48.13900062 57.14453125 46.140625 C52.42086313 41.42556101 46.4226687 39.23940753 40.25 37.0625 C28.48614194 32.77260038 16.88099656 28.19629822 8 19 C8 18.34 8 17.68 8 17 C7.34 17 6.68 17 6 17 C2.88535757 11.75741484 0.39331247 6.95324421 -1 1 C-0.67 0.67 -0.34 0.34 0 0 Z " fill="#001C1B" transform="translate(437,181)"/>
<path d="M0 0 C0.99 3.3 1.98 6.6 3 10 C4.59328125 10.14695313 4.59328125 10.14695313 6.21875 10.296875 C20.86087088 11.78687217 20.86087088 11.78687217 27 16 C28.9375 18.625 28.9375 18.625 30 21 C30.495 21.99 30.495 21.99 31 23 C28.55608452 21.95260765 27.07669413 21.08805622 25.3125 19.0625 C19.53947925 13.9135896 11.92938198 13.62154483 4.50390625 13.30859375 C2 13 2 13 0 11 C-0.56520003 8.34462628 -0.73788198 5.70855287 -1 3 C-7.28990445 6.33750032 -12.99710941 9.99566412 -17 16 C-17.66 16 -18.32 16 -19 16 C-19 16.66 -19 17.32 -19 18 C-19.66 18 -20.32 18 -21 18 C-21.2475 18.56203125 -21.495 19.1240625 -21.75 19.703125 C-23.21274867 22.39092569 -24.96804873 24.46405482 -27 26.75 C-27.70125 27.54921875 -28.4025 28.3484375 -29.125 29.171875 C-31 31 -31 31 -33 31 C-33.495 32.485 -33.495 32.485 -34 34 C-34.99 33.67 -35.98 33.34 -37 33 C-36.29875 32.32195312 -35.5975 31.64390625 -34.875 30.9453125 C-30.2313521 26.40602547 -25.78566666 21.90480705 -21.8125 16.75 C-17.25514567 10.89319637 -8.15381149 0 0 0 Z " fill="#001A19" transform="translate(795,173)"/>
<path d="M0 0 C0.99 0.495 0.99 0.495 2 1 C-11.28088189 11.35665101 -25.82895782 20.13012745 -41.421875 26.5 C-43.97905288 27.5720047 -46.35066527 28.67700249 -48.796875 29.953125 C-53.53422016 32.36194457 -58.47410753 34.04791723 -63.5 35.75 C-64.4178125 36.06582031 -65.335625 36.38164062 -66.28125 36.70703125 C-68.51918589 37.47632171 -70.758718 38.24052558 -73 39 C-73.66 38.34 -74.32 37.68 -75 37 C-74.11699219 36.69707031 -73.23398437 36.39414062 -72.32421875 36.08203125 C-65.6198504 33.7416234 -59.11868681 31.2630153 -52.6875 28.234375 C-49.94824685 26.97622966 -47.17662368 25.86151374 -44.375 24.75 C-32.30412499 19.74652849 -21.01390667 13.264691 -10.1484375 6.04296875 C-6.80793052 3.87536931 -3.53483699 1.83588991 0 0 Z " fill="#001E1D" transform="translate(751,397)"/>
<path d="M0 0 C-0.33 1.65 -0.66 3.3 -1 5 C-2.4117783 5.53394179 -3.82970244 6.05165104 -5.25 6.5625 C-6.03890625 6.85253906 -6.8278125 7.14257812 -7.640625 7.44140625 C-10 8 -10 8 -11.87866211 7.5 C-14.28698502 6.93235754 -15.87480014 7.12380613 -18.30078125 7.55859375 C-19.51991211 7.76645508 -19.51991211 7.76645508 -20.76367188 7.97851562 C-21.60478516 8.12998047 -22.44589844 8.28144531 -23.3125 8.4375 C-28.95691511 9.44182872 -34.25910084 10.19368756 -40 10 C-35.46000797 7.28811143 -30.21506427 6.59702473 -25.11132812 5.5 C-21.57689492 4.71114656 -19.04459097 4.02972731 -16 2 C-15.01 2 -14.02 2 -13 2 C-13 1.34 -13 0.68 -13 0 C-8.38926889 -1.29676812 -4.66159911 -0.71109139 0 0 Z " fill="#9AC868" transform="translate(768,441)"/>
<path d="M0 0 C0 0.33 0 0.66 0 1 C-0.99580078 1.12955078 -0.99580078 1.12955078 -2.01171875 1.26171875 C-8.02299359 2.21825737 -11.19591638 3.18149408 -15 8 C-14.67 8.66 -14.34 9.32 -14 10 C-14 11.32 -14 12.64 -14 14 C-13.38253906 13.57847656 -12.76507812 13.15695313 -12.12890625 12.72265625 C-6.23703237 8.91132231 -2.02242668 7.22652989 5 7 C5.33 7.66 5.66 8.32 6 9 C5.2265625 9.14695313 4.453125 9.29390625 3.65625 9.4453125 C-4.704207 11.24570794 -11.13343351 13.70015026 -16 21 C-16.66 21 -17.32 21 -18 21 C-17.773125 20.4225 -17.54625 19.845 -17.3125 19.25 C-16.73494807 16.87827523 -16.73494807 16.87827523 -18.4375 14.75 C-18.953125 14.1725 -19.46875 13.595 -20 13 C-20.66 14.98 -21.32 16.96 -22 19 C-22.33 19 -22.66 19 -23 19 C-23.54763264 13.63320009 -22.8222317 10.75233203 -19.5625 6.640625 C-13.48934618 0.26381349 -8.70889952 -1.50730953 0 0 Z " fill="#032B29" transform="translate(807,240)"/>
<path d="M0 0 C3.44703434 1.53201526 6.06586771 3.65269416 9 6 C10.32164266 6.68955269 11.65325232 7.36086551 13 8 C13.10852923 10.87602455 13.1875515 13.74790832 13.25 16.625 C13.30027344 17.83736328 13.30027344 17.83736328 13.3515625 19.07421875 C13.4407298 24.55800755 12.69238797 27.66486302 9 32 C8.01 32.495 8.01 32.495 7 33 C7 33.66 7 34.32 7 35 C1.26884891 38.59523599 -3.21017493 40.62964591 -10 41 C-10 40.34 -10 39.68 -10 39 C-9.43152344 38.84144531 -8.86304688 38.68289062 -8.27734375 38.51953125 C-1.38767194 36.43767716 4.55782559 33.96550223 8.375 27.5625 C10.98881597 21.76519022 10.8242347 15.25724455 11 9 C10.21625 8.690625 9.4325 8.38125 8.625 8.0625 C6 7 6 7 4 6 C4 5.34 4 4.68 4 4 C2.68 3.34 1.36 2.68 0 2 C0 1.34 0 0.68 0 0 Z " fill="#012422" transform="translate(827,198)"/>
<path d="M0 0 C9.03862661 7.36480687 9.03862661 7.36480687 12 12 C11.505 13.485 11.505 13.485 11 15 C10.484375 14.319375 9.96875 13.63875 9.4375 12.9375 C0.44436359 2.09961766 -9.58035988 -5.43154792 -24 -7 C-27.63271258 -6.97313136 -31.24904635 -6.77622491 -34.875 -6.5625 C-35.84953125 -6.51029297 -36.8240625 -6.45808594 -37.828125 -6.40429688 C-40.21913402 -6.27536992 -42.60964426 -6.14044056 -45 -6 C-33.8810214 -17.1189786 -10.36161968 -7.71609976 0 0 Z " fill="#001515" transform="translate(571,127)"/>
<path d="M0 0 C2.70739829 2.59910236 5.24609498 5.33159684 7.75 8.125 C8.67039062 9.14980469 8.67039062 9.14980469 9.609375 10.1953125 C11 12 11 12 11 14 C11.56203125 14.24492187 12.1240625 14.48984375 12.703125 14.7421875 C15.41728685 16.22851423 17.43962849 18.06575583 19.75 20.125 C28.94838272 27.76976848 39.66384576 32.42016182 51 36 C51.33 36.66 51.66 37.32 52 38 C39.03066332 37.37245145 25.77986987 29.36249743 16 21 C16 20.34 16 19.68 16 19 C15.443125 18.773125 14.88625 18.54625 14.3125 18.3125 C11.33840412 16.62449964 9.27991135 14.53323483 7 12 C7 11.34 7 10.68 7 10 C6.34 10 5.68 10 5 10 C2 6.53846154 2 6.53846154 2 4 C1.34 4 0.68 4 0 4 C0 2.68 0 1.36 0 0 Z " fill="#001C1B" transform="translate(492,383)"/>
<path d="M0 0 C0 0.99 0 1.98 0 3 C-3.12464633 3.89706989 -6.24973235 4.79259719 -9.375 5.6875 C-10.32656982 5.96005615 -11.27813965 6.2326123 -12.25854492 6.51342773 C-18.99907181 8.43969335 -25.75154135 10.31745286 -32.5144043 12.16357422 C-36.17982267 13.17543157 -39.81398655 14.24377906 -43.4296875 15.421875 C-44.14600342 15.65447021 -44.86231934 15.88706543 -45.6003418 16.12670898 C-47.55330695 16.76840732 -49.50146339 17.4246891 -51.44921875 18.08203125 C-55.11401776 19.02947654 -58.23204463 19.16929196 -62 19 C-56.61557183 16.10372075 -50.6935791 14.60792149 -44.875 12.8125 C-44.23927063 12.615354 -43.60354126 12.41820801 -42.94854736 12.21508789 C-30.4739204 8.35271317 -17.90763249 4.89427764 -5.26708984 1.61328125 C-3.49459183 1.13379439 -1.7419791 0.5806597 0 0 Z " fill="#90BD5D" transform="translate(739,341)"/>
<path d="M0 0 C2.47830334 0.36808749 3.6746419 0.59789362 5.28027344 2.58227539 C5.63637695 3.24735107 5.99248047 3.91242676 6.359375 4.59765625 C6.94912109 5.67563477 6.94912109 5.67563477 7.55078125 6.77539062 C7.94652344 7.53013672 8.34226562 8.28488281 8.75 9.0625 C9.16121094 9.82111328 9.57242188 10.57972656 9.99609375 11.36132812 C11.00926383 13.23451468 12.0062056 15.11646233 13 17 C12.01 17 11.02 17 10 17 C9.505 15.02 9.505 15.02 9 13 C8.34 13 7.68 13 7 13 C5.68 10.36 4.36 7.72 3 5 C2.34 5 1.68 5 1 5 C0.38125 6.093125 -0.2375 7.18625 -0.875 8.3125 C-2.17899562 10.6162256 -3.52774699 12.79162049 -5 15 C-5.66 15 -6.32 15 -7 15 C-7 15.66 -7 16.32 -7 17 C-12.81307735 21.72312535 -19.23063321 25.72837814 -27 25 C-24.24378975 23.1625265 -21.72254148 21.97623822 -18.6875 20.6875 C-9.83064556 16.65530048 -5.43490131 11.52310023 -1 3 C-0.67 2.01 -0.34 1.02 0 0 Z " fill="#001D1C" transform="translate(605,198)"/>
<path d="M0 0 C4.09757423 -0.1781554 7.60256941 0.06709689 11.6015625 0.99609375 C16.9513613 2.10159447 22.05277678 2.26393814 27.5 2.1875 C28.37269531 2.18685547 29.24539063 2.18621094 30.14453125 2.18554688 C35.43455351 2.15028006 40.55404054 1.77762249 45.79101562 1.0168457 C48.38029698 0.99709986 49.80002063 1.68647184 52 3 C34.415031 6.8373979 17.43602743 6.55905193 0 2 C0 1.34 0 0.68 0 0 Z " fill="#022C2B" transform="translate(704,458)"/>
<path d="M0 0 C2.36270192 3.54405288 2.71333497 5.77169086 3 10 C2.38617742 12.01684563 1.71408334 14.01643517 1 16 C0.04848775 23.00785298 -0.29068259 29.99970343 -0.5625 37.0625 C-0.60568359 38.11888672 -0.64886719 39.17527344 -0.69335938 40.26367188 C-0.79837337 42.84234879 -0.90052877 45.42110435 -1 48 C-7.84224309 37.73663537 -2.30675019 11.62333346 0 0 Z " fill="#022928" transform="translate(433,287)"/>
<path d="M0 0 C1.89709988 0.93493439 3.79262578 1.87306296 5.6875 2.8125 C6.74324219 3.33457031 7.79898438 3.85664063 8.88671875 4.39453125 C11.67961178 5.83478098 14.39751097 7.23764657 17 9 C17 9.66 17 10.32 17 11 C17.66386719 11.1959375 18.32773437 11.391875 19.01171875 11.59375 C23.21032657 13.56956544 26.35079812 16.44575203 29.8125 19.5 C30.85180664 20.39138672 30.85180664 20.39138672 31.91210938 21.30078125 C35.69233342 24.60056302 35.69233342 24.60056302 37 26 C37 26.66 37 27.32 37 28 C31.05904477 25.25802066 26.59241271 21.59241271 22 17 C14.99275561 10.8649019 7.12506442 6.44971522 -1 2 C-0.67 1.34 -0.34 0.68 0 0 Z " fill="#012524" transform="translate(625,396)"/>
<path d="M0 0 C0 0.99 0 1.98 0 3 C-11.39402654 3.63216083 -22.77441292 4.10234187 -34.1875 4.125 C-35.10539307 4.12951172 -36.02328613 4.13402344 -36.96899414 4.13867188 C-43.35835904 4.1248008 -49.64732878 3.67208644 -56 3 C-52.23419209 0.53066768 -48.49230497 0.75980484 -44.15625 0.83984375 C-43.39131226 0.84504532 -42.62637451 0.85024689 -41.83825684 0.85560608 C-39.39197604 0.87337759 -36.94611856 0.9044639 -34.5 0.9375 C-31.30211469 0.97439374 -28.10426853 1.00473342 -24.90625 1.02734375 C-23.74814819 1.03572769 -23.74814819 1.03572769 -22.56665039 1.04428101 C-17.13107985 1.05860427 -11.77531961 0.78199673 -6.36523438 0.22094727 C-4 0 -4 0 0 0 Z " fill="#1C4341" transform="translate(710,519)"/>
<path d="M0 0 C4.03790387 2.93665736 7.14226695 6.31475357 10.3515625 10.09765625 C11.39600103 11.30296801 12.47772138 12.47772138 13.60546875 13.60546875 C15 15 15 15 16.6875 17.25 C21.94618652 23.50357316 28.63660262 28.3509499 35.09375 33.30078125 C35.7228125 33.86152344 36.351875 34.42226563 37 35 C37 35.66 37 36.32 37 37 C35.68 36.67 34.36 36.34 33 36 C33 35.34 33 34.68 33 34 C32.43023437 33.74734375 31.86046875 33.4946875 31.2734375 33.234375 C23.82690498 29.19124051 17.66806747 21.76000827 11.6875 15.8125 C10.80795654 14.93996582 10.80795654 14.93996582 9.91064453 14.04980469 C0 4.1024017 0 4.1024017 0 0 Z " fill="#00201D" transform="translate(475,448)"/>
<path d="M0 0 C0 0.33 0 0.66 0 1 C-14.52912491 5.15117855 -29.02372583 5.28130554 -44 5 C-43.67 4.01 -43.34 3.02 -43 2 C-39.7 1.67 -36.4 1.34 -33 1 C-33 1.33 -33 1.66 -33 2 C-25.30087885 2.3786453 -18.15297544 1.35083687 -10.60229492 -0.02075195 C-9.41083862 -0.22897583 -9.41083862 -0.22897583 -8.1953125 -0.44140625 C-7.48391113 -0.57232666 -6.77250977 -0.70324707 -6.03955078 -0.83813477 C-3.80097404 -1.01579533 -2.13480083 -0.65711557 0 0 Z " fill="#8BB75F" transform="translate(758,448)"/>
<path d="M0 0 C5.40540541 1.40540541 5.40540541 1.40540541 7 3 C7.3125 5.375 7.3125 5.375 7 8 C5.3125 9.875 5.3125 9.875 3 11 C0.375 10.875 0.375 10.875 -2 10 C-4 7 -4 7 -3.8125 4.4375 C-3 2 -3 2 0 0 Z " fill="#00181A" transform="translate(814,197)"/>
<path d="M0 0 C4.59100857 0.57387607 8.09170091 2.54505247 12 4.875 C12.60328125 5.22691406 13.2065625 5.57882812 13.828125 5.94140625 C15.55706769 6.95246187 17.27870049 7.97598617 19 9 C20.4540625 9.80824219 20.4540625 9.80824219 21.9375 10.6328125 C22.9584375 11.30957031 22.9584375 11.30957031 24 12 C24 12.66 24 13.32 24 14 C24.99 14 25.98 14 27 14 C27 14.66 27 15.32 27 16 C27.556875 16.226875 28.11375 16.45375 28.6875 16.6875 C31.63246684 18.35896766 33.68156544 20.55276352 36 23 C32.05958772 23 31.08431643 21.65256206 28.125 19.125 C24.81154484 16.29792358 22.05132372 14.54460807 18 13 C16.04296875 11.6328125 16.04296875 11.6328125 14.1875 10.125 C10.84835695 7.52084859 7.53897016 5.64747901 3.6640625 3.95703125 C2 3 2 3 0 0 Z " fill="#022522" transform="translate(705,273)"/>
<path d="M0 0 C0.99 0.33 1.98 0.66 3 1 C-5.00055446 10.10407922 -16.2813933 15.47477835 -28 18 C-31.44921875 17.625 -31.44921875 17.625 -34 17 C-34 16.67 -34 16.34 -34 16 C-33.10539063 15.75765625 -32.21078125 15.5153125 -31.2890625 15.265625 C-20.87841717 12.37994506 -11.70709158 9.53031869 -3 3 C-2.34 3 -1.68 3 -1 3 C-0.67 2.01 -0.34 1.02 0 0 Z " fill="#012727" transform="translate(752,193)"/>
<path d="M0 0 C2.04119788 1.61594832 4.04072937 3.2856382 6 5 C6 5.66 6 6.32 6 7 C6.825 7.268125 7.65 7.53625 8.5 7.8125 C11.72431986 8.90646567 14.89641959 10.08636342 18.0703125 11.31640625 C21.57586735 12.5582526 24.83257236 13.14072977 28.546875 13.31640625 C29.39121094 13.35830078 30.23554687 13.40019531 31.10546875 13.44335938 C32.41451172 13.50233398 32.41451172 13.50233398 33.75 13.5625 C34.63816406 13.60568359 35.52632812 13.64886719 36.44140625 13.69335938 C38.62745963 13.79913615 40.81362089 13.90122546 43 14 C41 16 41 16 38.09375 16.265625 C30.81847395 16.23399336 24.0312644 15.93328986 17 14 C15.97326172 13.74283203 15.97326172 13.74283203 14.92578125 13.48046875 C8.89329376 11.64346372 4.11424556 7.72376342 0 3 C0 2.01 0 1.02 0 0 Z " fill="#001818" transform="translate(533,209)"/>
<path d="M0 0 C-2.20572474 6.0325243 -8.57968832 8.29326176 -14 11 C-22.48848318 14.23651005 -32.04106994 14.16833063 -41 14 C-41 13.34 -41 12.68 -41 12 C-39.7934375 11.86722656 -38.586875 11.73445312 -37.34375 11.59765625 C-35.72916336 11.41930075 -34.11458021 11.24091364 -32.5 11.0625 C-31.31277344 10.93198242 -31.31277344 10.93198242 -30.1015625 10.79882812 C-28.51525193 10.62329376 -26.92930632 10.44442866 -25.34375 10.26220703 C-23.78276847 10.08757222 -22.22014262 9.92705084 -20.65625 9.78076172 C-18.76269688 9.58844773 -16.87908517 9.30260043 -15 9 C-14.67 8.34 -14.34 7.68 -14 7 C-13.113125 6.731875 -12.22625 6.46375 -11.3125 6.1875 C-8.33210416 5.11905621 -7.04404358 4.3759471 -4.75 2.375 C-2 0 -2 0 0 0 Z " fill="#001C1B" transform="translate(501,138)"/>
<path d="M0 0 C0.495 1.485 0.495 1.485 1 3 C-26.84466019 12 -26.84466019 12 -33 12 C-33 11.01 -33 10.02 -33 9 C-32.42668945 8.86948242 -31.85337891 8.73896484 -31.26269531 8.60449219 C-20.6752271 6.17952454 -10.20090541 3.78045977 0 0 Z " fill="#032725" transform="translate(699,413)"/>
<path d="M0 0 C2 0 2 0 3.69140625 1.64453125 C4.30886719 2.35996094 4.92632813 3.07539063 5.5625 3.8125 C6.18253906 4.52019531 6.80257812 5.22789062 7.44140625 5.95703125 C9 8 9 8 10 11 C11.3181666 11.69617457 12.65444925 12.35834947 14 13 C15.40624982 14.2147372 16.77912828 15.46869039 18.125 16.75 C22.70056745 20.92206483 27.59143932 24.01908138 33 27 C32.01 27.66 31.02 28.32 30 29 C29.34 28.67 28.68 28.34 28 28 C28 27.34 28 26.68 28 26 C27.29875 25.7525 26.5975 25.505 25.875 25.25 C21.44315081 23.32310905 17.09679922 20.78497682 14 17 C14 16.34 14 15.68 14 15 C13.443125 14.773125 12.88625 14.54625 12.3125 14.3125 C9.33840412 12.62449964 7.27991135 10.53323483 5 8 C5 7.34 5 6.68 5 6 C4.01 5.67 3.02 5.34 2 5 C0.8125 2.4375 0.8125 2.4375 0 0 Z " fill="#001D1C" transform="translate(633,238)"/>
<path d="M0 0 C0.5053125 0.38027344 1.010625 0.76054687 1.53125 1.15234375 C-3.19609919 3.09657713 -7.8612318 5.00315642 -12.78125 6.40234375 C-19.2483104 8.46531284 -24.79570628 12.52224691 -30.46875 16.15234375 C-31.12875 16.48234375 -31.78875 16.81234375 -32.46875 17.15234375 C-32.46875 16.16234375 -32.46875 15.17234375 -32.46875 14.15234375 C-31.80875 14.15234375 -31.14875 14.15234375 -30.46875 14.15234375 C-30.46875 13.49234375 -30.46875 12.83234375 -30.46875 12.15234375 C-24.23184526 7.56916375 -17.14430232 4.39094238 -9.96875 1.58984375 C-9.28683594 1.31430664 -8.60492187 1.03876953 -7.90234375 0.75488281 C-3.05593991 -1.04927051 -3.05593991 -1.04927051 0 0 Z " fill="#012423" transform="translate(703.46875,214.84765625)"/>
<path d="M0 0 C-0.8125 2.4375 -0.8125 2.4375 -2 5 C-2.99 5.33 -3.98 5.66 -5 6 C-5 6.66 -5 7.32 -5 8 C-8.82132943 11.48945219 -13.03231242 14.44759763 -18 16 C-18.33 15.34 -18.66 14.68 -19 14 C-15.4944222 10.35186636 -11.8750037 7.23059283 -7.8125 4.1875 C-6.24435547 3.00220703 -6.24435547 3.00220703 -4.64453125 1.79296875 C-2 0 -2 0 0 0 Z " fill="#19372B" transform="translate(788,367)"/>
<path d="M0 0 C0.495 0.99 0.495 0.99 1 2 C-0.06476562 2.47308594 -1.12953125 2.94617188 -2.2265625 3.43359375 C-10.98743975 7.40013266 -19.09170422 11.70691733 -27.046875 17.1171875 C-29.66760592 18.78807679 -32.07884489 19.97218617 -35 21 C-34.49396008 18.83125748 -34.00016187 17.00032373 -33 15 C-32.34 15.33 -31.68 15.66 -31 16 C-27.44895736 14.57958294 -24.32992954 12.31202449 -21.125 10.25 C-14.39473458 6.00156259 -7.39348607 2.9263573 0 0 Z " fill="#8DB75F" transform="translate(655,367)"/>
<path d="M0 0 C2 2 2 2 2.5 4.0625 C2.665 4.701875 2.83 5.34125 3 6 C3.66 6.33 4.32 6.66 5 7 C5.33 6.34 5.66 5.68 6 5 C6 10.61 6 16.22 6 22 C5.01 21.67 4.02 21.34 3 21 C0.31564516 14.19521571 -0.36201399 7.24027974 0 0 Z " fill="#1C4637" transform="translate(781,265)"/>
<path d="M0 0 C6.3681079 2.92932963 8.46079458 7.80050601 11 14 C12.57978049 18.51365854 13.2329788 22.22393464 13 27 C12.67 27 12.34 27 12 27 C12 25.35 12 23.7 12 22 C11.34 22 10.68 22 10 22 C8.86235649 17.73383684 8 14.43513689 8 10 C7.34 10 6.68 10 6 10 C5.566875 9.236875 5.13375 8.47375 4.6875 7.6875 C2.38057313 4.01350536 -0.1954506 2.53648766 -4.3125 1.3125 C-4.869375 1.209375 -5.42625 1.10625 -6 1 C-6.33 2.32 -6.66 3.64 -7 5 C-7.66 5 -8.32 5 -9 5 C-9 3.35 -9 1.7 -9 0 C-5.81011624 -1.59494188 -3.42171253 -0.74137105 0 0 Z " fill="#002021" transform="translate(458,281)"/>
<path d="M0 0 C0.33 0.99 0.66 1.98 1 3 C-5.98141618 10.27005355 -13.81395356 15.29242254 -24.0546875 16.30078125 C-26.39655826 16.31073254 -28.67133606 16.236546 -31 16 C-27.83234819 14.23183331 -24.85070653 13.44139237 -21.3125 12.6875 C-16.27948433 11.48769798 -12.23648266 9.78778264 -7.83984375 7.0859375 C-6 6 -6 6 -3 5 C-1.8499169 3.03327085 -1.8499169 3.03327085 -1 1 C-0.67 0.67 -0.34 0.34 0 0 Z " fill="#001615" transform="translate(844,231)"/>
<path d="M0 0 C2.40625 1.53125 2.40625 1.53125 4.8125 3.0625 C6.31683594 4.01962891 6.31683594 4.01962891 7.8515625 4.99609375 C9.86762083 6.27926735 11.88328325 7.56306331 13.8984375 8.84765625 C19.24973821 12.25779886 24.61330926 15.64602275 30 19 C29.34 19.66 28.68 20.32 28 21 C26.90300781 20.31292969 25.80601562 19.62585938 24.67578125 18.91796875 C23.22136928 18.00778835 21.76694135 17.09763345 20.3125 16.1875 C19.59126953 15.73568359 18.87003906 15.28386719 18.12695312 14.81835938 C17.42119141 14.37685547 16.71542969 13.93535156 15.98828125 13.48046875 C15.30330566 13.05040527 14.61833008 12.6203418 13.91259766 12.17724609 C12.29181073 11.17961595 10.63908989 10.23415796 8.98046875 9.30078125 C8.32691406 8.87152344 7.67335938 8.44226563 7 8 C7 7.34 7 6.68 7 6 C6.21625 5.690625 5.4325 5.38125 4.625 5.0625 C2 4 2 4 0 3 C0 2.01 0 1.02 0 0 Z " fill="#001C1C" transform="translate(513,485)"/>
<path d="M0 0 C0.99 0 1.98 0 3 0 C5.74825006 20.95540671 5.74825006 20.95540671 2 29 C-0.078125 30.24609375 -0.078125 30.24609375 -2 31 C-1.7834375 30.41734375 -1.566875 29.8346875 -1.34375 29.234375 C1.98137171 19.44373886 1.34930337 10.11977526 0 0 Z " fill="#012725" transform="translate(846,199)"/>
<path d="M0 0 C1.06154297 0.01256836 1.06154297 0.01256836 2.14453125 0.02539062 C7.70271428 0.15194306 12.99675428 0.86451077 18.375 2.3125 C18.705 3.3025 19.035 4.2925 19.375 5.3125 C18.40626953 5.0959375 18.40626953 5.0959375 17.41796875 4.875 C7.72202317 2.96499157 -1.79276424 3.12737422 -11.625 3.3125 C-8.07850999 -0.13396081 -4.69593759 -0.11849562 0 0 Z " fill="#012623" transform="translate(541.625,107.6875)"/>
<path d="M0 0 C0.66 0 1.32 0 2 0 C2.16435547 0.99966797 2.16435547 0.99966797 2.33203125 2.01953125 C3.85864541 10.89375175 6.01314341 19.49894663 9 28 C6 27 6 27 4.9375 24.8828125 C3.93321336 21.92853597 2.94090478 18.97519298 2 16 C1.68417969 15.01 1.36835938 14.02 1.04296875 13 C-0.38854655 8.18906274 -1.30468066 4.95246127 0 0 Z " fill="#022627" transform="translate(476,342)"/>
<path d="M0 0 C0.66 0 1.32 0 2 0 C1.69255859 1.01320313 1.69255859 1.01320313 1.37890625 2.046875 C1.10949219 2.93890625 0.84007812 3.8309375 0.5625 4.75 C0.29566406 5.63171875 0.02882813 6.5134375 -0.24609375 7.421875 C-0.49488281 8.27265625 -0.74367188 9.1234375 -1 10 C-1.185625 10.6290625 -1.37125 11.258125 -1.5625 11.90625 C-2.17580585 14.84135655 -2.35323314 17.7604735 -2.5625 20.75 C-2.64628906 21.92046875 -2.73007812 23.0909375 -2.81640625 24.296875 C-2.87699219 25.18890625 -2.93757812 26.0809375 -3 27 C-5.9457949 21.73715694 -5.24612814 16.46493524 -4.4375 10.6875 C-3.7421932 7.06375867 -3.7421932 7.06375867 -5 4 C-3.35 3.34 -1.7 2.68 0 2 C0 1.34 0 0.68 0 0 Z " fill="#002825" transform="translate(528,361)"/>
<path d="M0 0 C0.64324219 0.4125 1.28648437 0.825 1.94921875 1.25 C2.85285156 1.8275 3.75648438 2.405 4.6875 3 C5.6775 3.63292969 6.6675 4.26585937 7.6875 4.91796875 C9.98824254 6.36407226 12.29251764 7.78339395 14.625 9.17578125 C15.21837158 9.53220703 15.81174316 9.88863281 16.4230957 10.25585938 C18.12661418 11.27603759 19.8347131 12.28855526 21.54296875 13.30078125 C22.35378906 13.86152344 23.16460938 14.42226563 24 15 C24 15.66 24 16.32 24 17 C18.3552949 15.48512707 13.95592954 12.66876226 9.125 9.5 C7.949375 8.75169922 7.949375 8.75169922 6.75 7.98828125 C6.01007812 7.50746094 5.27015625 7.02664063 4.5078125 6.53125 C3.83379395 6.09361328 3.15977539 5.65597656 2.46533203 5.20507812 C1.73999268 4.60856445 1.73999268 4.60856445 1 4 C1 3.34 1 2.68 1 2 C0.34 1.67 -0.32 1.34 -1 1 C-0.67 0.67 -0.34 0.34 0 0 Z " fill="#012622" transform="translate(668,249)"/>
<path d="M0 0 C4.7480141 -0.5140052 7.08758354 1.00692753 10.9375 3.6875 C11.98292969 4.41324219 13.02835938 5.13898438 14.10546875 5.88671875 C17.19841977 8.14486518 20.13899498 10.45688443 23 13 C22.34 13.66 21.68 14.32 21 15 C19.0625 14.9375 19.0625 14.9375 17 14 C16.34644531 12.83210938 16.34644531 12.83210938 15.6796875 11.640625 C13.76789426 8.63510818 12.14425635 7.54106409 9.0625 5.8125 C8.20785156 5.32394531 7.35320313 4.83539063 6.47265625 4.33203125 C4.33304192 3.17941121 2.18260554 2.06851455 0 1 C0 0.67 0 0.34 0 0 Z " fill="#022625" transform="translate(563,113)"/>
<path d="M0 0 C0.33 0.66 0.66 1.32 1 2 C2.66387277 2.67360939 4.33104777 3.3390759 6 4 C7.65504969 5.08030575 9.27990704 6.2079831 10.875 7.375 C14.80784781 10.19511093 18.75027473 12.6903667 23 15 C22.34 15.66 21.68 16.32 21 17 C2.21216596 7.35093956 2.21216596 7.35093956 0.1875 1.75390625 C0.125625 1.17511719 0.06375 0.59632813 0 0 Z " fill="#012422" transform="translate(514,469)"/>
<path d="M0 0 C-1.30776107 3.9232832 -2.77238389 4.24331862 -6.375 6.125 C-7.35210938 6.64320312 -8.32921875 7.16140625 -9.3359375 7.6953125 C-12 9 -12 9 -15 10 C-15 10.66 -15 11.32 -15 12 C-17.3125 14.1875 -17.3125 14.1875 -20 16 C-20.99 15.67 -21.98 15.34 -23 15 C-7.23857868 0 -7.23857868 0 0 0 Z " fill="#001B1A" transform="translate(525,121)"/>
<path d="M0 0 C3.25516428 3.16474305 6.32008793 6.32752791 9 10 C9 10.66 9 11.32 9 12 C5.60807637 11.40716379 3.7892243 10.23256811 1.25 7.9375 C0.63640625 7.38964844 0.0228125 6.84179688 -0.609375 6.27734375 C-1.06828125 5.85582031 -1.5271875 5.43429687 -2 5 C-1.125 1.125 -1.125 1.125 0 0 Z " fill="#13322C" transform="translate(746,301)"/>
<path d="M0 0 C8.82272079 2.052633 16.77048736 5.2877089 25 9 C24.01 9.66 23.02 10.32 22 11 C19.3984375 10.20703125 19.3984375 10.20703125 16.375 8.8125 C11.84651642 6.78211064 7.42392863 5.09961263 2.64453125 3.7734375 C2.10183594 3.51820313 1.55914063 3.26296875 1 3 C0.67 2.01 0.34 1.02 0 0 Z " fill="#001B16" transform="translate(684,275)"/>
<path d="M0 0 C7.1178153 2.03807293 14.06707281 4.40344742 21 7 C21 7.66 21 8.32 21 9 C15.25 8.125 15.25 8.125 13 7 C12.67 7.66 12.34 8.32 12 9 C11.41798828 8.32517578 11.41798828 8.32517578 10.82421875 7.63671875 C8.62539846 5.6639014 6.57011171 4.85108103 3.8125 3.8125 C2.91144531 3.46832031 2.01039063 3.12414062 1.08203125 2.76953125 C0.39496094 2.51558594 -0.29210937 2.26164062 -1 2 C-0.67 1.34 -0.34 0.68 0 0 Z " fill="#012B29" transform="translate(570,501)"/>
<path d="M0 0 C7.84179688 6.4453125 7.84179688 6.4453125 10 10 C10 10.66 10 11.32 10 12 C10.66 12 11.32 12 12 12 C12 12.66 12 13.32 12 14 C12.66 14 13.32 14 14 14 C15.7143618 15.95927063 17.38405168 17.95880212 19 20 C14.69478189 20 13.41517731 17.83670382 10.453125 14.91210938 C9.76734375 14.21923828 9.0815625 13.52636719 8.375 12.8125 C7.68148437 12.13896484 6.98796875 11.46542969 6.2734375 10.77148438 C5.6134375 10.11083984 4.9534375 9.45019531 4.2734375 8.76953125 C3.66935059 8.16729736 3.06526367 7.56506348 2.44287109 6.94458008 C0.73817509 4.64713445 0.36660499 2.81013326 0 0 Z " fill="#012727" transform="translate(651,433)"/>
<path d="M0 0 C0.99 0.66 1.98 1.32 3 2 C2.6257368 7.36443913 1.0040457 9.49646001 -3 13 C-3.33 13.33 -3.66 13.66 -4 14 C-8.66478085 14.42407099 -11.18464006 13.69319525 -15 11 C-14.67 10.01 -14.34 9.02 -14 8 C-13.525625 8.515625 -13.05125 9.03125 -12.5625 9.5625 C-8.57783637 11.79779911 -5.4458877 10.71918772 -1 10 C-0.67 6.7 -0.34 3.4 0 0 Z " fill="#001D1C" transform="translate(521,152)"/>
<path d="M0 0 C0 0.99 0 1.98 0 3 C-17.14893617 8.76595745 -17.14893617 8.76595745 -26 9 C-23.20170275 7.1344685 -21.36449813 6.40362014 -18.18359375 5.52734375 C-16.79043945 5.13772461 -16.79043945 5.13772461 -15.36914062 4.74023438 C-13.91797852 4.34288086 -13.91797852 4.34288086 -12.4375 3.9375 C-10.51905924 3.40665077 -8.60106682 2.8741778 -6.68359375 2.33984375 C-5.83337646 2.10644287 -4.98315918 1.87304199 -4.10717773 1.63256836 C-1.97102676 1.05683136 -1.97102676 1.05683136 0 0 Z " fill="#8FB76A" transform="translate(748,442)"/>
<path d="M0 0 C0 0.99 0 1.98 0 3 C-0.99 3.33 -1.98 3.66 -3 4 C-3 4.66 -3 5.32 -3 6 C-5.37818198 8.08984151 -8.07132117 9.78422701 -10.6875 11.5625 C-11.40873047 12.06974609 -12.12996094 12.57699219 -12.87304688 13.09960938 C-19.48582474 17.63494835 -19.48582474 17.63494835 -24 18 C-21.45182246 15.19180435 -18.55101581 13.3016898 -15.375 11.25 C-10.03587347 7.74254461 -4.96699281 4.01373156 0 0 Z " fill="#90BF60" transform="translate(831,296)"/>
<path d="M0 0 C0.33 0.99 0.66 1.98 1 3 C1.66 3 2.32 3 3 3 C3 5.97 3 8.94 3 12 C2.34 12 1.68 12 1 12 C1.01160156 12.556875 1.02320313 13.11375 1.03515625 13.6875 C1.09676433 18.89778343 0.74999344 23.8437951 0 29 C-0.33 29 -0.66 29 -1 29 C-0.67 19.43 -0.34 9.86 0 0 Z " fill="#052B29" transform="translate(517,253)"/>
<path d="M0 0 C2.76438929 2.76438929 2.96189402 5.78491165 3.625 9.5 C3.82283081 10.57507813 3.82283081 10.57507813 4.0246582 11.671875 C4.97641847 17.14495794 5.36064599 22.44338026 5 28 C4.67 28 4.34 28 4 28 C3.89042969 27.29617188 3.78085937 26.59234375 3.66796875 25.8671875 C2.5311089 18.78723102 1.11481822 11.82002517 -0.51171875 4.8359375 C-1 2 -1 2 0 0 Z " fill="#012525" transform="translate(508,246)"/>
<path d="M0 0 C1.68763874 4.06473965 0.15295103 7.40206467 -1.25 11.3125 C-1.57677734 12.2705957 -1.57677734 12.2705957 -1.91015625 13.24804688 C-3.41453433 17.58962923 -5.15030715 21.79466891 -7 26 C-8.81062392 20.80057322 -6.71281477 16.01129211 -5 11 C-3.4375 8.1875 -3.4375 8.1875 -2 6 C-1.28856912 4.01548229 -0.61008664 2.01797888 0 0 Z " fill="#93C061" transform="translate(844,359)"/>
<path d="M0 0 C7.60720933 1.05618548 13.00616994 6.39574912 17.5625 12.3125 C20 15.67479675 20 15.67479675 20 18 C19.01 17.67 18.02 17.34 17 17 C16.3125 14.9375 16.3125 14.9375 16 13 C15.34 13 14.68 13 14 13 C12.889318 11.79260954 11.83534451 10.53265169 10.8125 9.25 C7.53494693 5.36651275 4.54172912 3.22452039 0 1 C0 0.67 0 0.34 0 0 Z " fill="#00201E" transform="translate(485,220)"/>
<path d="M0 0 C-3.30998105 2.20665404 -5.82021436 2.78262095 -9.6875 3.625 C-10.86699219 3.88539063 -12.04648437 4.14578125 -13.26171875 4.4140625 C-14.61716797 4.70410156 -14.61716797 4.70410156 -16 5 C-15.67 4.01 -15.34 3.02 -15 2 C-15.66 1.34 -16.32 0.68 -17 0 C-15.10507254 -0.19644384 -13.20899097 -0.38177288 -11.3125 -0.5625 C-9.72888672 -0.71912109 -9.72888672 -0.71912109 -8.11328125 -0.87890625 C-5.18573914 -0.99277552 -2.82868856 -0.70848415 0 0 Z " fill="#0C2C2A" transform="translate(707,522)"/>
<path d="M0 0 C0.99 0.66 1.98 1.32 3 2 C0.23371889 3.19922024 -2.537155 4.38460499 -5.3125 5.5625 C-6.49102539 6.07586914 -6.49102539 6.07586914 -7.69335938 6.59960938 C-8.45068359 6.91865234 -9.20800781 7.23769531 -9.98828125 7.56640625 C-10.68477783 7.86490479 -11.38127441 8.16340332 -12.09887695 8.47094727 C-14 9 -14 9 -17 8 C-16 6 -16 6 -13.41796875 5 C-12.35191406 4.67 -11.28585937 4.34 -10.1875 4 C-6.62328448 2.88862464 -3.28640704 1.78245805 0 0 Z " fill="#032725" transform="translate(724,404)"/>
<path d="M0 0 C3.81489906 0.57093727 5.67465214 2.26058937 8.4375 4.875 C11.45815445 7.72229515 14.37461064 9.96671285 18 12 C17.34 12.66 16.68 13.32 16 14 C4.29384966 5.92255125 4.29384966 5.92255125 0 0 Z " fill="#00201F" transform="translate(674,438)"/>
<path d="M0 0 C0.721875 0.45375 1.44375 0.9075 2.1875 1.375 C4.89242316 3.05033016 4.89242316 3.05033016 7.625 3.9375 C10.377769 5.16900192 11.40640227 6.48379306 13 9 C9.0377786 9 8.23454077 8.80753749 5 7 C3.9275 6.46375 2.855 5.9275 1.75 5.375 C0.8425 4.92125 -0.065 4.4675 -1 4 C-0.67 2.68 -0.34 1.36 0 0 Z " fill="#0A3531" transform="translate(733,292)"/>
<path d="M0 0 C0.625 2.875 0.625 2.875 1 6 C0.34 6.66 -0.32 7.32 -1 8 C-1 6.35 -1 4.7 -1 3 C-5.69564393 6.31457218 -8.72469104 10.36279281 -12 15 C-12.83203125 13.359375 -12.83203125 13.359375 -13 11 C-11.28556989 8.85771037 -9.67012184 7.10825073 -7.6875 5.25 C-7.17509766 4.74339844 -6.66269531 4.23679687 -6.13476562 3.71484375 C-2.29475868 0 -2.29475868 0 0 0 Z " fill="#95C067" transform="translate(844,265)"/>
<path d="M0 0 C1.33333333 1.33333333 2.66666667 2.66666667 4 4 C4.515625 4.45375 5.03125 4.9075 5.5625 5.375 C7.58423187 7.66043602 8.6594653 10.2653092 10 13 C11.27876673 15.04324685 12.62982437 17.01560771 14 19 C9.96369732 17.47275034 8.21014954 14.96243269 5.75 11.5 C4.69039062 10.03046875 4.69039062 10.03046875 3.609375 8.53125 C2 6 2 6 2 4 C1.34 4 0.68 4 0 4 C0 2.68 0 1.36 0 0 Z " fill="#002221" transform="translate(619,218)"/>
<path d="M0 0 C0 0.99 0 1.98 0 3 C-0.63091553 2.99476318 -1.26183105 2.98952637 -1.91186523 2.98413086 C-4.75373347 2.96342174 -7.59558588 2.95035934 -10.4375 2.9375 C-11.43072266 2.92912109 -12.42394531 2.92074219 -13.44726562 2.91210938 C-14.39150391 2.90888672 -15.33574219 2.90566406 -16.30859375 2.90234375 C-17.18314209 2.89710693 -18.05769043 2.89187012 -18.95874023 2.88647461 C-20.99440206 2.77215191 -20.99440206 2.77215191 -22 4 C-23.66617115 4.04063832 -25.33388095 4.042721 -27 4 C-26.34 3.01 -25.68 2.02 -25 1 C-22.04349944 0.61075219 -19.27910529 0.39510237 -16.3125 0.3125 C-15.12624023 0.26125977 -15.12624023 0.26125977 -13.91601562 0.20898438 C-9.27548934 0.02121742 -4.64383442 -0.03108323 0 0 Z " fill="#0B3837" transform="translate(474,135)"/>
<path d="M0 0 C7.44379088 2.23313726 14.11976695 5.40272079 21 9 C18.06891108 10.23980045 16.98688718 9.99509316 13.94140625 8.85546875 C12.82636719 8.30503906 11.71132813 7.75460937 10.5625 7.1875 C6.74419812 5.3248058 2.96853941 3.52065529 -1 2 C-0.67 1.34 -0.34 0.68 0 0 Z " fill="#001A18" transform="translate(710,285)"/>
<path d="M0 0 C0.33 0.66 0.66 1.32 1 2 C0.20335937 2.17015625 -0.59328125 2.3403125 -1.4140625 2.515625 C-7.47740739 3.90237541 -12.0566283 5.22742686 -17 9 C-17.66 9 -18.32 9 -19 9 C-19 8.34 -19 7.68 -19 7 C-16.91796875 5.52734375 -16.91796875 5.52734375 -14.1875 3.9375 C-13.29417969 3.41027344 -12.40085937 2.88304687 -11.48046875 2.33984375 C-7.47771321 0.1777254 -4.49128454 -0.09980632 0 0 Z " fill="#001916" transform="translate(812,247)"/>
<path d="M0 0 C0.66 0.33 1.32 0.66 2 1 C1.67 1.66 1.34 2.32 1 3 C0.34 3 -0.32 3 -1 3 C-1 3.66 -1 4.32 -1 5 C-2.65 5.66 -4.3 6.32 -6 7 C-6 7.66 -6 8.32 -6 9 C-8.95664519 10.4783226 -11.74229737 10.06032783 -15 10 C-12.87935495 6.81903242 -12.57325104 6.60476753 -9.1875 5.5625 C-5.50243012 4.30058172 -2.91245794 2.63941501 0 0 Z " fill="#052B2B" transform="translate(588,200)"/>
<path d="M0 0 C1.98 0.99 1.98 0.99 4 2 C4 2.99 4 3.98 4 5 C4.66 5 5.32 5 6 5 C7.7265625 6.86328125 7.7265625 6.86328125 9.625 9.3125 C10.57246094 10.51326172 10.57246094 10.51326172 11.5390625 11.73828125 C13 14 13 14 13 17 C12.67 16.34 12.34 15.68 12 15 C11.40703125 14.7421875 10.8140625 14.484375 10.203125 14.21875 C7.16702386 12.53920469 5.74970007 10.31439269 3.75 7.5 C3.04359375 6.5203125 2.3371875 5.540625 1.609375 4.53125 C0 2 0 2 0 0 Z " fill="#002423" transform="translate(631,211)"/>
<path d="M0 0 C0.99 0.33 1.98 0.66 3 1 C2.505 1.70125 2.01 2.4025 1.5 3.125 C-0.24138649 6.46265743 -0.38721974 8.28269045 0 12 C0.91257306 14.78566059 0.91257306 14.78566059 2 17 C1.34 17.33 0.68 17.66 0 18 C-3.18961725 13.15178178 -3.14858996 9.70759161 -2.51953125 4.171875 C-2 2 -2 2 0 0 Z " fill="#012927" transform="translate(433,135)"/>
<path d="M0 0 C0.99 0.495 0.99 0.495 2 1 C2.50595838 2.85518074 3.00035322 4.71455698 3.42578125 6.58984375 C4.42435045 10.7811172 5.73450886 14.88293549 7 19 C6.01 19 5.02 19 4 19 C-0.59225513 6.51480638 -0.59225513 6.51480638 0 0 Z " fill="#002924" transform="translate(438,374)"/>
<path d="M0 0 C3.91211733 1.15585285 6.8745041 2.35534962 10 5 C10.33 4.34 10.66 3.68 11 3 C11.99 3.66 12.98 4.32 14 5 C13.67 6.32 13.34 7.64 13 9 C8.02790438 7.23570801 3.56561939 4.6060834 -1 2 C-0.67 1.34 -0.34 0.68 0 0 Z " fill="#052822" transform="translate(732,296)"/>
<path d="M0 0 C0 1.98 0 3.96 0 6 C-0.33 5.01 -0.66 4.02 -1 3 C-1.86625 3.495 -1.86625 3.495 -2.75 4 C-5 5 -5 5 -9 5 C-9 5.66 -9 6.32 -9 7 C-10.32 7.33 -11.64 7.66 -13 8 C-13 6.68 -13 5.36 -13 4 C-11.39850114 3.32694982 -9.79368971 2.66177773 -8.1875 2 C-7.29417969 1.62875 -6.40085937 1.2575 -5.48046875 0.875 C-3 0 -3 0 0 0 Z " fill="#042827" transform="translate(802,158)"/>
<path d="M0 0 C0.66 0.66 1.32 1.32 2 2 C0.38405168 4.04119788 -1.2856382 6.04072937 -3 8 C-3.66 8 -4.32 8 -5 8 C-5 8.66 -5 9.32 -5 10 C-6.62626404 11.38232443 -8.2925002 12.71937515 -10 14 C-10.33 13.01 -10.66 12.02 -11 11 C-9.37660195 9.29115995 -7.70680947 7.62553283 -6 6 C-5.34 6 -4.68 6 -4 6 C-3.71125 5.38125 -3.4225 4.7625 -3.125 4.125 C-2 2 -2 2 0 0 Z " fill="#03292A" transform="translate(529,343)"/>
<path d="M0 0 C0.66 0.66 1.32 1.32 2 2 C1.34 3.32 0.68 4.64 0 6 C-0.66 6 -1.32 6 -2 6 C-2.144375 6.763125 -2.28875 7.52625 -2.4375 8.3125 C-3 11 -3 11 -4 14 C-4.99 14.33 -5.98 14.66 -7 15 C-5 6.42857143 -5 6.42857143 -3 3 C-2.34 3 -1.68 3 -1 3 C-0.67 2.01 -0.34 1.02 0 0 Z " fill="#032423" transform="translate(550,165)"/>
<path d="M0 0 C1.69458607 1.64474531 3.35614246 3.30530151 5 5 C5.56203125 5.5775 6.1240625 6.155 6.703125 6.75 C7.25484375 7.348125 7.8065625 7.94625 8.375 8.5625 C8.89835938 9.12066406 9.42171875 9.67882812 9.9609375 10.25390625 C11 12 11 12 10.6640625 14.21484375 C10.44492187 14.80394531 10.22578125 15.39304688 10 16 C8.3243583 13.90245565 6.65949806 11.79775361 5 9.6875 C4.52304687 9.09259766 4.04609375 8.49769531 3.5546875 7.88476562 C0 3.33984375 0 3.33984375 0 0 Z " fill="#022323" transform="translate(587,128)"/>
<path d="M0 0 C0.33 0.66 0.66 1.32 1 2 C0.3503125 3.175625 0.3503125 3.175625 -0.3125 4.375 C-2.65844797 9.41444379 -3.24704612 14.52558241 -4 20 C-4.33 20 -4.66 20 -5 20 C-6.4190941 12.66801381 -5.69242536 7.57590947 -2 1 C-1.34 0.67 -0.68 0.34 0 0 Z " fill="#012221" transform="translate(514,363)"/>
<path d="M0 0 C0.68620031 1.32338632 1.34786461 2.65949948 2 4 C2.391875 4.78375 2.78375 5.5675 3.1875 6.375 C4.18282829 9.59067601 3.75410503 11.75734838 3 15 C2.01 14.67 1.02 14.34 0 14 C-0.19393875 11.85473901 -0.37998676 9.70876323 -0.5625 7.5625 C-0.71912109 5.77005859 -0.71912109 5.77005859 -0.87890625 3.94140625 C-0.91886719 2.97074219 -0.95882812 2.00007812 -1 1 C-0.67 0.67 -0.34 0.34 0 0 Z " fill="#042927" transform="translate(514,231)"/>
<path d="M0 0 C2.125 0.375 2.125 0.375 4 1 C4.625 2.875 4.625 2.875 5 5 C4.34 5.66 3.68 6.32 3 7 C0.875 6.625 0.875 6.625 -1 6 C-1.625 4.125 -1.625 4.125 -2 2 C-1.34 1.34 -0.68 0.68 0 0 Z " fill="#0C3438" transform="translate(814,199)"/>
<path d="M0 0 C0 0.66 0 1.32 0 2 C-2.01171875 3.4375 -2.01171875 3.4375 -4.6875 5 C-5.55761719 5.515625 -6.42773438 6.03125 -7.32421875 6.5625 C-9.83647195 7.91214843 -12.33203915 9.00011557 -15 10 C-14.49396008 7.83125748 -14.00016187 6.00032373 -13 4 C-12.34 4.33 -11.68 4.66 -11 5 C-8.62689225 4.01802438 -6.55983773 2.72751859 -4.375 1.375 C-2 0 -2 0 0 0 Z " fill="#669750" transform="translate(635,378)"/>
<path d="M0 0 C0.80824219 0.10183594 1.61648438 0.20367187 2.44921875 0.30859375 C3.06410156 0.39238281 3.67898438 0.47617188 4.3125 0.5625 C3.9825 1.5525 3.6525 2.5425 3.3125 3.5625 C2.6525 3.2325 1.9925 2.9025 1.3125 2.5625 C-2.06107334 2.06179679 -2.06107334 2.06179679 -5.6875 2.5625 C-8.62723281 4.91668376 -8.62723281 4.91668376 -10.6875 7.5625 C-10.6875 3.5625 -10.6875 3.5625 -9.375 1.875 C-6.22832613 -0.57241301 -3.76893543 -0.49160027 0 0 Z " fill="#001F20" transform="translate(515.6875,146.4375)"/>
<path d="M0 0 C0 0.66 0 1.32 0 2 C-5.91382675 4.8018492 -11.630594 7.44303409 -18 9 C-17.67 8.01 -17.34 7.02 -17 6 C-14.12890625 4.6484375 -14.12890625 4.6484375 -10.5625 3.375 C-8.80099609 2.73691406 -8.80099609 2.73691406 -7.00390625 2.0859375 C-5.51697266 1.54839844 -5.51697266 1.54839844 -4 1 C-2 0 -2 0 0 0 Z " fill="#8BB85C" transform="translate(785,437)"/>
<path d="M0 0 C-3.60255121 1.94683323 -7.39538937 3.27745319 -11.25 4.625 C-11.8996875 4.85445313 -12.549375 5.08390625 -13.21875 5.3203125 C-14.81168438 5.88252463 -16.40573229 6.44158003 -18 7 C-18 6.01 -18 5.02 -18 4 C-17.33613281 3.80664062 -16.67226563 3.61328125 -15.98828125 3.4140625 C-10.45150926 1.7933877 -10.45150926 1.7933877 -5.0625 -0.25 C-3 -1 -3 -1 0 0 Z " fill="#8FBB5F" transform="translate(677,361)"/>
<path d="M0 0 C5.37644719 0.62035929 8.9441564 4.86293767 12.4375 8.625 C12.953125 9.40875 13.46875 10.1925 14 11 C13.67 11.99 13.34 12.98 13 14 C12.484375 13.319375 11.96875 12.63875 11.4375 11.9375 C8.49829672 8.39538323 5.28776736 5.21488581 2 2 C1.34 1.34 0.68 0.68 0 0 Z " fill="#00211F" transform="translate(569,128)"/>
<path d="M0 0 C-6.04930573 3.62958344 -13.18051258 3.13917321 -20 3 C-20 2.67 -20 2.34 -20 2 C-18.02 1.67 -16.04 1.34 -14 1 C-14 0.67 -14 0.34 -14 0 C-4.58997722 -1.33257403 -4.58997722 -1.33257403 0 0 Z " fill="#012120" transform="translate(756,460)"/>
<path d="M0 0 C0.33 1.32 0.66 2.64 1 4 C-2.63 6.31 -6.26 8.62 -10 11 C-10.33 10.01 -10.66 9.02 -11 8 C-9.02 7.01 -7.04 6.02 -5 5 C-5 4.34 -5 3.68 -5 3 C-4.360625 2.87625 -3.72125 2.7525 -3.0625 2.625 C-2.381875 2.41875 -1.70125 2.2125 -1 2 C-0.67 1.34 -0.34 0.68 0 0 Z " fill="#042721" transform="translate(773,453)"/>
<path d="M0 0 C4.97093824 0.41153737 9.44508386 0.79600832 14 3 C14 3.66 14 4.32 14 5 C14.66 5.33 15.32 5.66 16 6 C10.30860098 4.90301833 5.25432063 3.45946923 0 1 C0 0.67 0 0.34 0 0 Z " fill="#022425" transform="translate(598,387)"/>
<path d="M0 0 C3.7602985 0.58107632 6.53035032 1.65199496 9.8125 3.5625 C10.60269531 4.01753906 11.39289062 4.47257812 12.20703125 4.94140625 C12.79871094 5.29074219 13.39039063 5.64007813 14 6 C14 6.66 14 7.32 14 8 C10.7 7.01 7.4 6.02 4 5 C4 4.34 4 3.68 4 3 C2.68 2.34 1.36 1.68 0 1 C0 0.67 0 0.34 0 0 Z " fill="#042A29" transform="translate(561,371)"/>
<path d="M0 0 C2.15377564 2.62198774 3.40072174 4.64404172 4 8 C4.66 8 5.32 8 6 8 C6 8.66 6 9.32 6 10 C6.66 10.33 7.32 10.66 8 11 C7.01 11.33 6.02 11.66 5 12 C-1 6 -1 6 -1.1875 3.4375 C-1 1 -1 1 0 0 Z " fill="#042828" transform="translate(552,357)"/>
<path d="M0 0 C0.99 0.66 1.98 1.32 3 2 C-1.50332676 5.00221784 -5.57767579 6.31896025 -11 6 C-11.33 5.34 -11.66 4.68 -12 4 C-11.21753906 3.79503906 -10.43507813 3.59007812 -9.62890625 3.37890625 C-8.61699219 3.10949219 -7.60507812 2.84007812 -6.5625 2.5625 C-5.55316406 2.29566406 -4.54382813 2.02882813 -3.50390625 1.75390625 C-1.08247999 1.24021923 -1.08247999 1.24021923 0 0 Z " fill="#95C16C" transform="translate(740,325)"/>
<path d="M0 0 C1.5 1.25 1.5 1.25 3 3 C3 4.32 3 5.64 3 7 C5.97 7.495 5.97 7.495 9 8 C9 8.66 9 9.32 9 10 C6.69 10 4.38 10 2 10 C2 9.34 2 8.68 2 8 C1.34 8 0.68 8 0 8 C0 5.36 0 2.72 0 0 Z " fill="#022726" transform="translate(802,165)"/>
<path d="M0 0 C-4.62 2.97 -9.24 5.94 -14 9 C-14.66 8.34 -15.32 7.68 -16 7 C-14.35 6.34 -12.7 5.68 -11 5 C-11 4.34 -11 3.68 -11 3 C-4.5 -1.125 -4.5 -1.125 0 0 Z " fill="#002424" transform="translate(788,166)"/>
<path d="M0 0 C0.66 0.66 1.32 1.32 2 2 C1.67 2.66 1.34 3.32 1 4 C0.34 4 -0.32 4 -1 4 C-1.2475 4.7425 -1.495 5.485 -1.75 6.25 C-3.09147301 9.20124062 -4.60905526 10.84814974 -7 13 C-7 9.40239524 -6.10487704 8.7784377 -4 6 C-3.835 5.29875 -3.67 4.5975 -3.5 3.875 C-3 2 -3 2 0 0 Z " fill="#022725" transform="translate(559,151)"/>
<path d="M0 0 C0.66 0.33 1.32 0.66 2 1 C2.66 1 3.32 1 4 1 C4.66 1.33 5.32 1.66 6 2 C2.5516612 5.17247169 -0.42114081 5.50940794 -5 6 C-6.33917261 6.30903983 -7.67653254 6.62942911 -9 7 C-6.25604436 4.05278838 -3.61662784 1.80831392 0 0 Z " fill="#1A392E" transform="translate(768,380)"/>
<path d="M0 0 C0 0.33 0 0.66 0 1 C-0.67546875 1.10957031 -1.3509375 1.21914062 -2.046875 1.33203125 C-2.93890625 1.49058594 -3.8309375 1.64914063 -4.75 1.8125 C-5.63171875 1.96332031 -6.5134375 2.11414063 -7.421875 2.26953125 C-10.20000356 3.05666768 -11.76130354 4.22364302 -14 6 C-14.66 6 -15.32 6 -16 6 C-14.96260081 2.65726926 -13.92420935 1.95690336 -10.8125 0.1875 C-6.66846418 -1.10326526 -4.19066661 -0.94076189 0 0 Z " fill="#002322" transform="translate(807,240)"/>
<path d="M0 0 C0.66 0 1.32 0 2 0 C1.34 1.65 0.68 3.3 0 5 C-0.66 5 -1.32 5 -2 5 C-2 5.66 -2 6.32 -2 7 C-2.66 7 -3.32 7 -4 7 C-3.67 7.99 -3.34 8.98 -3 10 C-4.98 10.99 -4.98 10.99 -7 12 C-5.6393389 6.80474854 -3.64232612 3.82444243 0 0 Z " fill="#8BBB5F" transform="translate(630,373)"/>
<path d="M0 0 C2.0416723 2.57895449 3.9202111 5.26805891 5.75 8 C6.19859375 8.66 6.6471875 9.32 7.109375 10 C8.19676574 12.44185991 7.90179999 13.53654637 7 16 C0.48063781 6.77448747 0.48063781 6.77448747 -1 1 C-0.67 0.67 -0.34 0.34 0 0 Z " fill="#012827" transform="translate(498,365)"/>
<path d="M0 0 C0.33 0.99 0.66 1.98 1 3 C-0.42915851 4.34227046 -1.86862672 5.67357096 -3.3125 7 C-4.51326172 8.11375 -4.51326172 8.11375 -5.73828125 9.25 C-8 11 -8 11 -11 11 C-11 10.34 -11 9.68 -11 9 C-5.58823529 5 -5.58823529 5 -3 5 C-2.690625 4.360625 -2.38125 3.72125 -2.0625 3.0625 C-1 1 -1 1 0 0 Z " fill="#00201F" transform="translate(844,231)"/>
<path d="M0 0 C4.38889325 0.66498383 7.9811485 2.18757677 12 4 C12 4.66 12 5.32 12 6 C12.99 6.33 13.98 6.66 15 7 C9.77999416 6.47799942 5.41286212 4.79095098 1 2 C0.67 1.34 0.34 0.68 0 0 Z " fill="#012522" transform="translate(456,195)"/>
<path d="M0 0 C0.66 0.33 1.32 0.66 2 1 C-0.97 5.29 -3.94 9.58 -7 14 C-7.99 13.67 -8.98 13.34 -10 13 C-5.05 6.565 -5.05 6.565 0 0 Z " fill="#90BC63" transform="translate(828,397)"/>
<path d="M0 0 C0.66 0 1.32 0 2 0 C2.33 3.96 2.66 7.92 3 12 C2.01 12 1.02 12 0 12 C-0.19477739 10.37585622 -0.38059458 8.75063577 -0.5625 7.125 C-0.66691406 6.22007812 -0.77132813 5.31515625 -0.87890625 4.3828125 C-1 2 -1 2 0 0 Z " fill="#0C3636" transform="translate(444,356)"/>
<path d="M0 0 C0 0.66 0 1.32 0 2 C-5.36000789 4.25684543 -9.1977825 5.36263859 -15 5 C-12.18178397 3.12118931 -10.14357281 2.30990783 -6.9375 1.375 C-6.05964844 1.11460937 -5.18179688 0.85421875 -4.27734375 0.5859375 C-2 0 -2 0 0 0 Z " fill="#90BB5F" transform="translate(760,335)"/>
<path d="M0 0 C2.97 0.33 5.94 0.66 9 1 C9 1.33 9 1.66 9 2 C6.69 2.33 4.38 2.66 2 3 C1.01 5.64 0.02 8.28 -1 11 C-1.66 10.67 -2.32 10.34 -3 10 C-1.125 2.25 -1.125 2.25 0 0 Z " fill="#032724" transform="translate(440,265)"/>
<path d="M0 0 C-0.5 2.3125 -0.5 2.3125 -2 5 C-4.5690412 6.34219295 -7.21813439 7.20425705 -10 8 C-8.48502075 3.75805811 -4.70198172 0 0 0 Z " fill="#4E6B4C" transform="translate(788,367)"/>
<path d="M0 0 C-0.99 0.33 -1.98 0.66 -3 1 C-3 1.99 -3 2.98 -3 4 C-5.64 4 -8.28 4 -11 4 C-10.67 3.01 -10.34 2.02 -10 1 C-6.59437148 0.22157062 -3.49234244 -0.09978121 0 0 Z " fill="#78A755" transform="translate(725,449)"/>
<path d="M0 0 C0.66 0.33 1.32 0.66 2 1 C2 1.66 2 2.32 2 3 C0.13671875 4.54296875 0.13671875 4.54296875 -2.3125 6.1875 C-3.11300781 6.73792969 -3.91351562 7.28835938 -4.73828125 7.85546875 C-5.48464844 8.23316406 -6.23101563 8.61085938 -7 9 C-7.99 8.67 -8.98 8.34 -10 8 C-6.98112756 4.51668565 -4.43090471 3.20842856 0 2 C0 1.34 0 0.68 0 0 Z " fill="#032620" transform="translate(763,387)"/>
<path d="M0 0 C1.32 0.33 2.64 0.66 4 1 C4 1.66 4 2.32 4 3 C4.66 3 5.32 3 6 3 C6 3.66 6 4.32 6 5 C8.475 5.99 8.475 5.99 11 7 C11 7.66 11 8.32 11 9 C11.66 9.33 12.32 9.66 13 10 C8.87731395 10 7.79669528 8.32277298 4.8125 5.5625 C3.91144531 4.73878906 3.01039063 3.91507813 2.08203125 3.06640625 C1.39496094 2.38449219 0.70789063 1.70257813 0 1 C0 0.67 0 0.34 0 0 Z " fill="#002222" transform="translate(650,235)"/>
<path d="M0 0 C1.67110042 2.96178773 2.32682752 5.37071192 2.625 8.75 C2.69976563 9.54921875 2.77453125 10.3484375 2.8515625 11.171875 C2.90054688 11.77515625 2.94953125 12.3784375 3 13 C2.01 13 1.02 13 0 13 C-0.83796731 8.34462607 -1.0161692 4.62921525 0 0 Z " fill="#133C39" transform="translate(512,287)"/>
<path d="M0 0 C0.33 0 0.66 0 1 0 C1 3.3 1 6.6 1 10 C0.01 9.67 -0.98 9.34 -2 9 C-3.1875 5.4375 -3.1875 5.4375 -4 2 C-3.01 2 -2.02 2 -1 2 C-0.67 1.34 -0.34 0.68 0 0 Z " fill="#548651" transform="translate(786,277)"/>
<path d="M0 0 C2.6074028 -0.38344159 4.38063153 -0.374232 6.66796875 1.0078125 C8.3125 2.3125 8.3125 2.3125 11 5 C11 5.99 11 6.98 11 8 C9 8 9 8 6.625 5.6875 C5.75875 4.800625 4.8925 3.91375 4 3 C2.68824014 1.97186389 1.3630107 0.95915568 0 0 Z " fill="#032828" transform="translate(464,269)"/>
<path d="M0 0 C0.99 0.33 1.98 0.66 3 1 C1.625 2.5 1.625 2.5 0 4 C-0.66 4 -1.32 4 -2 4 C-2.66 5.32 -3.32 6.64 -4 8 C-4.99 7.34 -5.98 6.68 -7 6 C-5.1875 4 -5.1875 4 -3 2 C-2.01 2 -1.02 2 0 2 C0 1.34 0 0.68 0 0 Z " fill="#032624" transform="translate(513,114)"/>
<path d="M0 0 C5.0302076 0.52537724 10.01885239 1.10594786 15 2 C15 2.33 15 2.66 15 3 C9.15659442 4.24327778 4.73303505 3.57300962 -1 2 C-0.67 1.34 -0.34 0.68 0 0 Z " fill="#001515" transform="translate(597,525)"/>
<path d="M0 0 C0.99 0 1.98 0 3 0 C4.65 2.97 6.3 5.94 8 9 C7.34 9.66 6.68 10.32 6 11 C5.0234375 9.2421875 4.046875 7.484375 3.0703125 5.7265625 C1.99102726 3.8387386 1.99102726 3.8387386 0 2 C0 1.34 0 0.68 0 0 Z " fill="#022523" transform="translate(623,199)"/>
<path d="M0 0 C3.28788824 3.11016455 5.83735988 6.01618925 8 10 C6.25 9.875 6.25 9.875 4 9 C0 3.88888889 0 3.88888889 0 0 Z " fill="#00211F" transform="translate(467,437)"/>
<path d="M0 0 C0.598125 0.165 1.19625 0.33 1.8125 0.5 C4.11344336 1.1114124 4.11344336 1.1114124 7 1 C7.66 2.65 8.32 4.3 9 6 C4.75177626 5.52797514 2.80010291 3.03344482 0 0 Z " fill="#3C5C3E" transform="translate(746,307)"/>
<path d="M0 0 C0.69867188 0.18175781 1.39734375 0.36351562 2.1171875 0.55078125 C3.17292969 0.80408203 3.17292969 0.80408203 4.25 1.0625 C5.11238281 1.45888672 5.11238281 1.45888672 5.9921875 1.86328125 C6.3221875 2.85328125 6.6521875 3.84328125 6.9921875 4.86328125 C1.0521875 3.37828125 1.0521875 3.37828125 -5.0078125 1.86328125 C-2.0078125 -0.13671875 -2.0078125 -0.13671875 0 0 Z " fill="#022223" transform="translate(479.0078125,202.13671875)"/>
<path d="M0 0 C4.23429756 1.31061591 8.07407404 2.94356259 12 5 C11.34 5.66 10.68 6.32 10 7 C8.70359622 6.40606618 7.41301161 5.79942011 6.125 5.1875 C5.40570312 4.85105469 4.68640625 4.51460938 3.9453125 4.16796875 C2 3 2 3 0 0 Z " fill="#001413" transform="translate(671,269)"/>
<path d="M0 0 C2.9375 1.125 2.9375 1.125 3.9375 2.125 C3.97813832 3.79117115 3.980221 5.45888095 3.9375 7.125 C3.6075 5.805 3.2775 4.485 2.9375 3.125 C-1.59390653 2.19119039 -1.59390653 2.19119039 -6.0625 3.125 C-5.7325 2.135 -5.4025 1.145 -5.0625 0.125 C-3.0625 -0.875 -3.0625 -0.875 0 0 Z " fill="#012123" transform="translate(817.0625,197.875)"/>
<path d="M0 0 C0.66 0 1.32 0 2 0 C5 3.46153846 5 3.46153846 5 6 C5.66 6 6.32 6 7 6 C7.33 7.32 7.66 8.64 8 10 C3.79236776 8.4972742 2.1972242 5.76667005 0 2 C0 1.34 0 0.68 0 0 Z " fill="#022626" transform="translate(447,185)"/>
<path d="M0 0 C0.66 0.66 1.32 1.32 2 2 C-0.21928194 4.90802461 -1.92969143 6.95312762 -5 9 C-5.99 8.67 -6.98 8.34 -8 8 C-6.68 7.34 -5.36 6.68 -4 6 C-4 5.34 -4 4.68 -4 4 C-3.34 4 -2.68 4 -2 4 C-2 3.34 -2 2.68 -2 2 C-1.34 2 -0.68 2 0 2 C0 1.34 0 0.68 0 0 Z " fill="#01211F" transform="translate(762,183)"/>
<path d="M0 0 C3.3 0.99 6.6 1.98 10 3 C9.67 3.66 9.34 4.32 9 5 C5.44219804 4.39009109 2.3171411 3.4216319 -1 2 C-0.67 1.34 -0.34 0.68 0 0 Z " fill="#01241F" transform="translate(570,501)"/>
<path d="M0 0 C0.99 0 1.98 0 3 0 C3.125 2.375 3.125 2.375 3 5 C2.34 5.66 1.68 6.32 1 7 C0.30251417 8.31747324 -0.36959957 9.64914193 -1 11 C-1.125 3.375 -1.125 3.375 0 0 Z " fill="#0F3639" transform="translate(594,180)"/>
<path d="M0 0 C2.53833449 1.26916725 2.89400901 2.41624809 4.125 4.9375 C4.47820312 5.64777344 4.83140625 6.35804688 5.1953125 7.08984375 C6 9 6 9 6 11 C5.34 11 4.68 11 4 11 C0 4.5 0 4.5 0 0 Z " fill="#002325" transform="translate(485,371)"/>
<path d="M0 0 C0 0.66 0 1.32 0 2 C-3.3 2.33 -6.6 2.66 -10 3 C-10 2.34 -10 1.68 -10 1 C-3.375 -1.125 -3.375 -1.125 0 0 Z " fill="#92C36C" transform="translate(691,341)"/>
<path d="M0 0 C0.66 0.66 1.32 1.32 2 2 C-2.95 4.475 -2.95 4.475 -8 7 C-8 6.01 -8 5.02 -8 4 C-5.36 2.68 -2.72 1.36 0 0 Z " fill="#8FBC5D" transform="translate(795,319)"/>
<path d="M0 0 C3.31562557 0.55260426 6.15062207 1.16825705 9 3 C9.33 3.99 9.66 4.98 10 6 C6.40992874 4.66654496 3.20429093 3.1056769 0 1 C0 0.67 0 0.34 0 0 Z " fill="#012828" transform="translate(694,267)"/>
<path d="M0 0 C0.66 0 1.32 0 2 0 C2.625 2.875 2.625 2.875 3 6 C2.34 6.66 1.68 7.32 1 8 C1 6.35 1 4.7 1 3 C-0.65 3.66 -2.3 4.32 -4 5 C-2.71937515 3.2925002 -1.38232443 1.62626404 0 0 Z " fill="#82B166" transform="translate(842,265)"/>
<path d="M0 0 C0.98484375 0.11085937 1.9696875 0.22171875 2.984375 0.3359375 C3.73203125 0.43132812 4.4796875 0.52671875 5.25 0.625 C5.25 0.955 5.25 1.285 5.25 1.625 C0.01528314 2.38112577 -4.52254141 2.8313366 -9.75 1.625 C-6.30824478 -0.52199969 -3.9779708 -0.47356795 0 0 Z " fill="#042A2A" transform="translate(810.75,238.375)"/>
<path d="M0 0 C2.98321607 1.98881071 4.84921651 3.54764954 6 7 C5.71152468 8.34375254 5.383024 9.68008277 5 11 C4.16151196 9.54462432 3.32936066 8.08559627 2.5 6.625 C1.80390625 5.40683594 1.80390625 5.40683594 1.09375 4.1640625 C0 2 0 2 0 0 Z " fill="#032725" transform="translate(617,187)"/>
<path d="M0 0 C3.53586014 3.17320782 5.58578031 5.16743695 6 10 C5.01 9.67 4.02 9.34 3 9 C2.05078125 6.93359375 2.05078125 6.93359375 1.3125 4.4375 C1.06113281 3.61121094 0.80976562 2.78492188 0.55078125 1.93359375 C0.36902344 1.29550781 0.18726563 0.65742188 0 0 Z " fill="#002122" transform="translate(583,142)"/>
<path d="M0 0 C0.99 0.33 1.98 0.66 3 1 C0.6875 3.5 0.6875 3.5 -2 6 C-2.99 6 -3.98 6 -5 6 C-3.35 4.02 -1.7 2.04 0 0 Z " fill="#062526" transform="translate(500,122)"/>
<path d="M0 0 C4.95 1.98 4.95 1.98 10 4 C9.34 4.66 8.68 5.32 8 6 C5.36 5.01 2.72 4.02 0 3 C0 2.01 0 1.02 0 0 Z " fill="#022724" transform="translate(555,494)"/>
<path d="M0 0 C0 3 0 3 -2.3125 5.6875 C-5 8 -5 8 -8 8 C-8 7.34 -8 6.68 -8 6 C-6.35 5.34 -4.7 4.68 -3 4 C-3 3.34 -3 2.68 -3 2 C-2.01 1.34 -1.02 0.68 0 0 Z " fill="#90C166" transform="translate(815,414)"/>
<path d="M0 0 C3.16717283 1.58358642 4.73268318 2.45263699 6.3125 5.6875 C6.539375 6.450625 6.76625 7.21375 7 8 C6.01 8 5.02 8 4 8 C3.731875 7.401875 3.46375 6.80375 3.1875 6.1875 C2.01506533 4.02775192 0.80630718 2.64209744 -1 1 C-0.67 0.67 -0.34 0.34 0 0 Z " fill="#032829" transform="translate(501,213)"/>
<path d="M0 0 C2.38564077 0.57584432 4.66682784 1.22227595 7 2 C7 2.66 7 3.32 7 4 C7.66 4 8.32 4 9 4 C9 4.66 9 5.32 9 6 C5.59687262 4.94124926 2.98646769 3.99097846 0 2 C0 1.34 0 0.68 0 0 Z " fill="#001E20" transform="translate(812,174)"/>
<path d="M0 0 C0.66 0 1.32 0 2 0 C3.32 2.97 4.64 5.94 6 9 C5.01 9 4.02 9 3 9 C0 3.375 0 3.375 0 0 Z " fill="#012827" transform="translate(610,172)"/>
<path d="M0 0 C6.75 -0.125 6.75 -0.125 9 1 C9 1.66 9 2.32 9 3 C6.03 2.67 3.06 2.34 0 2 C0 1.34 0 0.68 0 0 Z " fill="#052824" transform="translate(704,458)"/>
<path d="M0 0 C5.41538462 -0.36923077 5.41538462 -0.36923077 8.375 1.5 C8.91125 1.995 9.4475 2.49 10 3 C8.35 3.33 6.7 3.66 5 4 C4.67 3.34 4.34 2.68 4 2 C1.98330173 0.86649466 1.98330173 0.86649466 0 0 Z " fill="#032928" transform="translate(487,207)"/>
<path d="M0 0 C0.66 0.33 1.32 0.66 2 1 C1.67 1.66 1.34 2.32 1 3 C0.34 3 -0.32 3 -1 3 C-1 3.66 -1 4.32 -1 5 C-2.65 5.66 -4.3 6.32 -6 7 C-6.33 6.34 -6.66 5.68 -7 5 C-4.69 3.35 -2.38 1.7 0 0 Z " fill="#01271F" transform="translate(588,200)"/>
<path d="M0 0 C2.8125 0.1875 2.8125 0.1875 6 1 C7.8125 3.4375 7.8125 3.4375 9 6 C9.33 6.66 9.66 7.32 10 8 C6.05205855 6.32971708 3.18203882 3.8204435 0 1 C0 0.67 0 0.34 0 0 Z " fill="#011F1E" transform="translate(816,188)"/>
<path d="M0 0 C0.66 0.33 1.32 0.66 2 1 C-0.475 4.465 -0.475 4.465 -3 8 C-3.99 7.67 -4.98 7.34 -6 7 C-2.25 1.125 -2.25 1.125 0 0 Z " fill="#032424" transform="translate(541,166)"/>
<path d="M0 0 C0.99 0 1.98 0 3 0 C3 0.99 3 1.98 3 3 C2.01 3 1.02 3 0 3 C-0.66 3.66 -1.32 4.32 -2 5 C-4.125 5.625 -4.125 5.625 -6 6 C-4 4 -2 2 0 0 Z " fill="#0B3533" transform="translate(559,149)"/>
<path d="M0 0 C3.465 1.485 3.465 1.485 7 3 C7 3.66 7 4.32 7 5 C3.31245243 4.50168276 1.39509338 3.89932357 -1 1 C-0.67 0.67 -0.34 0.34 0 0 Z " fill="#022421" transform="translate(694,452)"/>
<path d="M0 0 C2.97 0.33 5.94 0.66 9 1 C9 1.66 9 2.32 9 3 C9.66 3.33 10.32 3.66 11 4 C7.0507432 3.44894091 3.65079826 2.61064629 0 1 C0 0.67 0 0.34 0 0 Z " fill="#012322" transform="translate(586,383)"/>
<path d="M0 0 C-2.55068845 2.35448165 -3.71017358 2.98327924 -7.25 3.1875 C-8.1575 3.125625 -9.065 3.06375 -10 3 C-10 2.34 -10 1.68 -10 1 C-6.61981469 -0.04005702 -3.5219721 -0.08004482 0 0 Z " fill="#94C36B" transform="translate(765,319)"/>
<path d="M0 0 C0.99 0.33 1.98 0.66 3 1 C0.6875 3.5 0.6875 3.5 -2 6 C-2.99 6 -3.98 6 -5 6 C-4.34 5.01 -3.68 4.02 -3 3 C-2.34 3 -1.68 3 -1 3 C-0.67 2.01 -0.34 1.02 0 0 Z " fill="#002222" transform="translate(752,193)"/>
<path d="M0 0 C0.66 0 1.32 0 2 0 C3.125 3.3125 3.125 3.3125 4 7 C3.01 8.485 3.01 8.485 2 10 C1.34 6.7 0.68 3.4 0 0 Z " fill="#002725" transform="translate(793,173)"/>
<path d="M0 0 C0.99 0.33 1.98 0.66 3 1 C4.1875 3.5625 4.1875 3.5625 5 6 C3.35 6.33 1.7 6.66 0 7 C0 4.69 0 2.38 0 0 Z " fill="#022625" transform="translate(599,146)"/>
<path d="M0 0 C-0.66 0 -1.32 0 -2 0 C-2 0.66 -2 1.32 -2 2 C-3.8125 3.0625 -3.8125 3.0625 -6 4 C-6.99 3.67 -7.98 3.34 -9 3 C-7 0 -7 0 -5.0625 -0.75 C-3 -1 -3 -1 0 0 Z " fill="#092D2C" transform="translate(522,114)"/>
<path d="M0 0 C0.33 0.99 0.66 1.98 1 3 C-2.63 2.34 -6.26 1.68 -10 1 C-5.64467851 -1.17766075 -4.53374042 -1.03039555 0 0 Z " fill="#012123" transform="translate(560,110)"/>
<path d="M0 0 C0 0.66 0 1.32 0 2 C-2.64 2.66 -5.28 3.32 -8 4 C-7.67 3.01 -7.34 2.02 -7 1 C-4.52260646 0.09162237 -2.66420516 0 0 0 Z " fill="#012623" transform="translate(699,523)"/>
<path d="M0 0 C2.96865509 2.54456151 4.3619751 5.48994665 6 9 C3.5067466 8.00269864 2.22532561 7.34925469 0.75 5.0625 C0 3 0 3 0 0 Z " fill="#012222" transform="translate(457,421)"/>
<path d="M0 0 C0.33 0.99 0.66 1.98 1 3 C-1.97 5.475 -1.97 5.475 -5 8 C-5.66 7.67 -6.32 7.34 -7 7 C-2.25 1.125 -2.25 1.125 0 0 Z " fill="#284B30" transform="translate(782,372)"/>
<path d="M0 0 C0.99 0.33 1.98 0.66 3 1 C1.35 2.98 -0.3 4.96 -2 7 C-2.66 6.01 -3.32 5.02 -4 4 C-2.68 2.68 -1.36 1.36 0 0 Z " fill="#012222" transform="translate(522,350)"/>
<path d="M0 0 C0.66 0 1.32 0 2 0 C2 1.65 2 3.3 2 5 C0.02 5.33 -1.96 5.66 -4 6 C-2.84826645 3.53199953 -1.95216435 1.95216435 0 0 Z " fill="#9CC472" transform="translate(841,268)"/>
<path d="M0 0 C3.83736322 0.95934081 4.59660228 1.23609263 7 4 C6.67 4.99 6.34 5.98 6 7 C4.02 4.69 2.04 2.38 0 0 Z " fill="#012524" transform="translate(821,181)"/>
<path d="M0 0 C0.99 0.33 1.98 0.66 3 1 C-1.75 5.875 -1.75 5.875 -4 7 C-4 6.01 -4 5.02 -4 4 C-3.34 4 -2.68 4 -2 4 C-1.34 2.68 -0.68 1.36 0 0 Z " fill="#012725" transform="translate(769,176)"/>
<path d="M0 0 C1.52299523 2.93720508 2.80100302 5.9168649 4 9 C3.01 9.495 3.01 9.495 2 10 C-1.125 3.375 -1.125 3.375 0 0 Z " fill="#011E1D" transform="translate(431,143)"/>
<path d="M0 0 C0.33 0.99 0.66 1.98 1 3 C-0.75 4.5625 -0.75 4.5625 -3 6 C-4.32 5.67 -5.64 5.34 -7 5 C-4.69 3.35 -2.38 1.7 0 0 Z " fill="#8EBD5C" transform="translate(799,427)"/>
<path d="M0 0 C0.99 1.32 1.98 2.64 3 4 C2.1875 7.75 2.1875 7.75 1 11 C0.67 11 0.34 11 0 11 C0 7.37 0 3.74 0 0 Z " fill="#032926" transform="translate(442,324)"/>
<path d="M0 0 C2.97 0.99 5.94 1.98 9 3 C8.01 3.66 7.02 4.32 6 5 C3.375 4.3125 3.375 4.3125 1 3 C0.67 2.01 0.34 1.02 0 0 Z " fill="#001111" transform="translate(684,275)"/>
<path d="M0 0 C4.455 0.99 4.455 0.99 9 2 C8.67 2.66 8.34 3.32 8 4 C5.23723823 3.47731534 2.6739124 2.89130413 0 2 C0 1.34 0 0.68 0 0 Z " fill="#002022" transform="translate(836,195)"/>
<path d="M0 0 C0.66 0.33 1.32 0.66 2 1 C2.40729228 3.32156597 2.74438677 5.6568787 3 8 C2.01 8.495 2.01 8.495 1 9 C0.63877119 7.68942607 0.28619689 6.37646376 -0.0625 5.0625 C-0.35833984 3.96615234 -0.35833984 3.96615234 -0.66015625 2.84765625 C-0.77230469 2.23792969 -0.88445313 1.62820312 -1 1 C-0.67 0.67 -0.34 0.34 0 0 Z " fill="#002321" transform="translate(590,156)"/>
</svg>
