<?xml version="1.0" encoding="UTF-8"?>
<svg version="1.1" xmlns="http://www.w3.org/2000/svg" width="216" height="182">
<path d="M0 0 C1.1034375 0.00644531 2.206875 0.01289063 3.34375 0.01953125 C6.5 0.1875 6.5 0.1875 9.21875 0.76171875 C11.65117317 1.40650875 11.65117317 1.40650875 14.5 0.1875 C22.39306943 -0.4242881 30.06829593 -0.99239589 36.5 4.1875 C43.80854473 11.27809608 46.34414582 16.85982034 46.59765625 27.15234375 C46.58605469 28.46332031 46.57445312 29.77429688 46.5625 31.125 C46.55798828 31.80884766 46.55347656 32.49269531 46.54882812 33.19726562 C46.5371956 34.86071604 46.51926694 36.5241205 46.5 38.1875 C47.428125 38.125625 48.35625 38.06375 49.3125 38 C52.5 38.1875 52.5 38.1875 54.15812778 39.44063187 C55.75768794 41.52296178 55.96395477 42.72510945 56.15745544 45.32489014 C56.22192305 46.12391502 56.28639065 46.92293991 56.35281181 47.74617767 C56.40138391 48.55181404 56.44995602 49.35745041 56.5 50.1875 C56.57149104 51.26226467 56.57149104 51.26226467 56.64442635 52.35874176 C56.77710517 54.56835757 56.88243605 56.77785327 56.98071289 58.98925781 C57.0198732 59.81825089 57.05903351 60.64724396 57.09938049 61.50135803 C57.22673088 64.21432002 57.34984904 66.92745385 57.47265625 69.640625 C57.56073916 71.54718798 57.64899389 73.45374304 57.7374115 75.36029053 C57.92165373 79.3476936 58.10378779 83.33518589 58.28442383 87.32275391 C58.51462492 92.40067151 58.75010947 97.47832755 58.98720646 102.55592728 C59.17039875 106.49208814 59.35071844 110.42837677 59.53021049 114.36470795 C59.61584346 116.23519673 59.70234618 118.10564593 59.78978157 119.97605133 C60.25930856 130.05525635 60.63917275 140.09485049 60.5 150.1875 C61.08483154 149.90946533 61.66966309 149.63143066 62.2722168 149.3449707 C62.94551025 149.02488037 63.61880371 148.70479004 64.3125 148.375 C67.24166072 146.98244818 69.4399142 145.71822837 71.5 143.1875 C71.90843633 141.1170389 71.90843633 141.1170389 71.75585938 138.73193359 C71.72838623 137.74715027 71.70091309 136.76236694 71.67260742 135.7477417 C71.61564697 134.57286194 71.55868652 133.39798218 71.5 132.1875 C71.46770294 131.50736092 71.43540588 130.82722183 71.40213013 130.12647247 C71.11523418 124.24042128 70.76201891 118.35877828 70.40625 112.4765625 C70.29382554 110.57614011 70.18172991 108.67569823 70.06994629 106.77523804 C69.77676505 101.80242648 69.47999756 96.8298362 69.18218994 91.8572998 C68.70478627 83.87882083 68.23208371 75.90006406 67.76091003 67.92121506 C67.59614849 65.14202011 67.42935557 62.36295246 67.2623291 59.58389282 C67.16115101 57.88096485 67.06003286 56.17803332 66.95898438 54.47509766 C66.91223068 53.70619202 66.86547699 52.93728638 66.81730652 52.14508057 C66.60195846 48.48728239 66.44696402 44.85189156 66.5 41.1875 C70.40878334 38.58164444 73.96121966 38.96428129 78.5 39.1875 C80.00154621 40.68904621 79.76587298 42.07819706 79.93310547 44.17675781 C80.00353058 45.03412033 80.07395569 45.89148285 80.14651489 46.77482605 C80.21933685 47.7205397 80.29215881 48.66625336 80.3671875 49.640625 C80.44653534 50.6274678 80.52588318 51.61431061 80.6076355 52.63105774 C80.86859902 55.89948534 81.12224781 59.16842777 81.375 62.4375 C81.46237427 63.55196503 81.54974854 64.66643005 81.63977051 65.81466675 C82.84348867 81.16921544 83.99703394 96.52775005 85.05328369 111.89318848 C85.18251975 113.77001846 85.313449 115.64673277 85.44622803 117.52331543 C86.0879807 126.6505104 86.60978441 135.75015648 86.640625 144.90234375 C86.64431091 145.6263588 86.64799683 146.35037384 86.65179443 147.09632874 C86.62640641 152.06109359 86.62640641 152.06109359 85.5 153.1875 C83.63391793 153.28839265 81.76397735 153.3182706 79.89517212 153.32121277 C78.06953484 153.32761024 78.06953484 153.32761024 76.20701599 153.33413696 C74.84585568 153.3337874 73.4846954 153.33332584 72.12353516 153.33276367 C70.69970104 153.33575361 69.27586774 153.33915575 67.85203552 153.34294128 C63.9739135 153.35180314 60.09581352 153.35412033 56.21768236 153.35475707 C52.98450052 153.35570452 49.75132386 153.35938098 46.51814401 153.36292917 C38.89165065 153.37108231 31.2651691 153.37351265 23.63867188 153.37280273 C15.76284587 153.37220196 7.88708837 153.38275173 0.0112797 153.3985464 C-6.74202561 153.41160897 -13.4953085 153.41698716 -20.24862635 153.41634732 C-24.28576411 153.41609192 -28.32284106 153.41896605 -32.35996628 153.42952538 C-36.15693622 153.43918465 -39.95378696 153.43930055 -43.75076103 153.43200874 C-45.14597815 153.43096013 -46.5412026 153.43334212 -47.93640709 153.4393692 C-49.83799144 153.44705288 -51.73961615 153.44126142 -53.64120483 153.43473816 C-55.23902833 153.43555531 -55.23902833 153.43555531 -56.86913109 153.43638897 C-59.5 153.1875 -59.5 153.1875 -62.5 151.1875 C-62.76732382 148.64207126 -62.83772505 146.36416328 -62.76513672 143.82226562 C-62.75362013 143.06783424 -62.74210354 142.31340286 -62.73023796 141.53610992 C-62.54297958 132.35201545 -61.90801303 123.19186275 -61.2578125 114.03125 C-61.12776765 112.14898818 -60.99804393 110.26670415 -60.86862183 108.38439941 C-60.59841866 104.4747344 -60.32394364 100.56539959 -60.04638672 96.65625 C-59.69250982 91.66638115 -59.35022531 86.67579363 -59.01117134 81.68489838 C-58.74666221 77.8119461 -58.47569744 73.93946562 -58.20284653 70.0670929 C-58.07402189 68.22697704 -57.94724557 66.3867165 -57.82263565 64.54631042 C-57.64763848 61.97501988 -57.46382892 59.40449964 -57.27783203 56.83398438 C-57.20446121 55.71633698 -57.20446121 55.71633698 -57.12960815 54.57611084 C-56.74291788 49.40838957 -56.19098495 44.10971786 -54.5 39.1875 C-51.76321275 37.81910637 -49.45735576 37.97115182 -46.3984375 37.87109375 C-45.18671875 37.82919922 -43.975 37.78730469 -42.7265625 37.74414062 C-41.45554687 37.70482422 -40.18453125 37.66550781 -38.875 37.625 C-36.956875 37.56022461 -36.956875 37.56022461 -35 37.49414062 C-31.83344652 37.38780114 -28.66681247 37.28577167 -25.5 37.1875 C-25.48582031 35.93195312 -25.47164062 34.67640625 -25.45703125 33.3828125 C-24.99340801 13.45895213 -24.99340801 13.45895213 -17.56640625 6.33203125 C-11.97966546 1.8858727 -7.20978917 -0.09264916 0 0 Z M15.5 5.1875 C16.263125 6.05375 17.02625 6.92 17.8125 7.8125 C23.24590815 13.98015249 24.1030211 20.14790495 24.6875 28.0625 C24.76935547 29.03703125 24.85121094 30.0115625 24.93554688 31.015625 C25.13470968 33.40557871 25.32252246 35.79585472 25.5 38.1875 C28.14590014 38.21434679 30.79153096 38.23426357 33.4375 38.25 C34.56961914 38.26256836 34.56961914 38.26256836 35.72460938 38.27539062 C37.64994313 38.28402441 39.57535581 38.23974333 41.5 38.1875 C43.38479142 36.30270858 42.71774624 33.20329362 42.75 30.6875 C42.66220393 22.03958727 41.39242635 15.17604844 35.37890625 8.6953125 C29.64652464 4.09510605 22.19299328 1.36293241 15.5 5.1875 Z M-13.8125 8.375 C-18.90284441 13.70210461 -20.9792765 18.87957553 -20.90039062 26.24023438 C-20.87138672 27.02720703 -20.84238281 27.81417969 -20.8125 28.625 C-20.80283203 29.43904297 -20.79316406 30.25308594 -20.78320312 31.09179688 C-21.05944238 34.95237454 -21.05944238 34.95237454 -19.5 38.1875 C-16.98863896 38.28725032 -14.51096585 38.32632183 -12 38.3125 C-11.29746094 38.31636719 -10.59492187 38.32023437 -9.87109375 38.32421875 C-6.39571192 38.63140931 -6.39571192 38.63140931 -3.5 37.1875 C-3.38602584 35.29637313 -3.27877761 33.40453847 -3.20996094 31.51123047 C-2.81143112 20.61121087 -1.36815196 12.91190924 5.5 4.1875 C-1.98073377 2.43668997 -7.44781785 4.17190801 -13.8125 8.375 Z M6.8671875 8.5078125 C6.37476562 9.10335938 5.88234375 9.69890625 5.375 10.3125 C4.62863281 11.18261719 4.62863281 11.18261719 3.8671875 12.0703125 C0.3635125 17.4960035 0.21147945 22.76331015 0.3125 29 C0.31314453 29.77537109 0.31378906 30.55074219 0.31445312 31.34960938 C-0.00246626 35.07212766 -0.00246626 35.07212766 1.5 38.1875 C2.91570123 38.27401611 4.335595 38.29454904 5.75390625 38.28515625 C6.60791016 38.28193359 7.46191406 38.27871094 8.34179688 38.27539062 C9.23962891 38.26701172 10.13746094 38.25863281 11.0625 38.25 C12.41504883 38.24323242 12.41504883 38.24323242 13.79492188 38.23632812 C16.03001314 38.22450225 18.26497437 38.2080222 20.5 38.1875 C20.64700056 35.02133401 20.73462106 31.85606018 20.8125 28.6875 C20.85439453 27.800625 20.89628906 26.91375 20.93945312 26 C21.07887569 18.41541227 18.81034802 14.20806399 14.08325195 8.46679688 C11.57927032 6.44353338 9.35380537 6.49710236 6.8671875 8.5078125 Z M-9.5 62.1875 C-11.96976226 66.34119107 -11.61362934 69.56165503 -10.5 74.1875 C-8.60466125 76.77205285 -7.61173483 77.15025506 -4.5 78.1875 C-1.08955989 76.90858496 1.03291729 75.74799925 3.375 72.9375 C4.82396185 69.39559325 4.97469444 66.98505549 4.5 63.1875 C2.97662048 60.17801026 2.97662048 60.17801026 0.5 58.1875 C-4.03919543 57.13999336 -6.33840732 59.02590732 -9.5 62.1875 Z M13.5 71.1875 C10.98553366 74.65985828 11.05157641 78.00221318 11.5 82.1875 C12.95997987 84.81466577 12.95997987 84.81466577 15.5 86.1875 C19.19483092 86.1875 21.13704302 85.41847262 24.25 83.4375 C26.71447708 80.97302292 27.71276667 79.5726033 28.5 76.1875 C28.43022926 72.52994606 28.43022926 72.52994606 27.5 69.1875 C21.96243131 65.49578754 18.06495129 66.62254871 13.5 71.1875 Z M-30.8125 71.6875 C-32.9730845 74.88836593 -33.29115642 77.35870103 -33.5 81.1875 C-32.74849977 84.46523504 -32.74849977 84.46523504 -29.5 86.1875 C-26.79833395 85.98487505 -25.03150686 85.52918298 -22.75 84.0625 C-20.82971619 81.18207428 -20.67974555 78.60266549 -20.5 75.1875 C-20.87631112 72.76531883 -20.87631112 72.76531883 -22.5 71.1875 C-26.03685285 69.95729031 -27.61925447 69.6162056 -30.8125 71.6875 Z M-14.3984375 89.7421875 C-16.81910163 91.40695651 -18.48214019 91.693007 -21.375 92.0625 C-27.22644896 93.09815468 -30.24793027 95.21886263 -33.875 100 C-35.1823908 104.57586778 -35.17633152 108.62125858 -33.3125 112.9375 C-29.19405657 118.05005046 -25.71186779 119.64507433 -19.25 120.5625 C-13.31137771 121.52758006 -9.3368083 123.25561898 -4.5546875 126.8828125 C-1.06944969 129.09587225 2.43832772 129.3937568 6.5 129.1875 C11.02335768 128.15946416 13.50838881 125.66423733 16.5 122.1875 C18.24821265 119.16785998 18.5 117.38108509 18.5 113.875 C17.53561438 110.31882804 16.8137315 109.10509981 14.5625 106.375 C11.9851008 103.24443258 11.09211606 101.07674903 10.5625 97.0625 C9.97199212 93.2680484 9.19872988 91.27105699 6.375 88.625 C-0.53430203 83.57920267 -7.73805051 84.2877965 -14.3984375 89.7421875 Z M25.5 94.1875 C23.08911186 96.59838814 22.54922522 97.84292347 22.0625 101.25 C22.2511358 104.22814087 22.2511358 104.22814087 24.125 106.1875 C26.54671409 107.46405981 26.54671409 107.46405981 29.5 106.625 C32.63268876 105.12391997 34.38427522 103.9301062 36.5 101.1875 C37.4908258 98.35656914 37.67747602 96.82641367 36.875 93.9375 C35.58681005 91.9998414 35.58681005 91.9998414 33.1875 91.25 C29.69583078 91.16879839 28.25555996 92.08457266 25.5 94.1875 Z " fill="#EF2054" transform="translate(98.5,11.8125)"/>
<path d="M0 0 C0.33 0 0.66 0 1 0 C1 4.29 1 8.58 1 13 C1.66 13 2.32 13 3 13 C3.66 13.66 4.32 14.32 5 15 C7.89967757 15.30675232 10.71783178 15.51173371 13.625 15.625 C14.42679688 15.66367187 15.22859375 15.70234375 16.0546875 15.7421875 C18.03607556 15.83653931 20.01800645 15.91936215 22 16 C22 16.33 22 16.66 22 17 C20.96359375 17.06058594 19.9271875 17.12117188 18.859375 17.18359375 C17.48957127 17.26803371 16.11978025 17.35267997 14.75 17.4375 C14.06808594 17.47681641 13.38617188 17.51613281 12.68359375 17.55664062 C9.35551959 17.76666472 6.19744598 18.01934002 3 19 C2.67 20.32 2.34 21.64 2 23 C0.68 23.33 -0.64 23.66 -2 24 C-1.01 22.68 -0.02 21.36 1 20 C-0.98 20.33 -2.96 20.66 -5 21 C-5 19.68 -5 18.36 -5 17 C-11.6 17 -18.2 17 -25 17 C-25 16.67 -25 16.34 -25 16 C-17.08 15.67 -9.16 15.34 -1 15 C-0.67 10.05 -0.34 5.1 0 0 Z " fill="#EF3361" transform="translate(74,34)"/>
<path d="M0 0 C2.31 1.98 4.62 3.96 7 6 C5.12244138 9.75511724 4.37972575 10.88767141 1 13 C0.34 13 -0.32 13 -1 13 C-1.66 14.32 -2.32 15.64 -3 17 C-6.38599443 13.46678842 -7.03899885 9.75786022 -7 5 C-6.0625 2.5 -6.0625 2.5 -5 1 C-5 3.31 -5 5.62 -5 8 C-3.35 8.33 -1.7 8.66 0 9 C0 6.03 0 3.06 0 0 Z " fill="#EE2A5B" transform="translate(48,70)"/>
</svg>
